<ttFont>
    <TTGlyph name="A" xMin="23" yMin="-14" xMax="1431" yMax="1390">
      <contour>
        <pt x="503" y="604" on="1"/>
        <pt x="503" y="594" on="1"/>
        <pt x="503" y="582" on="0"/>
        <pt x="596" y="582" on="1"/>
        <pt x="711" y="582" on="1"/>
        <pt x="848" y="582" on="0"/>
        <pt x="848" y="598" on="1"/>
        <pt x="848" y="641" on="0"/>
        <pt x="678" y="1083" on="0"/>
        <pt x="673" y="1083" on="0"/>
        <pt x="503" y="640" on="0"/>
      </contour>
      <contour>
        <pt x="700" y="1390" on="1"/>
        <pt x="729" y="1390" on="1"/>
        <pt x="803" y="1390" on="0"/>
        <pt x="895" y="1232" on="1"/>
        <pt x="927" y="1177" on="0"/>
        <pt x="1055" y="831" on="0"/>
        <pt x="1147" y="603" on="0"/>
        <pt x="1256" y="288" on="0"/>
        <pt x="1305" y="185" on="0"/>
        <pt x="1431" y="91" on="0"/>
        <pt x="1431" y="22" on="0"/>
        <pt x="1388" y="11" on="1"/>
        <pt x="1318" y="-6" on="0"/>
        <pt x="1041" y="-6" on="1"/>
        <pt x="915" y="-6" on="0"/>
        <pt x="915" y="48" on="1"/>
        <pt x="915" y="62" on="0"/>
        <pt x="955" y="171" on="0"/>
        <pt x="955" y="197" on="1"/>
        <pt x="955" y="320" on="0"/>
        <pt x="896" y="404" on="1"/>
        <pt x="872" y="438" on="0"/>
        <pt x="745" y="438" on="1"/>
        <pt x="512" y="438" on="0"/>
        <pt x="451" y="408" on="0"/>
        <pt x="388" y="286" on="0"/>
        <pt x="388" y="182" on="0"/>
        <pt x="445" y="62" on="0"/>
        <pt x="445" y="28" on="1"/>
        <pt x="445" y="-14" on="0"/>
        <pt x="355" y="-14" on="1"/>
        <pt x="141" y="-14" on="0"/>
        <pt x="69" y="6" on="1"/>
        <pt x="23" y="19" on="0"/>
        <pt x="23" y="71" on="1"/>
        <pt x="23" y="78" on="0"/>
        <pt x="114" y="158" on="1"/>
        <pt x="164" y="202" on="0"/>
        <pt x="194" y="273" on="1"/>
        <pt x="410" y="788" on="0"/>
        <pt x="527" y="1251" on="0"/>
        <pt x="609" y="1390" on="0"/>
      </contour>
    </TTGlyph>
    <TTGlyph name="AE" xMin="31" yMin="-6" xMax="1814" yMax="1353">
      <contour>
        <pt x="904" y="858" on="1"/>
        <pt x="904" y="1110" on="0"/>
        <pt x="875" y="1110" on="0"/>
        <pt x="776" y="926" on="0"/>
        <pt x="734" y="854" on="0"/>
        <pt x="602" y="609" on="0"/>
        <pt x="602" y="608" on="1"/>
        <pt x="602" y="597" on="0"/>
        <pt x="667" y="597" on="1"/>
        <pt x="833" y="597" on="1"/>
        <pt x="840" y="598" on="1"/>
        <pt x="854" y="598" on="1"/>
        <pt x="881" y="600" on="1"/>
        <pt x="909" y="600" on="0"/>
        <pt x="909" y="623" on="1"/>
        <pt x="909" y="638" on="1"/>
        <pt x="908" y="645" on="1"/>
        <pt x="908" y="687" on="1"/>
        <pt x="907" y="701" on="1"/>
        <pt x="907" y="715" on="0"/>
        <pt x="907" y="729" on="1"/>
        <pt x="906" y="744" on="1"/>
        <pt x="906" y="758" on="0"/>
        <pt x="906" y="772" on="1"/>
        <pt x="905" y="786" on="1"/>
        <pt x="905" y="815" on="1"/>
        <pt x="904" y="830" on="1"/>
        <pt x="904" y="844" on="0"/>
      </contour>
      <contour>
        <pt x="756" y="460" on="1"/>
        <pt x="579" y="460" on="0"/>
        <pt x="482" y="388" on="0"/>
        <pt x="421" y="215" on="0"/>
        <pt x="421" y="138" on="0"/>
        <pt x="431" y="112" on="1"/>
        <pt x="446" y="83" on="1"/>
        <pt x="462" y="48" on="0"/>
        <pt x="462" y="31" on="1"/>
        <pt x="462" y="-5" on="0"/>
        <pt x="310" y="-5" on="1"/>
        <pt x="31" y="-5" on="0"/>
        <pt x="31" y="46" on="1"/>
        <pt x="31" y="89" on="0"/>
        <pt x="139" y="173" on="1"/>
        <pt x="190" y="213" on="0"/>
        <pt x="257" y="330" on="1"/>
        <pt x="634" y="987" on="0"/>
        <pt x="705" y="1130" on="0"/>
        <pt x="705" y="1209" on="1"/>
        <pt x="697" y="1244" on="1"/>
        <pt x="689" y="1274" on="1"/>
        <pt x="689" y="1326" on="0"/>
        <pt x="742" y="1344" on="1"/>
        <pt x="766" y="1352" on="0"/>
        <pt x="1251" y="1352" on="1"/>
        <pt x="1462" y="1353" on="1"/>
        <pt x="1515" y="1353" on="1"/>
        <pt x="1662" y="1353" on="0"/>
        <pt x="1716" y="1288" on="1"/>
        <pt x="1752" y="1245" on="0"/>
        <pt x="1752" y="1059" on="0"/>
        <pt x="1664" y="1059" on="0"/>
        <pt x="1456" y="1193" on="0"/>
        <pt x="1307" y="1193" on="1"/>
        <pt x="1252" y="1193" on="0"/>
        <pt x="1214" y="1102" on="1"/>
        <pt x="1188" y="1040" on="0"/>
        <pt x="1188" y="845" on="0"/>
        <pt x="1254" y="775" on="0"/>
        <pt x="1360" y="775" on="0"/>
        <pt x="1401" y="794" on="1"/>
        <pt x="1434" y="814" on="1"/>
        <pt x="1486" y="847" on="0"/>
        <pt x="1498" y="847" on="1"/>
        <pt x="1543" y="847" on="0"/>
        <pt x="1579" y="790" on="0"/>
        <pt x="1579" y="636" on="0"/>
        <pt x="1563" y="595" on="1"/>
        <pt x="1537" y="529" on="0"/>
        <pt x="1497" y="529" on="1"/>
        <pt x="1471" y="529" on="0"/>
        <pt x="1359" y="577" on="0"/>
        <pt x="1275" y="577" on="0"/>
        <pt x="1234" y="540" on="1"/>
        <pt x="1209" y="517" on="0"/>
        <pt x="1209" y="341" on="0"/>
        <pt x="1267" y="243" on="1"/>
        <pt x="1309" y="172" on="0"/>
        <pt x="1370" y="172" on="1"/>
        <pt x="1464" y="172" on="0"/>
        <pt x="1593" y="215" on="1"/>
        <pt x="1634" y="230" on="1"/>
        <pt x="1745" y="277" on="0"/>
        <pt x="1761" y="277" on="1"/>
        <pt x="1814" y="277" on="0"/>
        <pt x="1814" y="210" on="1"/>
        <pt x="1814" y="173" on="1"/>
        <pt x="1814" y="143" on="0"/>
        <pt x="1748" y="57" on="0"/>
        <pt x="1600" y="-6" on="0"/>
        <pt x="1415" y="-6" on="1"/>
        <pt x="1308" y="-6" on="1"/>
        <pt x="1254" y="-5" on="1"/>
        <pt x="1200" y="-5" on="1"/>
        <pt x="902" y="-5" on="0"/>
        <pt x="827" y="30" on="0"/>
        <pt x="827" y="83" on="1"/>
        <pt x="840" y="113" on="1"/>
        <pt x="859" y="144" on="1"/>
        <pt x="882" y="176" on="1"/>
        <pt x="913" y="232" on="0"/>
        <pt x="913" y="395" on="0"/>
        <pt x="850" y="460" on="0"/>
      </contour>
    </TTGlyph>
    <TTGlyph name="Aacute" xMin="18" yMin="-21" xMax="1424" yMax="1823">
      <contour>
        <pt x="518" y="549" on="1"/>
        <pt x="802" y="549" on="1"/>
        <pt x="825" y="549" on="0"/>
        <pt x="825" y="558" on="1"/>
        <pt x="825" y="563" on="1"/>
        <pt x="825" y="611" on="0"/>
        <pt x="682" y="983" on="1"/>
        <pt x="662" y="1036" on="0"/>
        <pt x="654" y="1036" on="0"/>
        <pt x="611" y="896" on="0"/>
        <pt x="493" y="588" on="0"/>
        <pt x="493" y="567" on="1"/>
        <pt x="493" y="561" on="1"/>
        <pt x="493" y="549" on="0"/>
      </contour>
      <contour>
        <pt x="648" y="1462" on="1"/>
        <pt x="625" y="1462" on="1"/>
        <pt x="582" y="1462" on="0"/>
        <pt x="582" y="1489" on="1"/>
        <pt x="582" y="1505" on="1"/>
        <pt x="582" y="1548" on="0"/>
        <pt x="755" y="1770" on="1"/>
        <pt x="796" y="1823" on="0"/>
        <pt x="865" y="1823" on="1"/>
        <pt x="896" y="1823" on="1"/>
        <pt x="955" y="1823" on="0"/>
        <pt x="1025" y="1781" on="0"/>
        <pt x="1025" y="1773" on="1"/>
        <pt x="1025" y="1762" on="1"/>
        <pt x="1025" y="1699" on="0"/>
        <pt x="771" y="1514" on="1"/>
        <pt x="699" y="1462" on="0"/>
      </contour>
      <contour>
        <pt x="720" y="1344" on="1"/>
        <pt x="782" y="1344" on="0"/>
        <pt x="819" y="1311" on="1"/>
        <pt x="882" y="1255" on="0"/>
        <pt x="957" y="1098" on="0"/>
        <pt x="1064" y="772" on="0"/>
        <pt x="1086" y="715" on="1"/>
        <pt x="1268" y="230" on="1"/>
        <pt x="1300" y="163" on="0"/>
        <pt x="1424" y="74" on="0"/>
        <pt x="1424" y="42" on="1"/>
        <pt x="1424" y="2" on="0"/>
        <pt x="1361" y="-6" on="1"/>
        <pt x="1257" y="-20" on="0"/>
        <pt x="982" y="-20" on="1"/>
        <pt x="878" y="-20" on="0"/>
        <pt x="878" y="28" on="1"/>
        <pt x="878" y="47" on="0"/>
        <pt x="932" y="139" on="0"/>
        <pt x="932" y="164" on="1"/>
        <pt x="932" y="233" on="0"/>
        <pt x="881" y="379" on="0"/>
        <pt x="836" y="410" on="0"/>
        <pt x="482" y="410" on="0"/>
        <pt x="440" y="383" on="0"/>
        <pt x="390" y="272" on="0"/>
        <pt x="390" y="181" on="0"/>
        <pt x="473" y="40" on="0"/>
        <pt x="473" y="17" on="1"/>
        <pt x="473" y="-21" on="0"/>
        <pt x="381" y="-21" on="1"/>
        <pt x="257" y="-21" on="1"/>
        <pt x="91" y="-21" on="0"/>
        <pt x="54" y="-10" on="1"/>
        <pt x="18" y="1" on="0"/>
        <pt x="18" y="38" on="1"/>
        <pt x="18" y="59" on="0"/>
        <pt x="114" y="146" on="1"/>
        <pt x="166" y="193" on="0"/>
        <pt x="205" y="288" on="1"/>
        <pt x="218" y="320" on="0"/>
        <pt x="273" y="469" on="0"/>
        <pt x="302" y="544" on="1"/>
        <pt x="367" y="717" on="1"/>
        <pt x="371" y="728" on="0"/>
        <pt x="439" y="904" on="0"/>
        <pt x="518" y="1212" on="0"/>
        <pt x="594" y="1344" on="0"/>
      </contour>
    </TTGlyph>
    <TTGlyph name="Acircumflex" xMin="18" yMin="-18" xMax="1424" yMax="1807">
      <contour>
        <pt x="567" y="551" on="1"/>
        <pt x="733" y="551" on="1"/>
        <pt x="825" y="551" on="0"/>
        <pt x="825" y="561" on="1"/>
        <pt x="825" y="566" on="1"/>
        <pt x="825" y="642" on="0"/>
        <pt x="682" y="985" on="1"/>
        <pt x="677" y="997" on="0"/>
        <pt x="664" y="1038" on="0"/>
        <pt x="656" y="1038" on="0"/>
        <pt x="596" y="860" on="0"/>
        <pt x="493" y="591" on="0"/>
        <pt x="493" y="569" on="1"/>
        <pt x="493" y="564" on="1"/>
        <pt x="493" y="551" on="0"/>
      </contour>
      <contour>
        <pt x="703" y="1807" on="1"/>
        <pt x="739" y="1807" on="1"/>
        <pt x="790" y="1807" on="0"/>
        <pt x="852" y="1750" on="0"/>
        <pt x="985" y="1581" on="0"/>
        <pt x="1043" y="1518" on="0"/>
        <pt x="1043" y="1506" on="1"/>
        <pt x="1043" y="1499" on="1"/>
        <pt x="1042" y="1463" on="0"/>
        <pt x="906" y="1463" on="0"/>
        <pt x="815" y="1541" on="1"/>
        <pt x="753" y="1591" on="1"/>
        <pt x="720" y="1617" on="0"/>
        <pt x="712" y="1617" on="0"/>
        <pt x="601" y="1523" on="0"/>
        <pt x="599" y="1521" on="1"/>
        <pt x="523" y="1461" on="0"/>
        <pt x="397" y="1461" on="0"/>
        <pt x="397" y="1499" on="1"/>
        <pt x="397" y="1556" on="0"/>
        <pt x="606" y="1765" on="1"/>
        <pt x="648" y="1807" on="0"/>
      </contour>
      <contour>
        <pt x="720" y="1347" on="1"/>
        <pt x="781" y="1347" on="0"/>
        <pt x="865" y="1272" on="0"/>
        <pt x="945" y="1134" on="0"/>
        <pt x="1072" y="753" on="0"/>
        <pt x="1093" y="699" on="0"/>
        <pt x="1129" y="602" on="1"/>
        <pt x="1150" y="543" on="1"/>
        <pt x="1156" y="527" on="0"/>
        <pt x="1172" y="485" on="1"/>
        <pt x="1214" y="371" on="1"/>
        <pt x="1254" y="261" on="0"/>
        <pt x="1268" y="233" on="1"/>
        <pt x="1299" y="168" on="0"/>
        <pt x="1424" y="75" on="0"/>
        <pt x="1424" y="12" on="0"/>
        <pt x="1336" y="-13" on="0"/>
        <pt x="1162" y="-13" on="1"/>
        <pt x="1103" y="-15" on="1"/>
        <pt x="1015" y="-18" on="0"/>
        <pt x="1012" y="-18" on="1"/>
        <pt x="982" y="-18" on="1"/>
        <pt x="878" y="-18" on="0"/>
        <pt x="878" y="30" on="1"/>
        <pt x="878" y="51" on="0"/>
        <pt x="932" y="140" on="0"/>
        <pt x="932" y="166" on="1"/>
        <pt x="932" y="233" on="0"/>
        <pt x="881" y="383" on="0"/>
        <pt x="837" y="412" on="0"/>
        <pt x="481" y="412" on="0"/>
        <pt x="440" y="386" on="0"/>
        <pt x="390" y="273" on="0"/>
        <pt x="390" y="184" on="0"/>
        <pt x="473" y="43" on="0"/>
        <pt x="473" y="20" on="1"/>
        <pt x="473" y="-18" on="0"/>
        <pt x="381" y="-18" on="1"/>
        <pt x="227" y="-18" on="1"/>
        <pt x="94" y="-18" on="0"/>
        <pt x="18" y="3" on="0"/>
        <pt x="18" y="71" on="0"/>
        <pt x="156" y="180" on="0"/>
        <pt x="193" y="263" on="1"/>
        <pt x="202" y="283" on="0"/>
        <pt x="291" y="518" on="1"/>
        <pt x="357" y="691" on="1"/>
        <pt x="382" y="759" on="0"/>
        <pt x="440" y="909" on="0"/>
        <pt x="516" y="1214" on="0"/>
        <pt x="595" y="1347" on="0"/>
      </contour>
    </TTGlyph>
    <TTGlyph name="Adieresis" xMin="22" yMin="-10" xMax="1428" yMax="1768">
      <contour>
        <pt x="529" y="560" on="1"/>
        <pt x="786" y="560" on="1"/>
        <pt x="830" y="560" on="0"/>
        <pt x="830" y="570" on="1"/>
        <pt x="830" y="575" on="1"/>
        <pt x="830" y="598" on="0"/>
        <pt x="740" y="832" on="0"/>
        <pt x="668" y="1047" on="0"/>
        <pt x="663" y="1047" on="0"/>
        <pt x="497" y="616" on="0"/>
        <pt x="497" y="578" on="1"/>
        <pt x="497" y="573" on="1"/>
        <pt x="497" y="560" on="0"/>
      </contour>
      <contour>
        <pt x="522" y="1489" on="1"/>
        <pt x="503" y="1489" on="1"/>
        <pt x="455" y="1489" on="0"/>
        <pt x="373" y="1547" on="0"/>
        <pt x="373" y="1595" on="1"/>
        <pt x="370" y="1618" on="1"/>
        <pt x="370" y="1637" on="1"/>
        <pt x="370" y="1686" on="0"/>
        <pt x="441" y="1768" on="0"/>
        <pt x="499" y="1768" on="1"/>
        <pt x="528" y="1768" on="1"/>
        <pt x="571" y="1768" on="0"/>
        <pt x="653" y="1710" on="0"/>
        <pt x="653" y="1657" on="1"/>
        <pt x="655" y="1648" on="1"/>
        <pt x="655" y="1615" on="1"/>
        <pt x="655" y="1552" on="0"/>
        <pt x="567" y="1489" on="0"/>
      </contour>
      <contour>
        <pt x="796" y="1637" on="1"/>
        <pt x="798" y="1660" on="1"/>
        <pt x="798" y="1701" on="0"/>
        <pt x="878" y="1768" on="0"/>
        <pt x="929" y="1768" on="1"/>
        <pt x="953" y="1768" on="1"/>
        <pt x="1013" y="1768" on="0"/>
        <pt x="1081" y="1689" on="0"/>
        <pt x="1081" y="1639" on="1"/>
        <pt x="1081" y="1624" on="1"/>
        <pt x="1080" y="1620" on="1"/>
        <pt x="1078" y="1597" on="1"/>
        <pt x="1078" y="1562" on="0"/>
        <pt x="1005" y="1489" on="0"/>
        <pt x="947" y="1489" on="1"/>
        <pt x="928" y="1489" on="1"/>
        <pt x="874" y="1489" on="0"/>
        <pt x="795" y="1557" on="0"/>
        <pt x="795" y="1618" on="1"/>
        <pt x="795" y="1633" on="1"/>
      </contour>
      <contour>
        <pt x="725" y="1355" on="1"/>
        <pt x="755" y="1355" on="1"/>
        <pt x="787" y="1355" on="0"/>
        <pt x="885" y="1267" on="0"/>
        <pt x="963" y="1109" on="0"/>
        <pt x="1091" y="726" on="1"/>
        <pt x="1245" y="308" on="0"/>
        <pt x="1291" y="192" on="0"/>
        <pt x="1337" y="152" on="1"/>
        <pt x="1428" y="72" on="0"/>
        <pt x="1428" y="53" on="1"/>
        <pt x="1428" y="19" on="0"/>
        <pt x="1390" y="9" on="1"/>
        <pt x="1330" y="-7" on="0"/>
        <pt x="1078" y="-7" on="1"/>
        <pt x="1048" y="-8" on="1"/>
        <pt x="1018" y="-9" on="0"/>
        <pt x="987" y="-9" on="1"/>
        <pt x="882" y="-9" on="0"/>
        <pt x="882" y="39" on="1"/>
        <pt x="882" y="57" on="0"/>
        <pt x="937" y="150" on="0"/>
        <pt x="937" y="175" on="1"/>
        <pt x="937" y="239" on="0"/>
        <pt x="886" y="390" on="0"/>
        <pt x="840" y="421" on="0"/>
        <pt x="486" y="421" on="0"/>
        <pt x="444" y="394" on="0"/>
        <pt x="395" y="285" on="0"/>
        <pt x="395" y="193" on="0"/>
        <pt x="478" y="52" on="0"/>
        <pt x="478" y="28" on="1"/>
        <pt x="478" y="-10" on="0"/>
        <pt x="354" y="-10" on="1"/>
        <pt x="323" y="-9" on="1"/>
        <pt x="261" y="-9" on="1"/>
        <pt x="98" y="-9" on="0"/>
        <pt x="22" y="12" on="0"/>
        <pt x="22" y="78" on="0"/>
        <pt x="165" y="194" on="0"/>
        <pt x="233" y="355" on="0"/>
        <pt x="304" y="551" on="0"/>
        <pt x="437" y="896" on="0"/>
        <pt x="523" y="1216" on="0"/>
        <pt x="574" y="1318" on="0"/>
        <pt x="652" y="1355" on="0"/>
      </contour>
    </TTGlyph>
    <TTGlyph name="Agrave" xMin="18" yMin="-21" xMax="1424" yMax="1824">
      <contour>
        <pt x="518" y="549" on="1"/>
        <pt x="802" y="549" on="1"/>
        <pt x="825" y="549" on="0"/>
        <pt x="825" y="558" on="1"/>
        <pt x="825" y="563" on="1"/>
        <pt x="825" y="610" on="0"/>
        <pt x="682" y="982" on="1"/>
        <pt x="661" y="1036" on="0"/>
        <pt x="660" y="1036" on="1"/>
        <pt x="654" y="1036" on="0"/>
        <pt x="611" y="896" on="0"/>
        <pt x="493" y="588" on="0"/>
        <pt x="493" y="566" on="1"/>
        <pt x="493" y="561" on="1"/>
        <pt x="493" y="549" on="0"/>
      </contour>
      <contour>
        <pt x="843" y="1500" on="1"/>
        <pt x="843" y="1490" on="1"/>
        <pt x="843" y="1461" on="0"/>
        <pt x="794" y="1461" on="1"/>
        <pt x="777" y="1461" on="1"/>
        <pt x="724" y="1461" on="0"/>
        <pt x="655" y="1511" on="1"/>
        <pt x="402" y="1695" on="0"/>
        <pt x="402" y="1760" on="1"/>
        <pt x="402" y="1765" on="1"/>
        <pt x="402" y="1780" on="0"/>
        <pt x="418" y="1789" on="1"/>
        <pt x="482" y="1824" on="0"/>
        <pt x="536" y="1824" on="1"/>
        <pt x="561" y="1824" on="1"/>
        <pt x="631" y="1824" on="0"/>
        <pt x="670" y="1774" on="1"/>
        <pt x="843" y="1552" on="0"/>
      </contour>
      <contour>
        <pt x="720" y="1344" on="1"/>
        <pt x="782" y="1344" on="0"/>
        <pt x="864" y="1271" on="0"/>
        <pt x="945" y="1131" on="0"/>
        <pt x="1074" y="746" on="0"/>
        <pt x="1092" y="699" on="0"/>
        <pt x="1107" y="657" on="1"/>
        <pt x="1129" y="599" on="1"/>
        <pt x="1135" y="584" on="0"/>
        <pt x="1155" y="528" on="0"/>
        <pt x="1172" y="483" on="1"/>
        <pt x="1214" y="369" on="1"/>
        <pt x="1256" y="255" on="0"/>
        <pt x="1268" y="230" on="1"/>
        <pt x="1300" y="163" on="0"/>
        <pt x="1424" y="74" on="0"/>
        <pt x="1424" y="42" on="1"/>
        <pt x="1424" y="2" on="0"/>
        <pt x="1361" y="-6" on="1"/>
        <pt x="1250" y="-21" on="0"/>
        <pt x="1012" y="-21" on="1"/>
        <pt x="878" y="-21" on="0"/>
        <pt x="878" y="28" on="1"/>
        <pt x="878" y="47" on="0"/>
        <pt x="932" y="139" on="0"/>
        <pt x="932" y="164" on="1"/>
        <pt x="932" y="233" on="0"/>
        <pt x="881" y="379" on="0"/>
        <pt x="836" y="410" on="0"/>
        <pt x="482" y="410" on="0"/>
        <pt x="440" y="383" on="0"/>
        <pt x="390" y="272" on="0"/>
        <pt x="390" y="181" on="0"/>
        <pt x="473" y="40" on="0"/>
        <pt x="473" y="17" on="1"/>
        <pt x="473" y="-21" on="0"/>
        <pt x="381" y="-21" on="1"/>
        <pt x="227" y="-21" on="1"/>
        <pt x="91" y="-21" on="0"/>
        <pt x="54" y="-10" on="1"/>
        <pt x="18" y="1" on="0"/>
        <pt x="18" y="38" on="1"/>
        <pt x="18" y="62" on="0"/>
        <pt x="114" y="146" on="1"/>
        <pt x="165" y="191" on="0"/>
        <pt x="205" y="288" on="1"/>
        <pt x="218" y="320" on="0"/>
        <pt x="273" y="469" on="0"/>
        <pt x="302" y="544" on="1"/>
        <pt x="367" y="717" on="1"/>
        <pt x="371" y="728" on="0"/>
        <pt x="439" y="904" on="0"/>
        <pt x="518" y="1214" on="0"/>
        <pt x="595" y="1344" on="0"/>
      </contour>
    </TTGlyph>
    <TTGlyph name="Aring" xMin="23" yMin="-32" xMax="1427" yMax="1806">
      <contour>
        <pt x="626" y="1564" on="0"/>
        <pt x="626" y="1543" on="0"/>
        <pt x="680" y="1489" on="0"/>
        <pt x="758" y="1489" on="0"/>
        <pt x="821" y="1539" on="0"/>
        <pt x="821" y="1568" on="1"/>
        <pt x="824" y="1589" on="1"/>
        <pt x="824" y="1606" on="1"/>
        <pt x="824" y="1642" on="0"/>
        <pt x="768" y="1698" on="0"/>
        <pt x="746" y="1698" on="1"/>
        <pt x="726" y="1701" on="1"/>
        <pt x="719" y="1701" on="1"/>
        <pt x="689" y="1696" on="1"/>
        <pt x="670" y="1696" on="0"/>
        <pt x="624" y="1639" on="0"/>
        <pt x="624" y="1622" on="1"/>
        <pt x="621" y="1605" on="1"/>
        <pt x="621" y="1584" on="1"/>
      </contour>
      <contour>
        <pt x="518" y="534" on="1"/>
        <pt x="804" y="534" on="1"/>
        <pt x="831" y="534" on="0"/>
        <pt x="831" y="545" on="1"/>
        <pt x="831" y="551" on="1"/>
        <pt x="831" y="563" on="0"/>
        <pt x="771" y="719" on="0"/>
        <pt x="762" y="750" on="0"/>
        <pt x="725" y="854" on="0"/>
        <pt x="715" y="885" on="0"/>
        <pt x="691" y="948" on="0"/>
        <pt x="669" y="1020" on="0"/>
        <pt x="660" y="1020" on="0"/>
        <pt x="494" y="587" on="0"/>
        <pt x="494" y="547" on="1"/>
        <pt x="494" y="534" on="0"/>
      </contour>
      <contour>
        <pt x="495" y="1580" on="1"/>
        <pt x="495" y="1602" on="1"/>
        <pt x="495" y="1685" on="0"/>
        <pt x="630" y="1806" on="0"/>
        <pt x="725" y="1806" on="1"/>
        <pt x="732" y="1806" on="1"/>
        <pt x="740" y="1805" on="1"/>
        <pt x="825" y="1805" on="0"/>
        <pt x="951" y="1691" on="0"/>
        <pt x="951" y="1610" on="1"/>
        <pt x="951" y="1588" on="1"/>
        <pt x="951" y="1505" on="0"/>
        <pt x="816" y="1384" on="0"/>
        <pt x="729" y="1384" on="1"/>
        <pt x="707" y="1384" on="1"/>
        <pt x="622" y="1384" on="0"/>
        <pt x="495" y="1499" on="0"/>
      </contour>
      <contour>
        <pt x="1427" y="40" on="1"/>
        <pt x="1427" y="-4" on="0"/>
        <pt x="1376" y="-15" on="1"/>
        <pt x="1294" y="-32" on="0"/>
        <pt x="1031" y="-32" on="1"/>
        <pt x="1000" y="-32" on="1"/>
        <pt x="891" y="-32" on="0"/>
        <pt x="891" y="11" on="1"/>
        <pt x="891" y="30" on="0"/>
        <pt x="930" y="119" on="0"/>
        <pt x="930" y="171" on="1"/>
        <pt x="930" y="319" on="0"/>
        <pt x="874" y="373" on="1"/>
        <pt x="848" y="398" on="0"/>
        <pt x="481" y="398" on="0"/>
        <pt x="455" y="373" on="1"/>
        <pt x="397" y="317" on="0"/>
        <pt x="397" y="205" on="1"/>
        <pt x="397" y="175" on="0"/>
        <pt x="471" y="31" on="0"/>
        <pt x="471" y="10" on="1"/>
        <pt x="471" y="-32" on="0"/>
        <pt x="360" y="-32" on="1"/>
        <pt x="238" y="-32" on="1"/>
        <pt x="116" y="-32" on="0"/>
        <pt x="23" y="-9" on="0"/>
        <pt x="23" y="44" on="1"/>
        <pt x="23" y="50" on="0"/>
        <pt x="163" y="179" on="0"/>
        <pt x="210" y="280" on="0"/>
        <pt x="302" y="529" on="0"/>
        <pt x="433" y="869" on="0"/>
        <pt x="515" y="1188" on="0"/>
        <pt x="588" y="1323" on="0"/>
        <pt x="843" y="1323" on="0"/>
        <pt x="930" y="1154" on="1"/>
        <pt x="963" y="1090" on="0"/>
        <pt x="1044" y="827" on="0"/>
        <pt x="1248" y="274" on="0"/>
        <pt x="1301" y="159" on="0"/>
        <pt x="1427" y="49" on="0"/>
      </contour>
    </TTGlyph>
    <TTGlyph name="Atilde" xMin="18" yMin="-16" xMax="1424" yMax="1762">
      <contour>
        <pt x="525" y="554" on="1"/>
        <pt x="781" y="554" on="1"/>
        <pt x="825" y="554" on="0"/>
        <pt x="825" y="564" on="1"/>
        <pt x="825" y="569" on="1"/>
        <pt x="825" y="616" on="0"/>
        <pt x="682" y="988" on="1"/>
        <pt x="662" y="1041" on="0"/>
        <pt x="654" y="1041" on="0"/>
        <pt x="613" y="906" on="0"/>
        <pt x="493" y="594" on="0"/>
        <pt x="493" y="572" on="1"/>
        <pt x="493" y="567" on="1"/>
        <pt x="493" y="554" on="0"/>
      </contour>
      <contour>
        <pt x="563" y="1762" on="1"/>
        <pt x="590" y="1762" on="1"/>
        <pt x="649" y="1762" on="0"/>
        <pt x="837" y="1668" on="0"/>
        <pt x="928" y="1668" on="0"/>
        <pt x="1009" y="1749" on="0"/>
        <pt x="1038" y="1749" on="1"/>
        <pt x="1093" y="1749" on="0"/>
        <pt x="1093" y="1706" on="1"/>
        <pt x="1093" y="1696" on="1"/>
        <pt x="1093" y="1627" on="0"/>
        <pt x="1007" y="1541" on="1"/>
        <pt x="948" y="1482" on="0"/>
        <pt x="872" y="1482" on="1"/>
        <pt x="863" y="1482" on="1"/>
        <pt x="853" y="1483" on="1"/>
        <pt x="796" y="1483" on="0"/>
        <pt x="604" y="1579" on="0"/>
        <pt x="521" y="1579" on="0"/>
        <pt x="430" y="1495" on="0"/>
        <pt x="412" y="1495" on="1"/>
        <pt x="349" y="1495" on="0"/>
        <pt x="349" y="1547" on="1"/>
        <pt x="349" y="1609" on="0"/>
        <pt x="491" y="1762" on="0"/>
      </contour>
      <contour>
        <pt x="650" y="1350" on="0"/>
        <pt x="781" y="1350" on="0"/>
        <pt x="865" y="1275" on="0"/>
        <pt x="948" y="1133" on="0"/>
        <pt x="1065" y="775" on="0"/>
        <pt x="1086" y="720" on="1"/>
        <pt x="1268" y="235" on="1"/>
        <pt x="1299" y="170" on="0"/>
        <pt x="1424" y="77" on="0"/>
        <pt x="1424" y="13" on="0"/>
        <pt x="1386" y="3" on="1"/>
        <pt x="1325" y="-13" on="0"/>
        <pt x="1074" y="-13" on="1"/>
        <pt x="1044" y="-14" on="1"/>
        <pt x="1013" y="-15" on="0"/>
        <pt x="982" y="-15" on="1"/>
        <pt x="878" y="-15" on="0"/>
        <pt x="878" y="33" on="1"/>
        <pt x="878" y="53" on="0"/>
        <pt x="932" y="144" on="0"/>
        <pt x="932" y="169" on="1"/>
        <pt x="932" y="236" on="0"/>
        <pt x="881" y="384" on="0"/>
        <pt x="835" y="415" on="0"/>
        <pt x="482" y="415" on="0"/>
        <pt x="440" y="388" on="0"/>
        <pt x="390" y="277" on="0"/>
        <pt x="390" y="187" on="0"/>
        <pt x="473" y="46" on="0"/>
        <pt x="473" y="22" on="1"/>
        <pt x="473" y="-16" on="0"/>
        <pt x="349" y="-16" on="1"/>
        <pt x="319" y="-16" on="1"/>
        <pt x="287" y="-15" on="1"/>
        <pt x="257" y="-15" on="1"/>
        <pt x="94" y="-15" on="0"/>
        <pt x="18" y="6" on="0"/>
        <pt x="18" y="72" on="0"/>
        <pt x="158" y="186" on="0"/>
        <pt x="193" y="266" on="1"/>
        <pt x="203" y="288" on="0"/>
        <pt x="381" y="758" on="0"/>
        <pt x="439" y="910" on="0"/>
        <pt x="511" y="1196" on="0"/>
        <pt x="569" y="1312" on="0"/>
        <pt x="609" y="1331" on="1"/>
      </contour>
    </TTGlyph>
    <TTGlyph name="B" xMin="94" yMin="-10" xMax="1268" yMax="1385">
      <contour>
        <pt x="525" y="848" on="1"/>
        <pt x="527" y="813" on="1"/>
        <pt x="527" y="782" on="0"/>
        <pt x="571" y="782" on="1"/>
        <pt x="617" y="782" on="1"/>
        <pt x="625" y="783" on="1"/>
        <pt x="679" y="785" on="1"/>
        <pt x="687" y="786" on="0"/>
        <pt x="695" y="786" on="1"/>
        <pt x="772" y="786" on="0"/>
        <pt x="900" y="901" on="0"/>
        <pt x="900" y="989" on="1"/>
        <pt x="902" y="1005" on="1"/>
        <pt x="902" y="1037" on="1"/>
        <pt x="902" y="1128" on="0"/>
        <pt x="773" y="1244" on="0"/>
        <pt x="644" y="1244" on="1"/>
        <pt x="605" y="1244" on="1"/>
        <pt x="539" y="1244" on="0"/>
        <pt x="528" y="1212" on="1"/>
        <pt x="524" y="1200" on="0"/>
        <pt x="524" y="1036" on="1"/>
        <pt x="524" y="856" on="1"/>
      </contour>
      <contour>
        <pt x="524" y="236" on="1"/>
        <pt x="526" y="195" on="1"/>
        <pt x="526" y="136" on="0"/>
        <pt x="633" y="136" on="1"/>
        <pt x="642" y="135" on="1"/>
        <pt x="650" y="134" on="1"/>
        <pt x="686" y="133" on="1"/>
        <pt x="731" y="133" on="1"/>
        <pt x="830" y="133" on="0"/>
        <pt x="969" y="259" on="0"/>
        <pt x="969" y="367" on="1"/>
        <pt x="969" y="405" on="1"/>
        <pt x="969" y="506" on="0"/>
        <pt x="825" y="650" on="0"/>
        <pt x="677" y="650" on="1"/>
        <pt x="615" y="650" on="1"/>
        <pt x="539" y="650" on="0"/>
        <pt x="524" y="615" on="0"/>
        <pt x="524" y="404" on="1"/>
        <pt x="523" y="387" on="1"/>
        <pt x="523" y="362" on="1"/>
        <pt x="522" y="354" on="1"/>
        <pt x="522" y="337" on="1"/>
        <pt x="521" y="303" on="1"/>
        <pt x="521" y="295" on="1"/>
        <pt x="522" y="287" on="1"/>
        <pt x="522" y="270" on="1"/>
        <pt x="523" y="262" on="1"/>
        <pt x="523" y="253" on="0"/>
        <pt x="523" y="244" on="1"/>
      </contour>
      <contour>
        <pt x="579" y="1385" on="1"/>
        <pt x="687" y="1385" on="1"/>
        <pt x="935" y="1385" on="0"/>
        <pt x="1187" y="1205" on="0"/>
        <pt x="1187" y="1053" on="1"/>
        <pt x="1187" y="966" on="0"/>
        <pt x="1107" y="820" on="0"/>
        <pt x="994" y="745" on="0"/>
        <pt x="994" y="735" on="0"/>
        <pt x="1149" y="657" on="0"/>
        <pt x="1195" y="603" on="1"/>
        <pt x="1268" y="516" on="0"/>
        <pt x="1268" y="414" on="1"/>
        <pt x="1268" y="388" on="1"/>
        <pt x="1268" y="90" on="0"/>
        <pt x="911" y="11" on="1"/>
        <pt x="816" y="-10" on="0"/>
        <pt x="643" y="-10" on="1"/>
        <pt x="590" y="-10" on="1"/>
        <pt x="563" y="-9" on="1"/>
        <pt x="536" y="-8" on="0"/>
        <pt x="510" y="-8" on="1"/>
        <pt x="457" y="-6" on="1"/>
        <pt x="431" y="-5" on="0"/>
        <pt x="404" y="-5" on="1"/>
        <pt x="275" y="-2" on="1"/>
        <pt x="166" y="-2" on="0"/>
        <pt x="146" y="2" on="1"/>
        <pt x="94" y="12" on="0"/>
        <pt x="94" y="51" on="1"/>
        <pt x="94" y="79" on="0"/>
        <pt x="160" y="134" on="1"/>
        <pt x="204" y="171" on="0"/>
        <pt x="233" y="325" on="0"/>
        <pt x="233" y="1084" on="0"/>
        <pt x="206" y="1196" on="0"/>
        <pt x="95" y="1284" on="0"/>
        <pt x="95" y="1353" on="0"/>
        <pt x="174" y="1377" on="0"/>
        <pt x="346" y="1377" on="1"/>
        <pt x="450" y="1381" on="1"/>
        <pt x="554" y="1385" on="0"/>
      </contour>
    </TTGlyph>
    <TTGlyph name="C" xMin="83" yMin="-23" xMax="1269" yMax="1403">
      <contour>
        <pt x="1251" y="1131" on="1"/>
        <pt x="1251" y="1030" on="0"/>
        <pt x="1192" y="1030" on="1"/>
        <pt x="1166" y="1030" on="0"/>
        <pt x="970" y="1186" on="0"/>
        <pt x="840" y="1247" on="0"/>
        <pt x="756" y="1247" on="1"/>
        <pt x="754" y="1247" on="0"/>
        <pt x="753" y="1247" on="1"/>
        <pt x="672" y="1247" on="0"/>
        <pt x="598" y="1204" on="1"/>
        <pt x="390" y="1083" on="0"/>
        <pt x="390" y="684" on="1"/>
        <pt x="390" y="570" on="0"/>
        <pt x="426" y="462" on="1"/>
        <pt x="531" y="143" on="0"/>
        <pt x="828" y="143" on="1"/>
        <pt x="829" y="143" on="0"/>
        <pt x="830" y="143" on="1"/>
        <pt x="966" y="143" on="0"/>
        <pt x="1112" y="245" on="1"/>
        <pt x="1206" y="310" on="0"/>
        <pt x="1220" y="310" on="1"/>
        <pt x="1269" y="310" on="0"/>
        <pt x="1269" y="264" on="1"/>
        <pt x="1269" y="239" on="1"/>
        <pt x="1269" y="216" on="0"/>
        <pt x="1176" y="76" on="0"/>
        <pt x="1098" y="40" on="1"/>
        <pt x="962" y="-23" on="0"/>
        <pt x="778" y="-23" on="1"/>
        <pt x="744" y="-23" on="1"/>
        <pt x="597" y="-23" on="0"/>
        <pt x="474" y="31" on="1"/>
        <pt x="229" y="139" on="0"/>
        <pt x="134" y="388" on="1"/>
        <pt x="83" y="521" on="0"/>
        <pt x="83" y="647" on="1"/>
        <pt x="83" y="717" on="1"/>
        <pt x="83" y="842" on="0"/>
        <pt x="132" y="972" on="1"/>
        <pt x="233" y="1241" on="0"/>
        <pt x="478" y="1347" on="1"/>
        <pt x="607" y="1403" on="0"/>
        <pt x="733" y="1403" on="1"/>
        <pt x="766" y="1403" on="1"/>
        <pt x="1082" y="1403" on="0"/>
        <pt x="1184" y="1343" on="1"/>
        <pt x="1251" y="1304" on="0"/>
      </contour>
    </TTGlyph>
    <TTGlyph name="Ccedilla" xMin="77" yMin="-456" xMax="1348" yMax="1399">
      <contour>
        <pt x="673" y="-343" on="1"/>
        <pt x="791" y="-343" on="0"/>
        <pt x="791" y="-256" on="1"/>
        <pt x="791" y="-214" on="0"/>
        <pt x="682" y="-164" on="0"/>
        <pt x="682" y="-137" on="1"/>
        <pt x="682" y="-54" on="0"/>
        <pt x="716" y="-31" on="1"/>
        <pt x="462" y="-10" on="0"/>
        <pt x="298" y="140" on="1"/>
        <pt x="181" y="247" on="0"/>
        <pt x="77" y="516" on="0"/>
        <pt x="77" y="654" on="1"/>
        <pt x="77" y="690" on="1"/>
        <pt x="78" y="830" on="0"/>
        <pt x="126" y="962" on="1"/>
        <pt x="230" y="1247" on="0"/>
        <pt x="509" y="1353" on="1"/>
        <pt x="630" y="1399" on="0"/>
        <pt x="854" y="1399" on="0"/>
        <pt x="1255" y="1333" on="0"/>
        <pt x="1298" y="1307" on="0"/>
        <pt x="1343" y="1195" on="0"/>
        <pt x="1343" y="1024" on="0"/>
        <pt x="1299" y="1024" on="1"/>
        <pt x="1234" y="1024" on="0"/>
        <pt x="846" y="1208" on="0"/>
        <pt x="785" y="1208" on="1"/>
        <pt x="643" y="1208" on="0"/>
        <pt x="455" y="956" on="0"/>
        <pt x="455" y="476" on="0"/>
        <pt x="676" y="174" on="0"/>
        <pt x="877" y="174" on="1"/>
        <pt x="991" y="174" on="0"/>
        <pt x="1250" y="318" on="0"/>
        <pt x="1313" y="318" on="1"/>
        <pt x="1348" y="318" on="0"/>
        <pt x="1348" y="283" on="1"/>
        <pt x="1348" y="262" on="1"/>
        <pt x="1348" y="229" on="0"/>
        <pt x="1258" y="81" on="0"/>
        <pt x="1184" y="28" on="0"/>
        <pt x="947" y="-34" on="0"/>
        <pt x="834" y="-34" on="1"/>
        <pt x="805" y="-34" on="1"/>
        <pt x="809" y="-42" on="0"/>
        <pt x="809" y="-54" on="1"/>
        <pt x="809" y="-88" on="0"/>
        <pt x="858" y="-104" on="1"/>
        <pt x="972" y="-142" on="0"/>
        <pt x="972" y="-241" on="1"/>
        <pt x="972" y="-267" on="1"/>
        <pt x="972" y="-347" on="0"/>
        <pt x="830" y="-456" on="0"/>
        <pt x="735" y="-456" on="1"/>
        <pt x="699" y="-456" on="1"/>
        <pt x="579" y="-456" on="0"/>
        <pt x="579" y="-404" on="1"/>
        <pt x="579" y="-396" on="1"/>
        <pt x="579" y="-340" on="0"/>
        <pt x="629" y="-340" on="1"/>
        <pt x="651" y="-343" on="1"/>
      </contour>
    </TTGlyph>
    <TTGlyph name="D" xMin="91" yMin="-5" xMax="1408" yMax="1392">
      <contour>
        <pt x="1077" y="650" on="1"/>
        <pt x="1077" y="718" on="1"/>
        <pt x="1077" y="824" on="0"/>
        <pt x="1048" y="925" on="1"/>
        <pt x="986" y="1140" on="0"/>
        <pt x="817" y="1215" on="1"/>
        <pt x="740" y="1249" on="0"/>
        <pt x="649" y="1249" on="1"/>
        <pt x="635" y="1248" on="1"/>
        <pt x="521" y="1248" on="0"/>
        <pt x="507" y="1197" on="1"/>
        <pt x="504" y="1186" on="0"/>
        <pt x="504" y="898" on="1"/>
        <pt x="504" y="514" on="1"/>
        <pt x="503" y="499" on="1"/>
        <pt x="503" y="484" on="0"/>
        <pt x="503" y="469" on="1"/>
        <pt x="500" y="364" on="1"/>
        <pt x="500" y="349" on="0"/>
        <pt x="500" y="334" on="1"/>
        <pt x="499" y="289" on="1"/>
        <pt x="499" y="273" on="1"/>
        <pt x="499" y="189" on="0"/>
        <pt x="541" y="135" on="0"/>
        <pt x="627" y="135" on="1"/>
        <pt x="687" y="135" on="1"/>
        <pt x="771" y="135" on="0"/>
        <pt x="924" y="221" on="0"/>
        <pt x="1014" y="342" on="0"/>
        <pt x="1077" y="539" on="0"/>
      </contour>
      <contour>
        <pt x="93" y="1280" on="0"/>
        <pt x="93" y="1361" on="0"/>
        <pt x="141" y="1369" on="1"/>
        <pt x="276" y="1392" on="0"/>
        <pt x="606" y="1392" on="1"/>
        <pt x="659" y="1392" on="1"/>
        <pt x="1008" y="1392" on="0"/>
        <pt x="1408" y="1025" on="0"/>
        <pt x="1408" y="383" on="0"/>
        <pt x="1008" y="-5" on="0"/>
        <pt x="678" y="-5" on="1"/>
        <pt x="599" y="-5" on="1"/>
        <pt x="573" y="-4" on="1"/>
        <pt x="519" y="-3" on="1"/>
        <pt x="493" y="-2" on="0"/>
        <pt x="468" y="-2" on="1"/>
        <pt x="244" y="5" on="1"/>
        <pt x="132" y="5" on="0"/>
        <pt x="91" y="31" on="0"/>
        <pt x="91" y="69" on="1"/>
        <pt x="91" y="91" on="0"/>
        <pt x="207" y="168" on="0"/>
        <pt x="237" y="274" on="0"/>
        <pt x="237" y="573" on="1"/>
        <pt x="235" y="701" on="1"/>
        <pt x="238" y="852" on="1"/>
        <pt x="239" y="877" on="1"/>
        <pt x="240" y="903" on="0"/>
        <pt x="240" y="928" on="1"/>
        <pt x="242" y="1003" on="1"/>
        <pt x="242" y="1139" on="0"/>
        <pt x="221" y="1189" on="1"/>
        <pt x="207" y="1222" on="0"/>
      </contour>
    </TTGlyph>
    <TTGlyph name="E" xMin="88" yMin="-1" xMax="1199" yMax="1390">
      <contour>
        <pt x="1149" y="1213" on="1"/>
        <pt x="1149" y="1146" on="0"/>
        <pt x="1111" y="1105" on="0"/>
        <pt x="1072" y="1105" on="1"/>
        <pt x="1054" y="1114" on="1"/>
        <pt x="1033" y="1128" on="1"/>
        <pt x="1009" y="1142" on="1"/>
        <pt x="974" y="1162" on="0"/>
        <pt x="775" y="1232" on="0"/>
        <pt x="603" y="1232" on="0"/>
        <pt x="524" y="1108" on="0"/>
        <pt x="524" y="915" on="1"/>
        <pt x="524" y="860" on="0"/>
        <pt x="592" y="794" on="0"/>
        <pt x="712" y="794" on="0"/>
        <pt x="857" y="878" on="0"/>
        <pt x="918" y="878" on="0"/>
        <pt x="964" y="797" on="0"/>
        <pt x="964" y="741" on="1"/>
        <pt x="964" y="590" on="0"/>
        <pt x="931" y="555" on="1"/>
        <pt x="904" y="540" on="1"/>
        <pt x="845" y="540" on="0"/>
        <pt x="810" y="567" on="1"/>
        <pt x="733" y="626" on="0"/>
        <pt x="697" y="626" on="1"/>
        <pt x="583" y="626" on="0"/>
        <pt x="544" y="578" on="1"/>
        <pt x="525" y="554" on="0"/>
        <pt x="525" y="273" on="0"/>
        <pt x="582" y="200" on="1"/>
        <pt x="612" y="161" on="0"/>
        <pt x="816" y="161" on="0"/>
        <pt x="1133" y="300" on="0"/>
        <pt x="1156" y="300" on="1"/>
        <pt x="1199" y="300" on="0"/>
        <pt x="1199" y="219" on="1"/>
        <pt x="1199" y="183" on="1"/>
        <pt x="1199" y="155" on="0"/>
        <pt x="1159" y="55" on="0"/>
        <pt x="1075" y="-1" on="0"/>
        <pt x="979" y="-1" on="1"/>
        <pt x="254" y="-1" on="1"/>
        <pt x="88" y="-1" on="0"/>
        <pt x="88" y="42" on="1"/>
        <pt x="88" y="74" on="1"/>
        <pt x="88" y="108" on="0"/>
        <pt x="211" y="176" on="0"/>
        <pt x="232" y="255" on="0"/>
        <pt x="232" y="1095" on="0"/>
        <pt x="204" y="1207" on="0"/>
        <pt x="92" y="1301" on="0"/>
        <pt x="92" y="1347" on="1"/>
        <pt x="92" y="1380" on="0"/>
        <pt x="236" y="1389" on="0"/>
        <pt x="637" y="1389" on="1"/>
        <pt x="897" y="1390" on="1"/>
        <pt x="939" y="1390" on="1"/>
        <pt x="1040" y="1390" on="0"/>
        <pt x="1081" y="1361" on="1"/>
        <pt x="1149" y="1313" on="0"/>
      </contour>
    </TTGlyph>
    <TTGlyph name="Eacute" xMin="86" yMin="-20" xMax="1191" yMax="1828">
      <contour>
        <pt x="818" y="1828" on="1"/>
        <pt x="830" y="1828" on="1"/>
        <pt x="890" y="1828" on="0"/>
        <pt x="964" y="1784" on="0"/>
        <pt x="964" y="1770" on="1"/>
        <pt x="964" y="1765" on="1"/>
        <pt x="964" y="1703" on="0"/>
        <pt x="717" y="1523" on="1"/>
        <pt x="639" y="1466" on="0"/>
        <pt x="578" y="1466" on="1"/>
        <pt x="572" y="1466" on="1"/>
        <pt x="523" y="1466" on="0"/>
        <pt x="523" y="1494" on="1"/>
        <pt x="523" y="1510" on="1"/>
        <pt x="523" y="1578" on="0"/>
        <pt x="701" y="1778" on="1"/>
        <pt x="745" y="1828" on="0"/>
      </contour>
      <contour>
        <pt x="1151" y="1149" on="1"/>
        <pt x="1151" y="1093" on="0"/>
        <pt x="1105" y="1052" on="0"/>
        <pt x="1072" y="1052" on="0"/>
        <pt x="807" y="1176" on="0"/>
        <pt x="621" y="1176" on="0"/>
        <pt x="541" y="1045" on="0"/>
        <pt x="541" y="902" on="1"/>
        <pt x="541" y="845" on="0"/>
        <pt x="609" y="770" on="0"/>
        <pt x="723" y="770" on="0"/>
        <pt x="855" y="855" on="0"/>
        <pt x="888" y="855" on="1"/>
        <pt x="916" y="841" on="1"/>
        <pt x="956" y="808" on="0"/>
        <pt x="956" y="558" on="0"/>
        <pt x="925" y="524" on="1"/>
        <pt x="899" y="509" on="1"/>
        <pt x="850" y="509" on="0"/>
        <pt x="728" y="601" on="0"/>
        <pt x="693" y="601" on="1"/>
        <pt x="608" y="601" on="0"/>
        <pt x="539" y="537" on="0"/>
        <pt x="539" y="473" on="1"/>
        <pt x="539" y="277" on="0"/>
        <pt x="615" y="146" on="0"/>
        <pt x="828" y="146" on="0"/>
        <pt x="1115" y="303" on="0"/>
        <pt x="1130" y="303" on="1"/>
        <pt x="1191" y="303" on="0"/>
        <pt x="1191" y="218" on="1"/>
        <pt x="1191" y="182" on="1"/>
        <pt x="1191" y="69" on="0"/>
        <pt x="1087" y="-20" on="0"/>
        <pt x="963" y="-20" on="1"/>
        <pt x="668" y="-20" on="1"/>
        <pt x="625" y="-19" on="1"/>
        <pt x="582" y="-19" on="1"/>
        <pt x="190" y="-19" on="0"/>
        <pt x="170" y="-16" on="1"/>
        <pt x="86" y="-3" on="0"/>
        <pt x="86" y="27" on="1"/>
        <pt x="86" y="57" on="1"/>
        <pt x="86" y="90" on="0"/>
        <pt x="202" y="162" on="0"/>
        <pt x="228" y="242" on="0"/>
        <pt x="228" y="1070" on="0"/>
        <pt x="203" y="1142" on="0"/>
        <pt x="86" y="1240" on="0"/>
        <pt x="86" y="1273" on="1"/>
        <pt x="86" y="1327" on="0"/>
        <pt x="168" y="1336" on="1"/>
        <pt x="214" y="1341" on="0"/>
        <pt x="624" y="1341" on="1"/>
        <pt x="838" y="1342" on="1"/>
        <pt x="923" y="1342" on="1"/>
        <pt x="1035" y="1342" on="0"/>
        <pt x="1151" y="1256" on="0"/>
      </contour>
    </TTGlyph>
    <TTGlyph name="Ecircumflex" xMin="85" yMin="-20" xMax="1191" yMax="1810">
      <contour>
        <pt x="419" y="1465" on="1"/>
        <pt x="402" y="1465" on="1"/>
        <pt x="340" y="1465" on="0"/>
        <pt x="340" y="1502" on="1"/>
        <pt x="340" y="1558" on="0"/>
        <pt x="550" y="1768" on="1"/>
        <pt x="592" y="1810" on="0"/>
        <pt x="646" y="1810" on="1"/>
        <pt x="682" y="1810" on="1"/>
        <pt x="729" y="1810" on="0"/>
        <pt x="766" y="1779" on="1"/>
        <pt x="784" y="1764" on="0"/>
        <pt x="842" y="1690" on="1"/>
        <pt x="948" y="1563" on="1"/>
        <pt x="986" y="1518" on="0"/>
        <pt x="986" y="1509" on="1"/>
        <pt x="986" y="1502" on="1"/>
        <pt x="986" y="1466" on="0"/>
        <pt x="858" y="1466" on="0"/>
        <pt x="730" y="1566" on="0"/>
        <pt x="665" y="1621" on="0"/>
        <pt x="655" y="1621" on="0"/>
        <pt x="558" y="1539" on="0"/>
        <pt x="548" y="1531" on="1"/>
        <pt x="464" y="1465" on="0"/>
      </contour>
      <contour>
        <pt x="1150" y="1255" on="0"/>
        <pt x="1150" y="1052" on="0"/>
        <pt x="1093" y="1052" on="1"/>
        <pt x="1070" y="1052" on="0"/>
        <pt x="811" y="1175" on="0"/>
        <pt x="620" y="1175" on="0"/>
        <pt x="541" y="1047" on="0"/>
        <pt x="541" y="901" on="1"/>
        <pt x="541" y="841" on="0"/>
        <pt x="610" y="769" on="0"/>
        <pt x="648" y="769" on="1"/>
        <pt x="722" y="769" on="0"/>
        <pt x="768" y="799" on="1"/>
        <pt x="852" y="854" on="0"/>
        <pt x="887" y="854" on="1"/>
        <pt x="916" y="841" on="1"/>
        <pt x="955" y="810" on="0"/>
        <pt x="955" y="557" on="0"/>
        <pt x="925" y="524" on="1"/>
        <pt x="899" y="509" on="1"/>
        <pt x="856" y="509" on="0"/>
        <pt x="733" y="600" on="0"/>
        <pt x="671" y="600" on="1"/>
        <pt x="539" y="600" on="0"/>
        <pt x="539" y="472" on="1"/>
        <pt x="539" y="275" on="0"/>
        <pt x="615" y="145" on="0"/>
        <pt x="699" y="145" on="1"/>
        <pt x="830" y="145" on="0"/>
        <pt x="1108" y="302" on="0"/>
        <pt x="1166" y="302" on="0"/>
        <pt x="1191" y="251" on="0"/>
        <pt x="1191" y="182" on="1"/>
        <pt x="1191" y="66" on="0"/>
        <pt x="1087" y="-20" on="0"/>
        <pt x="963" y="-20" on="1"/>
        <pt x="497" y="-20" on="1"/>
        <pt x="456" y="-19" on="1"/>
        <pt x="333" y="-20" on="1"/>
        <pt x="290" y="-20" on="1"/>
        <pt x="138" y="-20" on="0"/>
        <pt x="103" y="4" on="1"/>
        <pt x="85" y="16" on="0"/>
        <pt x="85" y="89" on="0"/>
        <pt x="202" y="164" on="0"/>
        <pt x="228" y="240" on="0"/>
        <pt x="228" y="1066" on="0"/>
        <pt x="203" y="1139" on="0"/>
        <pt x="86" y="1241" on="0"/>
        <pt x="86" y="1272" on="1"/>
        <pt x="86" y="1325" on="0"/>
        <pt x="168" y="1335" on="1"/>
        <pt x="210" y="1340" on="0"/>
        <pt x="582" y="1340" on="1"/>
        <pt x="922" y="1342" on="1"/>
        <pt x="1035" y="1342" on="0"/>
      </contour>
    </TTGlyph>
    <TTGlyph name="Edieresis" xMin="92" yMin="-16" xMax="1198" yMax="1765">
      <contour>
        <pt x="461" y="1488" on="1"/>
        <pt x="437" y="1488" on="1"/>
        <pt x="392" y="1488" on="0"/>
        <pt x="313" y="1545" on="0"/>
        <pt x="313" y="1593" on="1"/>
        <pt x="310" y="1616" on="1"/>
        <pt x="310" y="1635" on="1"/>
        <pt x="310" y="1703" on="0"/>
        <pt x="397" y="1765" on="0"/>
        <pt x="452" y="1765" on="1"/>
        <pt x="457" y="1765" on="1"/>
        <pt x="515" y="1765" on="0"/>
        <pt x="589" y="1703" on="0"/>
        <pt x="589" y="1664" on="1"/>
        <pt x="593" y="1646" on="0"/>
        <pt x="593" y="1641" on="1"/>
        <pt x="593" y="1617" on="1"/>
        <pt x="593" y="1549" on="0"/>
        <pt x="507" y="1488" on="0"/>
      </contour>
      <contour>
        <pt x="1016" y="1640" on="1"/>
        <pt x="1016" y="1616" on="1"/>
        <pt x="1016" y="1568" on="0"/>
        <pt x="950" y="1491" on="0"/>
        <pt x="906" y="1491" on="1"/>
        <pt x="883" y="1488" on="1"/>
        <pt x="859" y="1488" on="1"/>
        <pt x="844" y="1491" on="0"/>
        <pt x="835" y="1491" on="1"/>
        <pt x="796" y="1491" on="0"/>
        <pt x="733" y="1566" on="0"/>
        <pt x="733" y="1617" on="1"/>
        <pt x="733" y="1631" on="1"/>
        <pt x="734" y="1636" on="1"/>
        <pt x="734" y="1645" on="1"/>
        <pt x="736" y="1655" on="0"/>
        <pt x="736" y="1659" on="1"/>
        <pt x="736" y="1688" on="0"/>
        <pt x="800" y="1762" on="0"/>
        <pt x="848" y="1762" on="1"/>
        <pt x="876" y="1765" on="1"/>
        <pt x="881" y="1765" on="1"/>
        <pt x="886" y="1764" on="1"/>
        <pt x="940" y="1764" on="0"/>
        <pt x="1016" y="1699" on="0"/>
      </contour>
      <contour>
        <pt x="929" y="1346" on="1"/>
        <pt x="1064" y="1346" on="0"/>
        <pt x="1157" y="1244" on="0"/>
        <pt x="1157" y="1056" on="0"/>
        <pt x="1099" y="1056" on="1"/>
        <pt x="1083" y="1056" on="0"/>
        <pt x="809" y="1180" on="0"/>
        <pt x="626" y="1180" on="0"/>
        <pt x="548" y="1050" on="0"/>
        <pt x="548" y="906" on="1"/>
        <pt x="548" y="847" on="0"/>
        <pt x="616" y="774" on="0"/>
        <pt x="728" y="774" on="0"/>
        <pt x="858" y="859" on="0"/>
        <pt x="894" y="859" on="1"/>
        <pt x="922" y="845" on="1"/>
        <pt x="962" y="814" on="0"/>
        <pt x="962" y="563" on="0"/>
        <pt x="932" y="529" on="1"/>
        <pt x="906" y="514" on="1"/>
        <pt x="862" y="514" on="0"/>
        <pt x="741" y="605" on="0"/>
        <pt x="586" y="605" on="0"/>
        <pt x="555" y="546" on="1"/>
        <pt x="546" y="528" on="0"/>
        <pt x="546" y="404" on="1"/>
        <pt x="546" y="150" on="0"/>
        <pt x="706" y="150" on="1"/>
        <pt x="833" y="150" on="0"/>
        <pt x="1120" y="307" on="0"/>
        <pt x="1137" y="307" on="1"/>
        <pt x="1173" y="307" on="0"/>
        <pt x="1198" y="258" on="0"/>
        <pt x="1198" y="73" on="0"/>
        <pt x="1094" y="-16" on="0"/>
        <pt x="928" y="-16" on="1"/>
        <pt x="802" y="-16" on="1"/>
        <pt x="760" y="-15" on="1"/>
        <pt x="546" y="-15" on="1"/>
        <pt x="203" y="-15" on="0"/>
        <pt x="177" y="-11" on="1"/>
        <pt x="92" y="2" on="0"/>
        <pt x="92" y="62" on="1"/>
        <pt x="92" y="95" on="0"/>
        <pt x="208" y="167" on="0"/>
        <pt x="235" y="247" on="0"/>
        <pt x="235" y="1071" on="0"/>
        <pt x="210" y="1144" on="0"/>
        <pt x="92" y="1247" on="0"/>
        <pt x="92" y="1277" on="1"/>
        <pt x="92" y="1330" on="0"/>
        <pt x="175" y="1340" on="1"/>
        <pt x="217" y="1345" on="0"/>
        <pt x="589" y="1345" on="1"/>
        <pt x="758" y="1346" on="1"/>
      </contour>
    </TTGlyph>
    <TTGlyph name="Egrave" xMin="85" yMin="-20" xMax="1191" yMax="1829">
      <contour>
        <pt x="491" y="1829" on="1"/>
        <pt x="503" y="1829" on="1"/>
        <pt x="509" y="1828" on="1"/>
        <pt x="583" y="1828" on="0"/>
        <pt x="623" y="1777" on="1"/>
        <pt x="796" y="1555" on="0"/>
        <pt x="796" y="1505" on="1"/>
        <pt x="796" y="1500" on="1"/>
        <pt x="796" y="1466" on="0"/>
        <pt x="747" y="1466" on="1"/>
        <pt x="730" y="1466" on="1"/>
        <pt x="677" y="1466" on="0"/>
        <pt x="608" y="1516" on="1"/>
        <pt x="357" y="1699" on="0"/>
        <pt x="357" y="1764" on="1"/>
        <pt x="358" y="1769" on="1"/>
        <pt x="358" y="1774" on="1"/>
        <pt x="358" y="1786" on="0"/>
        <pt x="445" y="1829" on="0"/>
      </contour>
      <contour>
        <pt x="922" y="1342" on="1"/>
        <pt x="1036" y="1342" on="0"/>
        <pt x="1150" y="1254" on="0"/>
        <pt x="1150" y="1052" on="0"/>
        <pt x="1093" y="1052" on="1"/>
        <pt x="1070" y="1052" on="0"/>
        <pt x="809" y="1176" on="0"/>
        <pt x="619" y="1176" on="0"/>
        <pt x="541" y="1047" on="0"/>
        <pt x="541" y="902" on="1"/>
        <pt x="541" y="843" on="0"/>
        <pt x="609" y="770" on="0"/>
        <pt x="724" y="770" on="0"/>
        <pt x="854" y="855" on="0"/>
        <pt x="887" y="855" on="1"/>
        <pt x="916" y="841" on="1"/>
        <pt x="955" y="809" on="0"/>
        <pt x="955" y="559" on="0"/>
        <pt x="925" y="525" on="1"/>
        <pt x="899" y="509" on="1"/>
        <pt x="850" y="509" on="0"/>
        <pt x="808" y="541" on="1"/>
        <pt x="730" y="601" on="0"/>
        <pt x="692" y="601" on="1"/>
        <pt x="609" y="601" on="0"/>
        <pt x="539" y="538" on="0"/>
        <pt x="539" y="473" on="1"/>
        <pt x="539" y="275" on="0"/>
        <pt x="614" y="146" on="0"/>
        <pt x="828" y="146" on="0"/>
        <pt x="1115" y="303" on="0"/>
        <pt x="1130" y="303" on="1"/>
        <pt x="1166" y="303" on="0"/>
        <pt x="1191" y="252" on="0"/>
        <pt x="1191" y="183" on="1"/>
        <pt x="1191" y="69" on="0"/>
        <pt x="1087" y="-20" on="0"/>
        <pt x="963" y="-20" on="1"/>
        <pt x="710" y="-20" on="1"/>
        <pt x="667" y="-19" on="1"/>
        <pt x="581" y="-19" on="1"/>
        <pt x="196" y="-19" on="0"/>
        <pt x="170" y="-15" on="1"/>
        <pt x="85" y="-2" on="0"/>
        <pt x="85" y="58" on="1"/>
        <pt x="85" y="89" on="0"/>
        <pt x="202" y="164" on="0"/>
        <pt x="228" y="240" on="0"/>
        <pt x="228" y="1067" on="0"/>
        <pt x="203" y="1141" on="0"/>
        <pt x="86" y="1240" on="0"/>
        <pt x="86" y="1273" on="1"/>
        <pt x="86" y="1327" on="0"/>
        <pt x="168" y="1336" on="1"/>
        <pt x="215" y="1341" on="0"/>
        <pt x="624" y="1341" on="1"/>
        <pt x="795" y="1342" on="1"/>
      </contour>
    </TTGlyph>
    <TTGlyph name="Eth" xMin="114" yMin="-10" xMax="1393" yMax="1348">
      <contour>
        <pt x="695" y="735" on="1"/>
        <pt x="778" y="735" on="0"/>
        <pt x="778" y="658" on="1"/>
        <pt x="778" y="617" on="0"/>
        <pt x="743" y="600" on="0"/>
        <pt x="548" y="576" on="0"/>
        <pt x="540" y="568" on="1"/>
        <pt x="503" y="533" on="0"/>
        <pt x="503" y="443" on="1"/>
        <pt x="503" y="199" on="1"/>
        <pt x="503" y="118" on="0"/>
        <pt x="606" y="118" on="1"/>
        <pt x="655" y="118" on="1"/>
        <pt x="716" y="118" on="0"/>
        <pt x="798" y="148" on="1"/>
        <pt x="944" y="203" on="0"/>
        <pt x="1018" y="377" on="1"/>
        <pt x="1059" y="475" on="0"/>
        <pt x="1059" y="579" on="1"/>
        <pt x="1059" y="615" on="1"/>
        <pt x="1058" y="634" on="1"/>
        <pt x="1058" y="653" on="1"/>
        <pt x="1055" y="764" on="1"/>
        <pt x="1055" y="846" on="0"/>
        <pt x="983" y="1028" on="0"/>
        <pt x="868" y="1149" on="0"/>
        <pt x="712" y="1207" on="0"/>
        <pt x="636" y="1207" on="1"/>
        <pt x="587" y="1207" on="1"/>
        <pt x="507" y="1207" on="0"/>
        <pt x="507" y="1138" on="1"/>
        <pt x="509" y="1106" on="1"/>
        <pt x="509" y="1022" on="1"/>
        <pt x="508" y="969" on="1"/>
        <pt x="508" y="775" on="0"/>
        <pt x="548" y="735" on="0"/>
      </contour>
      <contour>
        <pt x="114" y="1244" on="0"/>
        <pt x="114" y="1323" on="0"/>
        <pt x="183" y="1323" on="1"/>
        <pt x="196" y="1323" on="0"/>
        <pt x="367" y="1347" on="0"/>
        <pt x="598" y="1347" on="1"/>
        <pt x="705" y="1348" on="1"/>
        <pt x="732" y="1348" on="1"/>
        <pt x="844" y="1348" on="0"/>
        <pt x="1130" y="1239" on="0"/>
        <pt x="1216" y="1155" on="1"/>
        <pt x="1392" y="984" on="0"/>
        <pt x="1393" y="670" on="1"/>
        <pt x="1393" y="512" on="0"/>
        <pt x="1336" y="380" on="1"/>
        <pt x="1168" y="-10" on="0"/>
        <pt x="661" y="-10" on="1"/>
        <pt x="412" y="-10" on="1"/>
        <pt x="385" y="-9" on="1"/>
        <pt x="359" y="-8" on="0"/>
        <pt x="191" y="-8" on="0"/>
        <pt x="122" y="22" on="0"/>
        <pt x="122" y="99" on="0"/>
        <pt x="251" y="171" on="0"/>
        <pt x="288" y="279" on="0"/>
        <pt x="288" y="523" on="1"/>
        <pt x="288" y="589" on="0"/>
        <pt x="225" y="606" on="1"/>
        <pt x="147" y="627" on="0"/>
        <pt x="147" y="676" on="1"/>
        <pt x="147" y="749" on="0"/>
        <pt x="288" y="780" on="0"/>
        <pt x="288" y="839" on="1"/>
        <pt x="287" y="864" on="1"/>
        <pt x="284" y="915" on="1"/>
        <pt x="283" y="987" on="1"/>
        <pt x="283" y="1114" on="0"/>
        <pt x="249" y="1170" on="1"/>
        <pt x="237" y="1190" on="0"/>
      </contour>
    </TTGlyph>
    <TTGlyph name="Euro" xMin="78" yMin="-18" xMax="1247" yMax="1396">
      <contour>
        <pt x="715" y="617" on="1"/>
        <pt x="918" y="617" on="0"/>
        <pt x="918" y="553" on="1"/>
        <pt x="918" y="502" on="0"/>
        <pt x="750" y="472" on="1"/>
        <pt x="686" y="460" on="0"/>
        <pt x="681" y="458" on="1"/>
        <pt x="627" y="430" on="0"/>
        <pt x="627" y="293" on="0"/>
        <pt x="786" y="184" on="0"/>
        <pt x="956" y="184" on="0"/>
        <pt x="1171" y="258" on="0"/>
        <pt x="1220" y="258" on="1"/>
        <pt x="1247" y="258" on="0"/>
        <pt x="1247" y="202" on="1"/>
        <pt x="1247" y="121" on="0"/>
        <pt x="984" y="-18" on="0"/>
        <pt x="824" y="-18" on="1"/>
        <pt x="780" y="-18" on="1"/>
        <pt x="698" y="-18" on="0"/>
        <pt x="604" y="12" on="1"/>
        <pt x="393" y="80" on="0"/>
        <pt x="280" y="310" on="1"/>
        <pt x="241" y="389" on="0"/>
        <pt x="191" y="457" on="0"/>
        <pt x="78" y="509" on="0"/>
        <pt x="78" y="526" on="1"/>
        <pt x="78" y="583" on="0"/>
        <pt x="116" y="610" on="1"/>
        <pt x="199" y="670" on="0"/>
        <pt x="199" y="693" on="1"/>
        <pt x="199" y="727" on="0"/>
        <pt x="87" y="775" on="0"/>
        <pt x="87" y="848" on="0"/>
        <pt x="117" y="872" on="1"/>
        <pt x="233" y="963" on="0"/>
        <pt x="265" y="1024" on="1"/>
        <pt x="352" y="1191" on="0"/>
        <pt x="435" y="1260" on="1"/>
        <pt x="599" y="1396" on="0"/>
        <pt x="1065" y="1396" on="0"/>
        <pt x="1144" y="1353" on="1"/>
        <pt x="1186" y="1331" on="0"/>
        <pt x="1246" y="1238" on="0"/>
        <pt x="1246" y="1136" on="0"/>
        <pt x="1211" y="1077" on="0"/>
        <pt x="1164" y="1077" on="0"/>
        <pt x="1053" y="1149" on="1"/>
        <pt x="977" y="1198" on="0"/>
        <pt x="746" y="1198" on="0"/>
        <pt x="685" y="1152" on="1"/>
        <pt x="596" y="1085" on="0"/>
        <pt x="596" y="992" on="1"/>
        <pt x="596" y="933" on="0"/>
        <pt x="654" y="912" on="1"/>
        <pt x="677" y="904" on="0"/>
        <pt x="930" y="877" on="0"/>
        <pt x="939" y="873" on="1"/>
        <pt x="971" y="859" on="0"/>
        <pt x="971" y="780" on="0"/>
        <pt x="863" y="761" on="1"/>
        <pt x="828" y="755" on="0"/>
        <pt x="587" y="755" on="0"/>
        <pt x="548" y="728" on="1"/>
        <pt x="528" y="714" on="0"/>
        <pt x="528" y="652" on="0"/>
        <pt x="601" y="617" on="0"/>
      </contour>
    </TTGlyph>
    <TTGlyph name="F" xMin="92" yMin="-12" xMax="1137" yMax="1393">
      <contour>
        <pt x="1137" y="1211" on="1"/>
        <pt x="1137" y="1179" on="1"/>
        <pt x="1137" y="1096" on="0"/>
        <pt x="1080" y="1096" on="1"/>
        <pt x="1075" y="1096" on="0"/>
        <pt x="803" y="1232" on="0"/>
        <pt x="700" y="1232" on="1"/>
        <pt x="666" y="1232" on="0"/>
        <pt x="573" y="1184" on="0"/>
        <pt x="528" y="1101" on="0"/>
        <pt x="528" y="994" on="1"/>
        <pt x="528" y="782" on="0"/>
        <pt x="672" y="782" on="1"/>
        <pt x="716" y="782" on="0"/>
        <pt x="849" y="859" on="0"/>
        <pt x="859" y="859" on="1"/>
        <pt x="936" y="859" on="0"/>
        <pt x="936" y="686" on="1"/>
        <pt x="936" y="591" on="0"/>
        <pt x="900" y="552" on="1"/>
        <pt x="884" y="534" on="0"/>
        <pt x="842" y="534" on="0"/>
        <pt x="725" y="581" on="0"/>
        <pt x="702" y="581" on="1"/>
        <pt x="606" y="581" on="0"/>
        <pt x="559" y="537" on="1"/>
        <pt x="527" y="507" on="0"/>
        <pt x="527" y="317" on="0"/>
        <pt x="581" y="138" on="0"/>
        <pt x="630" y="42" on="0"/>
        <pt x="630" y="41" on="1"/>
        <pt x="630" y="-12" on="0"/>
        <pt x="526" y="-12" on="1"/>
        <pt x="492" y="-11" on="1"/>
        <pt x="457" y="-11" on="1"/>
        <pt x="208" y="-11" on="0"/>
        <pt x="141" y="10" on="1"/>
        <pt x="97" y="24" on="0"/>
        <pt x="97" y="98" on="0"/>
        <pt x="222" y="168" on="0"/>
        <pt x="233" y="218" on="1"/>
        <pt x="237" y="237" on="0"/>
        <pt x="237" y="1028" on="0"/>
        <pt x="208" y="1182" on="0"/>
        <pt x="92" y="1301" on="0"/>
        <pt x="92" y="1367" on="0"/>
        <pt x="143" y="1375" on="1"/>
        <pt x="233" y="1390" on="0"/>
        <pt x="595" y="1390" on="1"/>
        <pt x="703" y="1393" on="1"/>
        <pt x="811" y="1393" on="1"/>
        <pt x="846" y="1392" on="1"/>
        <pt x="1043" y="1392" on="0"/>
        <pt x="1078" y="1369" on="1"/>
        <pt x="1137" y="1330" on="0"/>
      </contour>
    </TTGlyph>
    <TTGlyph name="G" xMin="82" yMin="-17" xMax="1377" yMax="1402">
      <contour>
        <pt x="801" y="149" on="1"/>
        <pt x="1008" y="150" on="0"/>
        <pt x="1008" y="358" on="1"/>
        <pt x="1008" y="470" on="0"/>
        <pt x="974" y="513" on="1"/>
        <pt x="916" y="588" on="0"/>
        <pt x="916" y="603" on="1"/>
        <pt x="916" y="662" on="0"/>
        <pt x="1103" y="662" on="1"/>
        <pt x="1241" y="662" on="0"/>
        <pt x="1321" y="643" on="1"/>
        <pt x="1377" y="630" on="0"/>
        <pt x="1377" y="586" on="1"/>
        <pt x="1377" y="561" on="0"/>
        <pt x="1328" y="483" on="0"/>
        <pt x="1320" y="435" on="0"/>
        <pt x="1299" y="230" on="0"/>
        <pt x="1298" y="222" on="1"/>
        <pt x="1285" y="130" on="0"/>
        <pt x="1212" y="64" on="0"/>
        <pt x="1125" y="38" on="1"/>
        <pt x="942" y="-17" on="0"/>
        <pt x="784" y="-17" on="1"/>
        <pt x="744" y="-17" on="1"/>
        <pt x="604" y="-17" on="0"/>
        <pt x="474" y="37" on="1"/>
        <pt x="223" y="141" on="0"/>
        <pt x="130" y="390" on="1"/>
        <pt x="82" y="519" on="0"/>
        <pt x="82" y="666" on="1"/>
        <pt x="82" y="708" on="1"/>
        <pt x="82" y="848" on="0"/>
        <pt x="138" y="982" on="1"/>
        <pt x="252" y="1257" on="0"/>
        <pt x="513" y="1356" on="1"/>
        <pt x="633" y="1402" on="0"/>
        <pt x="785" y="1402" on="1"/>
        <pt x="833" y="1402" on="0"/>
        <pt x="961" y="1384" on="0"/>
        <pt x="1158" y="1384" on="0"/>
        <pt x="1275" y="1297" on="0"/>
        <pt x="1275" y="1186" on="1"/>
        <pt x="1275" y="1033" on="0"/>
        <pt x="1215" y="1033" on="1"/>
        <pt x="1187" y="1033" on="0"/>
        <pt x="979" y="1189" on="0"/>
        <pt x="867" y="1237" on="0"/>
        <pt x="775" y="1237" on="1"/>
        <pt x="683" y="1236" on="0"/>
        <pt x="609" y="1192" on="1"/>
        <pt x="389" y="1060" on="0"/>
        <pt x="389" y="706" on="1"/>
        <pt x="389" y="455" on="0"/>
        <pt x="627" y="149" on="0"/>
      </contour>
    </TTGlyph>
    <TTGlyph name="H" xMin="81" yMin="-9" xMax="1509" yMax="1391">
      <contour>
        <pt x="681" y="642" on="1"/>
        <pt x="554" y="642" on="0"/>
        <pt x="529" y="602" on="1"/>
        <pt x="512" y="574" on="0"/>
        <pt x="512" y="306" on="0"/>
        <pt x="545" y="195" on="0"/>
        <pt x="630" y="89" on="0"/>
        <pt x="630" y="28" on="0"/>
        <pt x="475" y="1" on="0"/>
        <pt x="194" y="1" on="1"/>
        <pt x="136" y="1" on="0"/>
        <pt x="99" y="32" on="0"/>
        <pt x="99" y="81" on="1"/>
        <pt x="99" y="99" on="0"/>
        <pt x="200" y="182" on="0"/>
        <pt x="224" y="268" on="0"/>
        <pt x="224" y="1129" on="0"/>
        <pt x="197" y="1216" on="0"/>
        <pt x="128" y="1259" on="1"/>
        <pt x="81" y="1289" on="0"/>
        <pt x="81" y="1348" on="1"/>
        <pt x="104" y="1369" on="1"/>
        <pt x="145" y="1391" on="0"/>
        <pt x="472" y="1391" on="1"/>
        <pt x="624" y="1391" on="0"/>
        <pt x="624" y="1340" on="1"/>
        <pt x="624" y="1316" on="0"/>
        <pt x="552" y="1167" on="0"/>
        <pt x="529" y="1076" on="0"/>
        <pt x="529" y="921" on="1"/>
        <pt x="529" y="843" on="0"/>
        <pt x="566" y="814" on="1"/>
        <pt x="588" y="797" on="0"/>
        <pt x="1011" y="797" on="0"/>
        <pt x="1075" y="839" on="0"/>
        <pt x="1075" y="1078" on="0"/>
        <pt x="1046" y="1185" on="0"/>
        <pt x="966" y="1303" on="0"/>
        <pt x="966" y="1316" on="1"/>
        <pt x="966" y="1354" on="0"/>
        <pt x="1036" y="1371" on="1"/>
        <pt x="1074" y="1380" on="0"/>
        <pt x="1408" y="1380" on="0"/>
        <pt x="1451" y="1370" on="1"/>
        <pt x="1507" y="1357" on="0"/>
        <pt x="1507" y="1295" on="1"/>
        <pt x="1507" y="1274" on="0"/>
        <pt x="1402" y="1177" on="0"/>
        <pt x="1394" y="1157" on="1"/>
        <pt x="1376" y="1110" on="0"/>
        <pt x="1376" y="776" on="1"/>
        <pt x="1373" y="533" on="1"/>
        <pt x="1372" y="485" on="1"/>
        <pt x="1372" y="388" on="1"/>
        <pt x="1372" y="205" on="0"/>
        <pt x="1395" y="163" on="1"/>
        <pt x="1404" y="146" on="0"/>
        <pt x="1509" y="87" on="0"/>
        <pt x="1509" y="35" on="1"/>
        <pt x="1509" y="-9" on="0"/>
        <pt x="1366" y="-9" on="1"/>
        <pt x="1320" y="-8" on="1"/>
        <pt x="1225" y="-7" on="1"/>
        <pt x="1026" y="-7" on="0"/>
        <pt x="992" y="26" on="1"/>
        <pt x="980" y="48" on="1"/>
        <pt x="980" y="84" on="0"/>
        <pt x="1064" y="226" on="0"/>
        <pt x="1091" y="339" on="0"/>
        <pt x="1091" y="583" on="0"/>
        <pt x="1018" y="642" on="0"/>
      </contour>
    </TTGlyph>
    <TTGlyph name="I" xMin="92" yMin="5" xMax="691" yMax="1395">
      <contour>
        <pt x="224" y="13" on="1"/>
        <pt x="96" y="13" on="0"/>
        <pt x="96" y="95" on="0"/>
        <pt x="229" y="188" on="0"/>
        <pt x="259" y="304" on="0"/>
        <pt x="259" y="1105" on="0"/>
        <pt x="251" y="1136" on="1"/>
        <pt x="233" y="1207" on="0"/>
        <pt x="183" y="1242" on="1"/>
        <pt x="92" y="1306" on="0"/>
        <pt x="92" y="1342" on="1"/>
        <pt x="92" y="1356" on="1"/>
        <pt x="92" y="1392" on="0"/>
        <pt x="344" y="1392" on="1"/>
        <pt x="412" y="1395" on="1"/>
        <pt x="480" y="1395" on="1"/>
        <pt x="503" y="1394" on="1"/>
        <pt x="526" y="1394" on="1"/>
        <pt x="640" y="1394" on="0"/>
        <pt x="689" y="1377" on="0"/>
        <pt x="689" y="1334" on="1"/>
        <pt x="689" y="1308" on="0"/>
        <pt x="615" y="1248" on="1"/>
        <pt x="575" y="1215" on="0"/>
        <pt x="547" y="1093" on="0"/>
        <pt x="547" y="273" on="0"/>
        <pt x="569" y="183" on="0"/>
        <pt x="691" y="79" on="0"/>
        <pt x="691" y="45" on="1"/>
        <pt x="691" y="5" on="0"/>
        <pt x="611" y="5" on="1"/>
        <pt x="541" y="5" on="1"/>
        <pt x="518" y="6" on="1"/>
        <pt x="471" y="6" on="1"/>
        <pt x="403" y="8" on="1"/>
        <pt x="313" y="10" on="1"/>
        <pt x="269" y="12" on="1"/>
        <pt x="247" y="13" on="0"/>
      </contour>
    </TTGlyph>
    <TTGlyph name="Iacute" xMin="99" yMin="-18" xMax="729" yMax="1832">
      <contour>
        <pt x="335" y="1471" on="1"/>
        <pt x="312" y="1471" on="1"/>
        <pt x="268" y="1471" on="0"/>
        <pt x="268" y="1498" on="1"/>
        <pt x="268" y="1513" on="1"/>
        <pt x="268" y="1578" on="0"/>
        <pt x="444" y="1776" on="1"/>
        <pt x="494" y="1832" on="0"/>
        <pt x="559" y="1832" on="1"/>
        <pt x="583" y="1832" on="1"/>
        <pt x="639" y="1832" on="0"/>
        <pt x="694" y="1799" on="1"/>
        <pt x="711" y="1789" on="0"/>
        <pt x="711" y="1775" on="1"/>
        <pt x="711" y="1770" on="1"/>
        <pt x="711" y="1711" on="0"/>
        <pt x="520" y="1572" on="1"/>
        <pt x="381" y="1471" on="0"/>
      </contour>
      <contour>
        <pt x="99" y="1260" on="0"/>
        <pt x="99" y="1332" on="0"/>
        <pt x="139" y="1337" on="1"/>
        <pt x="201" y="1345" on="0"/>
        <pt x="431" y="1345" on="1"/>
        <pt x="543" y="1345" on="1"/>
        <pt x="682" y="1345" on="0"/>
        <pt x="722" y="1324" on="0"/>
        <pt x="722" y="1249" on="0"/>
        <pt x="589" y="1145" on="0"/>
        <pt x="565" y="1038" on="0"/>
        <pt x="565" y="276" on="0"/>
        <pt x="593" y="168" on="0"/>
        <pt x="646" y="128" on="1"/>
        <pt x="729" y="66" on="0"/>
        <pt x="729" y="-6" on="0"/>
        <pt x="633" y="-18" on="0"/>
        <pt x="372" y="-18" on="1"/>
        <pt x="189" y="-18" on="1"/>
        <pt x="104" y="-18" on="0"/>
        <pt x="104" y="31" on="1"/>
        <pt x="104" y="74" on="0"/>
        <pt x="236" y="182" on="0"/>
        <pt x="259" y="285" on="0"/>
        <pt x="259" y="1049" on="0"/>
        <pt x="233" y="1159" on="0"/>
      </contour>
    </TTGlyph>
    <TTGlyph name="Icircumflex" xMin="96" yMin="-18" xMax="738" yMax="1815">
      <contour>
        <pt x="408" y="1815" on="1"/>
        <pt x="426" y="1815" on="1"/>
        <pt x="435" y="1814" on="1"/>
        <pt x="489" y="1814" on="0"/>
        <pt x="525" y="1778" on="1"/>
        <pt x="738" y="1565" on="0"/>
        <pt x="738" y="1513" on="1"/>
        <pt x="738" y="1506" on="1"/>
        <pt x="738" y="1470" on="0"/>
        <pt x="603" y="1470" on="0"/>
        <pt x="503" y="1556" on="1"/>
        <pt x="465" y="1588" on="0"/>
        <pt x="419" y="1627" on="0"/>
        <pt x="401" y="1627" on="0"/>
        <pt x="228" y="1468" on="0"/>
        <pt x="166" y="1468" on="1"/>
        <pt x="158" y="1468" on="1"/>
        <pt x="96" y="1468" on="0"/>
        <pt x="96" y="1505" on="1"/>
        <pt x="96" y="1512" on="1"/>
        <pt x="96" y="1522" on="0"/>
        <pt x="155" y="1591" on="0"/>
        <pt x="174" y="1615" on="1"/>
        <pt x="196" y="1641" on="1"/>
        <pt x="201" y="1648" on="1"/>
        <pt x="263" y="1724" on="1"/>
        <pt x="296" y="1766" on="0"/>
        <pt x="309" y="1778" on="1"/>
        <pt x="349" y="1815" on="0"/>
      </contour>
      <contour>
        <pt x="103" y="1260" on="0"/>
        <pt x="103" y="1345" on="0"/>
        <pt x="414" y="1345" on="1"/>
        <pt x="570" y="1345" on="1"/>
        <pt x="687" y="1345" on="0"/>
        <pt x="726" y="1324" on="0"/>
        <pt x="726" y="1251" on="0"/>
        <pt x="594" y="1143" on="0"/>
        <pt x="570" y="1039" on="0"/>
        <pt x="570" y="280" on="0"/>
        <pt x="597" y="167" on="0"/>
        <pt x="733" y="69" on="0"/>
        <pt x="733" y="-6" on="0"/>
        <pt x="637" y="-18" on="0"/>
        <pt x="376" y="-18" on="1"/>
        <pt x="193" y="-18" on="1"/>
        <pt x="109" y="-18" on="0"/>
        <pt x="109" y="31" on="1"/>
        <pt x="109" y="72" on="0"/>
        <pt x="241" y="185" on="0"/>
        <pt x="264" y="285" on="0"/>
        <pt x="264" y="1041" on="0"/>
        <pt x="257" y="1076" on="1"/>
        <pt x="241" y="1156" on="0"/>
        <pt x="185" y="1198" on="1"/>
      </contour>
    </TTGlyph>
    <TTGlyph name="Idieresis" xMin="72" yMin="-14" xMax="785" yMax="1768">
      <contour>
        <pt x="355" y="1645" on="1"/>
        <pt x="355" y="1621" on="1"/>
        <pt x="355" y="1561" on="0"/>
        <pt x="274" y="1492" on="0"/>
        <pt x="218" y="1492" on="1"/>
        <pt x="208" y="1492" on="1"/>
        <pt x="149" y="1492" on="0"/>
        <pt x="75" y="1555" on="0"/>
        <pt x="75" y="1597" on="1"/>
        <pt x="72" y="1620" on="1"/>
        <pt x="72" y="1639" on="1"/>
        <pt x="72" y="1687" on="0"/>
        <pt x="142" y="1768" on="0"/>
        <pt x="200" y="1768" on="1"/>
        <pt x="228" y="1768" on="1"/>
        <pt x="278" y="1768" on="0"/>
        <pt x="355" y="1704" on="0"/>
      </contour>
      <contour>
        <pt x="632" y="1768" on="1"/>
        <pt x="661" y="1768" on="1"/>
        <pt x="673" y="1765" on="0"/>
        <pt x="717" y="1765" on="0"/>
        <pt x="785" y="1697" on="0"/>
        <pt x="785" y="1647" on="1"/>
        <pt x="785" y="1619" on="1"/>
        <pt x="782" y="1604" on="0"/>
        <pt x="782" y="1568" on="0"/>
        <pt x="720" y="1496" on="0"/>
        <pt x="678" y="1496" on="1"/>
        <pt x="670" y="1494" on="0"/>
        <pt x="665" y="1494" on="1"/>
        <pt x="646" y="1492" on="1"/>
        <pt x="636" y="1492" on="1"/>
        <pt x="585" y="1492" on="0"/>
        <pt x="505" y="1549" on="0"/>
        <pt x="505" y="1599" on="1"/>
        <pt x="502" y="1622" on="1"/>
        <pt x="502" y="1636" on="1"/>
        <pt x="502" y="1687" on="0"/>
        <pt x="571" y="1768" on="0"/>
      </contour>
      <contour>
        <pt x="226" y="-14" on="1"/>
        <pt x="119" y="-14" on="0"/>
        <pt x="119" y="79" on="0"/>
        <pt x="251" y="187" on="0"/>
        <pt x="274" y="288" on="0"/>
        <pt x="274" y="1063" on="0"/>
        <pt x="242" y="1172" on="0"/>
        <pt x="114" y="1261" on="0"/>
        <pt x="114" y="1349" on="0"/>
        <pt x="401" y="1349" on="1"/>
        <pt x="603" y="1349" on="1"/>
        <pt x="699" y="1349" on="0"/>
        <pt x="737" y="1329" on="0"/>
        <pt x="737" y="1251" on="0"/>
        <pt x="605" y="1152" on="0"/>
        <pt x="589" y="1082" on="1"/>
        <pt x="580" y="1043" on="0"/>
        <pt x="580" y="280" on="0"/>
        <pt x="608" y="171" on="0"/>
        <pt x="744" y="70" on="0"/>
        <pt x="744" y="-2" on="0"/>
        <pt x="656" y="-13" on="0"/>
        <pt x="387" y="-13" on="1"/>
        <pt x="341" y="-14" on="1"/>
      </contour>
    </TTGlyph>
    <TTGlyph name="Igrave" xMin="103" yMin="-18" xMax="732" yMax="1833">
      <contour>
        <pt x="558" y="1513" on="1"/>
        <pt x="558" y="1498" on="1"/>
        <pt x="558" y="1470" on="0"/>
        <pt x="509" y="1470" on="1"/>
        <pt x="498" y="1470" on="1"/>
        <pt x="492" y="1471" on="1"/>
        <pt x="437" y="1471" on="0"/>
        <pt x="375" y="1516" on="1"/>
        <pt x="118" y="1703" on="0"/>
        <pt x="118" y="1763" on="1"/>
        <pt x="118" y="1778" on="1"/>
        <pt x="118" y="1787" on="0"/>
        <pt x="194" y="1833" on="0"/>
        <pt x="251" y="1833" on="1"/>
        <pt x="269" y="1833" on="1"/>
        <pt x="335" y="1833" on="0"/>
        <pt x="379" y="1784" on="1"/>
        <pt x="394" y="1767" on="0"/>
        <pt x="442" y="1691" on="0"/>
        <pt x="490" y="1624" on="0"/>
        <pt x="498" y="1613" on="0"/>
        <pt x="516" y="1584" on="0"/>
        <pt x="558" y="1524" on="0"/>
      </contour>
      <contour>
        <pt x="103" y="1261" on="0"/>
        <pt x="103" y="1345" on="0"/>
        <pt x="413" y="1345" on="1"/>
        <pt x="569" y="1345" on="1"/>
        <pt x="686" y="1345" on="0"/>
        <pt x="726" y="1324" on="0"/>
        <pt x="726" y="1249" on="0"/>
        <pt x="594" y="1145" on="0"/>
        <pt x="569" y="1039" on="0"/>
        <pt x="569" y="280" on="0"/>
        <pt x="595" y="169" on="0"/>
        <pt x="732" y="66" on="0"/>
        <pt x="732" y="-6" on="0"/>
        <pt x="637" y="-18" on="0"/>
        <pt x="376" y="-18" on="1"/>
        <pt x="193" y="-18" on="1"/>
        <pt x="108" y="-18" on="0"/>
        <pt x="108" y="31" on="1"/>
        <pt x="108" y="74" on="0"/>
        <pt x="240" y="182" on="0"/>
        <pt x="263" y="285" on="0"/>
        <pt x="263" y="1049" on="0"/>
        <pt x="237" y="1156" on="0"/>
      </contour>
    </TTGlyph>
    <TTGlyph name="J" xMin="11" yMin="-244" xMax="765" yMax="1394">
      <contour>
        <pt x="205" y="1333" on="1"/>
        <pt x="205" y="1367" on="0"/>
        <pt x="286" y="1377" on="1"/>
        <pt x="422" y="1394" on="0"/>
        <pt x="615" y="1394" on="1"/>
        <pt x="666" y="1394" on="1"/>
        <pt x="765" y="1394" on="0"/>
        <pt x="765" y="1347" on="1"/>
        <pt x="765" y="1311" on="0"/>
        <pt x="687" y="1191" on="0"/>
        <pt x="661" y="1030" on="0"/>
        <pt x="661" y="844" on="1"/>
        <pt x="661" y="621" on="1"/>
        <pt x="660" y="542" on="1"/>
        <pt x="660" y="503" on="0"/>
        <pt x="660" y="464" on="1"/>
        <pt x="659" y="438" on="1"/>
        <pt x="658" y="412" on="0"/>
        <pt x="658" y="385" on="1"/>
        <pt x="658" y="-59" on="0"/>
        <pt x="377" y="-197" on="1"/>
        <pt x="281" y="-244" on="0"/>
        <pt x="192" y="-244" on="1"/>
        <pt x="168" y="-244" on="1"/>
        <pt x="89" y="-244" on="0"/>
        <pt x="11" y="-192" on="0"/>
        <pt x="11" y="-130" on="1"/>
        <pt x="11" y="-23" on="0"/>
        <pt x="162" y="1" on="1"/>
        <pt x="225" y="11" on="0"/>
        <pt x="267" y="38" on="0"/>
        <pt x="295" y="82" on="1"/>
        <pt x="352" y="172" on="0"/>
        <pt x="352" y="404" on="1"/>
        <pt x="374" y="948" on="1"/>
        <pt x="374" y="1086" on="0"/>
        <pt x="344" y="1157" on="1"/>
        <pt x="335" y="1178" on="0"/>
        <pt x="313" y="1207" on="1"/>
        <pt x="277" y="1254" on="1"/>
        <pt x="254" y="1287" on="0"/>
        <pt x="243" y="1298" on="1"/>
        <pt x="205" y="1325" on="0"/>
      </contour>
    </TTGlyph>
    <TTGlyph name="K" xMin="101" yMin="-2" xMax="1427" yMax="1402">
      <contour>
        <pt x="101" y="1345" on="1"/>
        <pt x="101" y="1370" on="1"/>
        <pt x="101" y="1402" on="0"/>
        <pt x="420" y="1402" on="1"/>
        <pt x="462" y="1402" on="1"/>
        <pt x="584" y="1402" on="0"/>
        <pt x="613" y="1374" on="1"/>
        <pt x="629" y="1350" on="1"/>
        <pt x="629" y="1316" on="0"/>
        <pt x="544" y="1231" on="0"/>
        <pt x="508" y="1093" on="0"/>
        <pt x="508" y="775" on="0"/>
        <pt x="531" y="775" on="1"/>
        <pt x="579" y="775" on="0"/>
        <pt x="812" y="1023" on="1"/>
        <pt x="955" y="1175" on="0"/>
        <pt x="955" y="1225" on="1"/>
        <pt x="955" y="1243" on="0"/>
        <pt x="921" y="1321" on="0"/>
        <pt x="921" y="1340" on="1"/>
        <pt x="921" y="1378" on="0"/>
        <pt x="970" y="1391" on="1"/>
        <pt x="1000" y="1399" on="0"/>
        <pt x="1257" y="1399" on="0"/>
        <pt x="1362" y="1374" on="0"/>
        <pt x="1362" y="1342" on="1"/>
        <pt x="1165" y="1171" on="1"/>
        <pt x="1122" y="1134" on="0"/>
        <pt x="910" y="908" on="1"/>
        <pt x="835" y="828" on="0"/>
        <pt x="835" y="773" on="1"/>
        <pt x="835" y="766" on="0"/>
        <pt x="1223" y="260" on="0"/>
        <pt x="1270" y="215" on="1"/>
        <pt x="1427" y="63" on="0"/>
        <pt x="1427" y="60" on="1"/>
        <pt x="1427" y="21" on="0"/>
        <pt x="1296" y="-2" on="0"/>
        <pt x="1158" y="-2" on="1"/>
        <pt x="1114" y="-2" on="1"/>
        <pt x="1039" y="-2" on="0"/>
        <pt x="982" y="68" on="1"/>
        <pt x="962" y="92" on="0"/>
        <pt x="840" y="352" on="0"/>
        <pt x="665" y="588" on="0"/>
        <pt x="595" y="588" on="1"/>
        <pt x="560" y="588" on="0"/>
        <pt x="513" y="499" on="0"/>
        <pt x="513" y="301" on="0"/>
        <pt x="587" y="123" on="1"/>
        <pt x="606" y="78" on="0"/>
        <pt x="606" y="48" on="1"/>
        <pt x="596" y="36" on="1"/>
        <pt x="548" y="1" on="0"/>
        <pt x="290" y="1" on="1"/>
        <pt x="200" y="1" on="0"/>
        <pt x="163" y="10" on="1"/>
        <pt x="105" y="24" on="0"/>
        <pt x="105" y="61" on="1"/>
        <pt x="105" y="67" on="0"/>
        <pt x="208" y="191" on="0"/>
        <pt x="230" y="308" on="0"/>
        <pt x="230" y="1086" on="0"/>
        <pt x="205" y="1192" on="0"/>
        <pt x="101" y="1342" on="0"/>
      </contour>
    </TTGlyph>
    <TTGlyph name="L" xMin="78" yMin="-1" xMax="1186" yMax="1389">
      <contour>
        <pt x="665" y="1329" on="1"/>
        <pt x="665" y="1316" on="0"/>
        <pt x="542" y="1177" on="0"/>
        <pt x="519" y="1081" on="0"/>
        <pt x="519" y="260" on="0"/>
        <pt x="542" y="174" on="0"/>
        <pt x="616" y="143" on="0"/>
        <pt x="796" y="143" on="0"/>
        <pt x="931" y="209" on="0"/>
        <pt x="1087" y="379" on="0"/>
        <pt x="1143" y="379" on="1"/>
        <pt x="1186" y="379" on="0"/>
        <pt x="1186" y="325" on="1"/>
        <pt x="1186" y="299" on="1"/>
        <pt x="1186" y="224" on="0"/>
        <pt x="1138" y="41" on="0"/>
        <pt x="1124" y="28" on="1"/>
        <pt x="1093" y="-1" on="0"/>
        <pt x="974" y="-1" on="1"/>
        <pt x="437" y="-1" on="1"/>
        <pt x="174" y="-1" on="0"/>
        <pt x="146" y="4" on="1"/>
        <pt x="98" y="13" on="0"/>
        <pt x="98" y="58" on="1"/>
        <pt x="98" y="82" on="0"/>
        <pt x="204" y="188" on="0"/>
        <pt x="224" y="273" on="1"/>
        <pt x="232" y="307" on="0"/>
        <pt x="232" y="1135" on="0"/>
        <pt x="208" y="1215" on="0"/>
        <pt x="78" y="1297" on="0"/>
        <pt x="78" y="1348" on="1"/>
        <pt x="78" y="1389" on="0"/>
        <pt x="273" y="1389" on="1"/>
        <pt x="538" y="1389" on="1"/>
        <pt x="616" y="1389" on="0"/>
        <pt x="665" y="1366" on="0"/>
      </contour>
    </TTGlyph>
    <TTGlyph name="Lslash" xMin="104" yMin="0" xMax="1175" yMax="1317">
      <contour>
        <pt x="512" y="1046" on="0"/>
        <pt x="512" y="859" on="0"/>
        <pt x="552" y="859" on="1"/>
        <pt x="579" y="859" on="0"/>
        <pt x="720" y="947" on="0"/>
        <pt x="799" y="947" on="0"/>
        <pt x="799" y="877" on="1"/>
        <pt x="799" y="840" on="0"/>
        <pt x="590" y="684" on="0"/>
        <pt x="509" y="555" on="0"/>
        <pt x="509" y="354" on="1"/>
        <pt x="509" y="230" on="0"/>
        <pt x="623" y="132" on="0"/>
        <pt x="746" y="132" on="1"/>
        <pt x="825" y="132" on="0"/>
        <pt x="911" y="189" on="1"/>
        <pt x="932" y="203" on="0"/>
        <pt x="954" y="225" on="1"/>
        <pt x="1013" y="289" on="1"/>
        <pt x="1098" y="364" on="0"/>
        <pt x="1139" y="364" on="1"/>
        <pt x="1175" y="364" on="0"/>
        <pt x="1175" y="314" on="1"/>
        <pt x="1175" y="287" on="1"/>
        <pt x="1175" y="96" on="0"/>
        <pt x="1092" y="0" on="0"/>
        <pt x="961" y="0" on="1"/>
        <pt x="752" y="0" on="1"/>
        <pt x="716" y="1" on="1"/>
        <pt x="202" y="0" on="1"/>
        <pt x="104" y="0" on="0"/>
        <pt x="104" y="30" on="1"/>
        <pt x="104" y="39" on="0"/>
        <pt x="211" y="141" on="0"/>
        <pt x="261" y="239" on="0"/>
        <pt x="261" y="414" on="0"/>
        <pt x="240" y="429" on="1"/>
        <pt x="233" y="434" on="0"/>
        <pt x="112" y="434" on="0"/>
        <pt x="112" y="523" on="0"/>
        <pt x="250" y="697" on="0"/>
        <pt x="262" y="747" on="0"/>
        <pt x="262" y="1081" on="0"/>
        <pt x="229" y="1161" on="0"/>
        <pt x="110" y="1242" on="0"/>
        <pt x="110" y="1273" on="1"/>
        <pt x="110" y="1317" on="0"/>
        <pt x="256" y="1317" on="1"/>
        <pt x="486" y="1317" on="1"/>
        <pt x="644" y="1317" on="0"/>
        <pt x="644" y="1259" on="1"/>
        <pt x="637" y="1245" on="1"/>
        <pt x="623" y="1232" on="1"/>
        <pt x="609" y="1214" on="1"/>
        <pt x="553" y="1131" on="0"/>
        <pt x="550" y="1125" on="1"/>
      </contour>
    </TTGlyph>
    <TTGlyph name="M" xMin="127" yMin="21" xMax="1825" yMax="1381">
      <contour>
        <pt x="1423" y="1368" on="0"/>
        <pt x="1726" y="1368" on="0"/>
        <pt x="1766" y="1346" on="1"/>
        <pt x="1793" y="1321" on="1"/>
        <pt x="1793" y="1285" on="0"/>
        <pt x="1713" y="1190" on="0"/>
        <pt x="1707" y="1174" on="1"/>
        <pt x="1684" y="1116" on="0"/>
        <pt x="1684" y="908" on="0"/>
        <pt x="1687" y="837" on="1"/>
        <pt x="1697" y="660" on="1"/>
        <pt x="1702" y="541" on="0"/>
        <pt x="1702" y="245" on="0"/>
        <pt x="1729" y="170" on="0"/>
        <pt x="1768" y="137" on="1"/>
        <pt x="1825" y="87" on="1"/>
        <pt x="1825" y="30" on="0"/>
        <pt x="1705" y="30" on="1"/>
        <pt x="1538" y="30" on="0"/>
        <pt x="1441" y="52" on="1"/>
        <pt x="1372" y="68" on="0"/>
        <pt x="1372" y="115" on="1"/>
        <pt x="1379" y="143" on="1"/>
        <pt x="1416" y="260" on="0"/>
        <pt x="1416" y="377" on="0"/>
        <pt x="1389" y="701" on="0"/>
        <pt x="1389" y="959" on="0"/>
        <pt x="1379" y="959" on="1"/>
        <pt x="1353" y="959" on="0"/>
        <pt x="1103" y="291" on="0"/>
        <pt x="1055" y="197" on="1"/>
        <pt x="985" y="59" on="0"/>
        <pt x="850" y="59" on="0"/>
        <pt x="809" y="142" on="1"/>
        <pt x="786" y="197" on="1"/>
        <pt x="775" y="225" on="0"/>
        <pt x="720" y="366" on="1"/>
        <pt x="631" y="591" on="1"/>
        <pt x="489" y="949" on="0"/>
        <pt x="428" y="949" on="0"/>
        <pt x="428" y="674" on="1"/>
        <pt x="428" y="543" on="0"/>
        <pt x="433" y="451" on="1"/>
        <pt x="441" y="346" on="1"/>
        <pt x="445" y="295" on="0"/>
        <pt x="445" y="244" on="1"/>
        <pt x="449" y="196" on="1"/>
        <pt x="454" y="156" on="1"/>
        <pt x="457" y="125" on="0"/>
        <pt x="457" y="74" on="1"/>
        <pt x="440" y="54" on="1"/>
        <pt x="394" y="21" on="0"/>
        <pt x="314" y="21" on="1"/>
        <pt x="127" y="21" on="0"/>
        <pt x="127" y="68" on="1"/>
        <pt x="127" y="88" on="0"/>
        <pt x="204" y="194" on="0"/>
        <pt x="234" y="289" on="0"/>
        <pt x="234" y="450" on="1"/>
        <pt x="236" y="509" on="1"/>
        <pt x="240" y="569" on="1"/>
        <pt x="254" y="849" on="0"/>
        <pt x="254" y="1037" on="0"/>
        <pt x="229" y="1147" on="0"/>
        <pt x="140" y="1294" on="0"/>
        <pt x="140" y="1326" on="1"/>
        <pt x="161" y="1350" on="1"/>
        <pt x="203" y="1381" on="0"/>
        <pt x="249" y="1381" on="1"/>
        <pt x="303" y="1381" on="1"/>
        <pt x="402" y="1381" on="0"/>
        <pt x="572" y="1304" on="0"/>
        <pt x="616" y="1240" on="1"/>
        <pt x="644" y="1194" on="1"/>
        <pt x="678" y="1133" on="0"/>
        <pt x="748" y="950" on="0"/>
        <pt x="882" y="649" on="0"/>
        <pt x="930" y="570" on="1"/>
        <pt x="956" y="537" on="1"/>
        <pt x="984" y="537" on="0"/>
        <pt x="1313" y="1243" on="0"/>
        <pt x="1348" y="1283" on="1"/>
      </contour>
    </TTGlyph>
    <TTGlyph name="N" xMin="90" yMin="7" xMax="1487" yMax="1376">
      <contour>
        <pt x="1338" y="263" on="0"/>
        <pt x="1338" y="54" on="0"/>
        <pt x="1313" y="17" on="0"/>
        <pt x="1262" y="17" on="1"/>
        <pt x="1245" y="17" on="0"/>
        <pt x="1109" y="92" on="0"/>
        <pt x="1054" y="160" on="1"/>
        <pt x="1031" y="188" on="0"/>
        <pt x="485" y="986" on="0"/>
        <pt x="436" y="986" on="1"/>
        <pt x="416" y="986" on="0"/>
        <pt x="416" y="443" on="0"/>
        <pt x="455" y="226" on="1"/>
        <pt x="466" y="165" on="0"/>
        <pt x="521" y="89" on="0"/>
        <pt x="521" y="64" on="1"/>
        <pt x="513" y="41" on="1"/>
        <pt x="484" y="7" on="0"/>
        <pt x="321" y="7" on="1"/>
        <pt x="278" y="7" on="1"/>
        <pt x="149" y="7" on="0"/>
        <pt x="101" y="45" on="0"/>
        <pt x="101" y="83" on="1"/>
        <pt x="101" y="104" on="0"/>
        <pt x="212" y="171" on="0"/>
        <pt x="223" y="204" on="1"/>
        <pt x="229" y="222" on="0"/>
        <pt x="229" y="382" on="1"/>
        <pt x="231" y="430" on="1"/>
        <pt x="234" y="574" on="1"/>
        <pt x="237" y="717" on="0"/>
        <pt x="237" y="1082" on="0"/>
        <pt x="210" y="1175" on="0"/>
        <pt x="90" y="1264" on="0"/>
        <pt x="90" y="1337" on="0"/>
        <pt x="147" y="1376" on="0"/>
        <pt x="229" y="1376" on="1"/>
        <pt x="274" y="1376" on="1"/>
        <pt x="436" y="1376" on="0"/>
        <pt x="688" y="1102" on="0"/>
        <pt x="1109" y="490" on="0"/>
        <pt x="1141" y="490" on="1"/>
        <pt x="1179" y="490" on="0"/>
        <pt x="1179" y="884" on="1"/>
        <pt x="1179" y="1177" on="0"/>
        <pt x="1114" y="1253" on="1"/>
        <pt x="1077" y="1297" on="0"/>
        <pt x="1077" y="1314" on="1"/>
        <pt x="1077" y="1359" on="0"/>
        <pt x="1168" y="1359" on="1"/>
        <pt x="1350" y="1359" on="0"/>
        <pt x="1487" y="1328" on="0"/>
        <pt x="1487" y="1279" on="1"/>
        <pt x="1487" y="1250" on="0"/>
        <pt x="1368" y="1129" on="0"/>
        <pt x="1356" y="1080" on="0"/>
        <pt x="1356" y="872" on="1"/>
        <pt x="1343" y="408" on="1"/>
        <pt x="1342" y="364" on="1"/>
        <pt x="1340" y="320" on="1"/>
      </contour>
    </TTGlyph>
    <TTGlyph name="Nacute" xMin="46" yMin="-33" xMax="1440" yMax="1782">
      <contour>
        <pt x="703" y="1420" on="1"/>
        <pt x="679" y="1420" on="1"/>
        <pt x="643" y="1420" on="0"/>
        <pt x="643" y="1445" on="1"/>
        <pt x="643" y="1450" on="1"/>
        <pt x="644" y="1456" on="1"/>
        <pt x="644" y="1470" on="0"/>
        <pt x="785" y="1691" on="0"/>
        <pt x="866" y="1782" on="0"/>
        <pt x="928" y="1782" on="1"/>
        <pt x="946" y="1782" on="1"/>
        <pt x="967" y="1779" on="0"/>
        <pt x="1025" y="1779" on="0"/>
        <pt x="1079" y="1749" on="1"/>
        <pt x="1091" y="1742" on="0"/>
        <pt x="1091" y="1734" on="1"/>
        <pt x="1091" y="1730" on="1"/>
        <pt x="1091" y="1684" on="0"/>
        <pt x="821" y="1463" on="1"/>
        <pt x="768" y="1420" on="0"/>
      </contour>
      <contour>
        <pt x="479" y="-32" on="0"/>
        <pt x="160" y="-32" on="0"/>
        <pt x="46" y="-5" on="0"/>
        <pt x="46" y="37" on="1"/>
        <pt x="46" y="69" on="0"/>
        <pt x="181" y="136" on="0"/>
        <pt x="206" y="221" on="0"/>
        <pt x="206" y="1005" on="0"/>
        <pt x="186" y="1099" on="0"/>
        <pt x="134" y="1133" on="1"/>
        <pt x="48" y="1189" on="0"/>
        <pt x="48" y="1236" on="1"/>
        <pt x="48" y="1291" on="0"/>
        <pt x="165" y="1291" on="1"/>
        <pt x="415" y="1291" on="0"/>
        <pt x="492" y="1226" on="1"/>
        <pt x="518" y="1204" on="0"/>
        <pt x="1097" y="433" on="0"/>
        <pt x="1117" y="433" on="0"/>
        <pt x="1117" y="885" on="0"/>
        <pt x="1069" y="1104" on="1"/>
        <pt x="1057" y="1159" on="0"/>
        <pt x="996" y="1231" on="0"/>
        <pt x="996" y="1250" on="1"/>
        <pt x="996" y="1291" on="0"/>
        <pt x="1304" y="1291" on="0"/>
        <pt x="1440" y="1269" on="0"/>
        <pt x="1440" y="1203" on="0"/>
        <pt x="1306" y="1095" on="0"/>
        <pt x="1295" y="1037" on="1"/>
        <pt x="1289" y="1006" on="0"/>
        <pt x="1289" y="645" on="1"/>
        <pt x="1289" y="82" on="1"/>
        <pt x="1288" y="38" on="1"/>
        <pt x="1278" y="-33" on="0"/>
        <pt x="1177" y="-33" on="0"/>
        <pt x="1034" y="47" on="0"/>
        <pt x="940" y="154" on="0"/>
        <pt x="424" y="869" on="0"/>
        <pt x="400" y="869" on="1"/>
        <pt x="383" y="869" on="0"/>
        <pt x="383" y="446" on="0"/>
        <pt x="448" y="148" on="0"/>
        <pt x="459" y="73" on="0"/>
        <pt x="462" y="62" on="1"/>
        <pt x="479" y="11" on="1"/>
      </contour>
    </TTGlyph>
    <TTGlyph name="Ntilde" xMin="69" yMin="-12" xMax="1448" yMax="1764">
      <contour>
        <pt x="938" y="1485" on="1"/>
        <pt x="919" y="1485" on="1"/>
        <pt x="910" y="1486" on="1"/>
        <pt x="858" y="1486" on="0"/>
        <pt x="668" y="1581" on="0"/>
        <pt x="586" y="1581" on="0"/>
        <pt x="489" y="1498" on="0"/>
        <pt x="464" y="1498" on="1"/>
        <pt x="413" y="1498" on="0"/>
        <pt x="413" y="1545" on="1"/>
        <pt x="413" y="1554" on="1"/>
        <pt x="413" y="1618" on="0"/>
        <pt x="559" y="1764" on="0"/>
        <pt x="639" y="1764" on="1"/>
        <pt x="648" y="1764" on="1"/>
        <pt x="710" y="1764" on="0"/>
        <pt x="900" y="1669" on="0"/>
        <pt x="984" y="1669" on="0"/>
        <pt x="1079" y="1750" on="0"/>
        <pt x="1103" y="1750" on="1"/>
        <pt x="1154" y="1750" on="0"/>
        <pt x="1154" y="1702" on="1"/>
        <pt x="1154" y="1629" on="0"/>
        <pt x="1010" y="1485" on="0"/>
      </contour>
      <contour>
        <pt x="1016" y="1260" on="1"/>
        <pt x="1016" y="1310" on="0"/>
        <pt x="1394" y="1310" on="0"/>
        <pt x="1431" y="1281" on="1"/>
        <pt x="1448" y="1257" on="1"/>
        <pt x="1448" y="1229" on="1"/>
        <pt x="1448" y="1211" on="0"/>
        <pt x="1329" y="1072" on="0"/>
        <pt x="1319" y="1040" on="0"/>
        <pt x="1319" y="912" on="0"/>
        <pt x="1302" y="397" on="0"/>
        <pt x="1302" y="71" on="0"/>
        <pt x="1298" y="52" on="1"/>
        <pt x="1287" y="1" on="0"/>
        <pt x="1225" y="1" on="1"/>
        <pt x="1208" y="1" on="0"/>
        <pt x="1077" y="59" on="0"/>
        <pt x="981" y="167" on="0"/>
        <pt x="882" y="313" on="1"/>
        <pt x="465" y="928" on="0"/>
        <pt x="418" y="928" on="1"/>
        <pt x="402" y="928" on="0"/>
        <pt x="402" y="447" on="0"/>
        <pt x="423" y="335" on="1"/>
        <pt x="425" y="323" on="0"/>
        <pt x="474" y="133" on="0"/>
        <pt x="479" y="120" on="1"/>
        <pt x="492" y="93" on="1"/>
        <pt x="510" y="56" on="0"/>
        <pt x="510" y="50" on="1"/>
        <pt x="510" y="13" on="0"/>
        <pt x="420" y="-12" on="0"/>
        <pt x="169" y="-12" on="0"/>
        <pt x="85" y="13" on="0"/>
        <pt x="85" y="73" on="1"/>
        <pt x="85" y="92" on="0"/>
        <pt x="207" y="180" on="0"/>
        <pt x="210" y="186" on="1"/>
        <pt x="221" y="210" on="0"/>
        <pt x="221" y="1060" on="0"/>
        <pt x="197" y="1128" on="0"/>
        <pt x="69" y="1226" on="0"/>
        <pt x="69" y="1286" on="1"/>
        <pt x="69" y="1333" on="0"/>
        <pt x="248" y="1333" on="1"/>
        <pt x="291" y="1333" on="1"/>
        <pt x="374" y="1333" on="0"/>
        <pt x="468" y="1299" on="0"/>
        <pt x="618" y="1147" on="0"/>
        <pt x="1084" y="491" on="0"/>
        <pt x="1108" y="491" on="1"/>
        <pt x="1141" y="491" on="0"/>
        <pt x="1141" y="875" on="1"/>
        <pt x="1141" y="1007" on="0"/>
        <pt x="1096" y="1140" on="1"/>
        <pt x="1086" y="1171" on="0"/>
        <pt x="1016" y="1245" on="0"/>
      </contour>
    </TTGlyph>
    <TTGlyph name="O" xMin="98" yMin="-34" xMax="1444" yMax="1407">
      <contour>
        <pt x="1103" y="639" on="1"/>
        <pt x="1103" y="706" on="1"/>
        <pt x="1103" y="808" on="0"/>
        <pt x="1076" y="920" on="1"/>
        <pt x="1022" y="1143" on="0"/>
        <pt x="886" y="1229" on="1"/>
        <pt x="825" y="1267" on="0"/>
        <pt x="746" y="1267" on="1"/>
        <pt x="731" y="1267" on="1"/>
        <pt x="666" y="1267" on="0"/>
        <pt x="598" y="1228" on="1"/>
        <pt x="466" y="1152" on="0"/>
        <pt x="417" y="960" on="1"/>
        <pt x="386" y="840" on="0"/>
        <pt x="386" y="721" on="1"/>
        <pt x="386" y="687" on="1"/>
        <pt x="386" y="570" on="0"/>
        <pt x="416" y="456" on="1"/>
        <pt x="476" y="231" on="0"/>
        <pt x="622" y="144" on="1"/>
        <pt x="682" y="108" on="0"/>
        <pt x="746" y="108" on="1"/>
        <pt x="776" y="108" on="1"/>
        <pt x="844" y="108" on="0"/>
        <pt x="970" y="187" on="0"/>
        <pt x="1010" y="254" on="1"/>
        <pt x="1103" y="409" on="0"/>
      </contour>
      <contour>
        <pt x="98" y="682" on="1"/>
        <pt x="98" y="842" on="0"/>
        <pt x="147" y="978" on="1"/>
        <pt x="242" y="1244" on="0"/>
        <pt x="480" y="1347" on="1"/>
        <pt x="618" y="1407" on="0"/>
        <pt x="762" y="1407" on="1"/>
        <pt x="786" y="1406" on="1"/>
        <pt x="809" y="1406" on="1"/>
        <pt x="925" y="1406" on="0"/>
        <pt x="1175" y="1300" on="0"/>
        <pt x="1352" y="1105" on="0"/>
        <pt x="1444" y="846" on="0"/>
        <pt x="1444" y="713" on="1"/>
        <pt x="1444" y="690" on="1"/>
        <pt x="1444" y="539" on="0"/>
        <pt x="1343" y="264" on="0"/>
        <pt x="1248" y="166" on="1"/>
        <pt x="1056" y="-33" on="0"/>
        <pt x="739" y="-34" on="1"/>
        <pt x="609" y="-34" on="0"/>
        <pt x="368" y="65" on="0"/>
        <pt x="287" y="154" on="1"/>
        <pt x="98" y="364" on="0"/>
      </contour>
    </TTGlyph>
    <TTGlyph name="OE" xMin="53" yMin="-26" xMax="1887" yMax="1385">
      <contour>
        <pt x="368" y="707" on="1"/>
        <pt x="368" y="674" on="1"/>
        <pt x="368" y="548" on="0"/>
        <pt x="398" y="437" on="1"/>
        <pt x="487" y="114" on="0"/>
        <pt x="732" y="114" on="1"/>
        <pt x="748" y="114" on="1"/>
        <pt x="763" y="115" on="1"/>
        <pt x="885" y="115" on="0"/>
        <pt x="928" y="179" on="1"/>
        <pt x="957" y="223" on="0"/>
        <pt x="957" y="390" on="1"/>
        <pt x="959" y="421" on="1"/>
        <pt x="962" y="542" on="1"/>
        <pt x="962" y="813" on="1"/>
        <pt x="957" y="993" on="1"/>
        <pt x="956" y="1008" on="0"/>
        <pt x="956" y="1023" on="1"/>
        <pt x="956" y="1147" on="0"/>
        <pt x="870" y="1248" on="0"/>
        <pt x="736" y="1248" on="1"/>
        <pt x="721" y="1248" on="1"/>
        <pt x="544" y="1248" on="0"/>
        <pt x="368" y="952" on="0"/>
      </contour>
      <contour>
        <pt x="725" y="-26" on="1"/>
        <pt x="408" y="-26" on="0"/>
        <pt x="53" y="352" on="0"/>
        <pt x="53" y="656" on="1"/>
        <pt x="53" y="704" on="1"/>
        <pt x="53" y="707" on="0"/>
        <pt x="53" y="709" on="1"/>
        <pt x="53" y="842" on="0"/>
        <pt x="104" y="975" on="1"/>
        <pt x="207" y="1246" on="0"/>
        <pt x="463" y="1341" on="1"/>
        <pt x="581" y="1385" on="0"/>
        <pt x="730" y="1385" on="1"/>
        <pt x="776" y="1385" on="1"/>
        <pt x="811" y="1385" on="0"/>
        <pt x="868" y="1380" on="1"/>
        <pt x="959" y="1372" on="1"/>
        <pt x="1103" y="1364" on="0"/>
        <pt x="1178" y="1364" on="1"/>
        <pt x="1219" y="1366" on="1"/>
        <pt x="1261" y="1369" on="1"/>
        <pt x="1397" y="1370" on="1"/>
        <pt x="1668" y="1370" on="0"/>
        <pt x="1764" y="1322" on="1"/>
        <pt x="1832" y="1288" on="0"/>
        <pt x="1832" y="1155" on="1"/>
        <pt x="1832" y="1103" on="0"/>
        <pt x="1786" y="1103" on="1"/>
        <pt x="1775" y="1103" on="0"/>
        <pt x="1507" y="1217" on="0"/>
        <pt x="1346" y="1217" on="0"/>
        <pt x="1291" y="1132" on="1"/>
        <pt x="1252" y="1071" on="0"/>
        <pt x="1252" y="897" on="1"/>
        <pt x="1252" y="856" on="0"/>
        <pt x="1313" y="784" on="0"/>
        <pt x="1415" y="784" on="0"/>
        <pt x="1453" y="805" on="1"/>
        <pt x="1556" y="862" on="0"/>
        <pt x="1613" y="862" on="0"/>
        <pt x="1665" y="792" on="0"/>
        <pt x="1665" y="706" on="1"/>
        <pt x="1665" y="527" on="0"/>
        <pt x="1597" y="527" on="1"/>
        <pt x="1596" y="527" on="1"/>
        <pt x="1552" y="527" on="0"/>
        <pt x="1433" y="614" on="0"/>
        <pt x="1288" y="614" on="0"/>
        <pt x="1266" y="543" on="1"/>
        <pt x="1253" y="500" on="0"/>
        <pt x="1253" y="240" on="0"/>
        <pt x="1338" y="141" on="0"/>
        <pt x="1428" y="141" on="1"/>
        <pt x="1589" y="141" on="0"/>
        <pt x="1753" y="253" on="1"/>
        <pt x="1819" y="298" on="0"/>
        <pt x="1858" y="298" on="1"/>
        <pt x="1887" y="298" on="0"/>
        <pt x="1887" y="242" on="1"/>
        <pt x="1887" y="149" on="0"/>
        <pt x="1856" y="65" on="0"/>
        <pt x="1806" y="38" on="1"/>
        <pt x="1718" y="-10" on="0"/>
        <pt x="1389" y="-10" on="1"/>
        <pt x="1082" y="-3" on="1"/>
        <pt x="1018" y="-3" on="0"/>
        <pt x="756" y="-26" on="0"/>
      </contour>
    </TTGlyph>
    <TTGlyph name="Oacute" xMin="109" yMin="-46" xMax="1427" yMax="1812">
      <contour>
        <pt x="419" y="668" on="1"/>
        <pt x="419" y="544" on="0"/>
        <pt x="451" y="436" on="1"/>
        <pt x="507" y="249" on="0"/>
        <pt x="612" y="193" on="1"/>
        <pt x="675" y="159" on="0"/>
        <pt x="747" y="159" on="1"/>
        <pt x="762" y="159" on="1"/>
        <pt x="834" y="159" on="0"/>
        <pt x="955" y="233" on="0"/>
        <pt x="993" y="294" on="1"/>
        <pt x="1083" y="438" on="0"/>
        <pt x="1083" y="653" on="1"/>
        <pt x="1083" y="746" on="1"/>
        <pt x="1083" y="963" on="0"/>
        <pt x="989" y="1107" on="1"/>
        <pt x="953" y="1163" on="0"/>
        <pt x="835" y="1234" on="0"/>
        <pt x="773" y="1234" on="1"/>
        <pt x="727" y="1234" on="1"/>
        <pt x="677" y="1234" on="0"/>
        <pt x="618" y="1204" on="1"/>
        <pt x="505" y="1148" on="0"/>
        <pt x="452" y="966" on="1"/>
        <pt x="421" y="861" on="0"/>
        <pt x="421" y="761" on="1"/>
        <pt x="419" y="730" on="1"/>
      </contour>
      <contour>
        <pt x="686" y="1415" on="1"/>
        <pt x="668" y="1415" on="1"/>
        <pt x="614" y="1415" on="0"/>
        <pt x="614" y="1452" on="1"/>
        <pt x="614" y="1475" on="1"/>
        <pt x="614" y="1491" on="0"/>
        <pt x="776" y="1746" on="0"/>
        <pt x="786" y="1756" on="1"/>
        <pt x="842" y="1812" on="0"/>
        <pt x="904" y="1812" on="1"/>
        <pt x="931" y="1812" on="1"/>
        <pt x="970" y="1812" on="0"/>
        <pt x="1030" y="1776" on="1"/>
        <pt x="1050" y="1764" on="0"/>
        <pt x="1050" y="1748" on="1"/>
        <pt x="1050" y="1742" on="1"/>
        <pt x="1050" y="1679" on="0"/>
        <pt x="794" y="1449" on="1"/>
        <pt x="756" y="1415" on="0"/>
      </contour>
      <contour>
        <pt x="109" y="637" on="1"/>
        <pt x="109" y="685" on="1"/>
        <pt x="109" y="824" on="0"/>
        <pt x="156" y="953" on="1"/>
        <pt x="247" y="1203" on="0"/>
        <pt x="461" y="1301" on="1"/>
        <pt x="600" y="1365" on="0"/>
        <pt x="734" y="1365" on="1"/>
        <pt x="782" y="1365" on="1"/>
        <pt x="922" y="1364" on="0"/>
        <pt x="1040" y="1314" on="1"/>
        <pt x="1277" y="1213" on="0"/>
        <pt x="1375" y="965" on="1"/>
        <pt x="1427" y="835" on="0"/>
        <pt x="1427" y="683" on="1"/>
        <pt x="1427" y="660" on="1"/>
        <pt x="1426" y="510" on="0"/>
        <pt x="1378" y="378" on="1"/>
        <pt x="1282" y="115" on="0"/>
        <pt x="1035" y="10" on="1"/>
        <pt x="903" y="-46" on="0"/>
        <pt x="755" y="-46" on="1"/>
        <pt x="731" y="-46" on="1"/>
        <pt x="592" y="-46" on="0"/>
        <pt x="474" y="7" on="1"/>
        <pt x="250" y="108" on="0"/>
        <pt x="160" y="354" on="1"/>
        <pt x="109" y="493" on="0"/>
      </contour>
    </TTGlyph>
    <TTGlyph name="Ocircumflex" xMin="109" yMin="-43" xMax="1427" yMax="1797">
      <contour>
        <pt x="409" y="761" on="1"/>
        <pt x="409" y="700" on="1"/>
        <pt x="409" y="697" on="0"/>
        <pt x="409" y="693" on="1"/>
        <pt x="409" y="596" on="0"/>
        <pt x="436" y="490" on="1"/>
        <pt x="490" y="275" on="0"/>
        <pt x="618" y="207" on="1"/>
        <pt x="684" y="171" on="0"/>
        <pt x="755" y="171" on="1"/>
        <pt x="770" y="171" on="1"/>
        <pt x="909" y="171" on="0"/>
        <pt x="995" y="288" on="1"/>
        <pt x="1040" y="350" on="0"/>
        <pt x="1092" y="550" on="0"/>
        <pt x="1092" y="631" on="1"/>
        <pt x="1094" y="661" on="1"/>
        <pt x="1094" y="722" on="1"/>
        <pt x="1094" y="794" on="0"/>
        <pt x="1066" y="908" on="1"/>
        <pt x="1014" y="1114" on="0"/>
        <pt x="897" y="1190" on="1"/>
        <pt x="826" y="1236" on="0"/>
        <pt x="748" y="1236" on="1"/>
        <pt x="732" y="1235" on="1"/>
        <pt x="717" y="1235" on="1"/>
        <pt x="652" y="1235" on="0"/>
        <pt x="537" y="1160" on="0"/>
        <pt x="500" y="1103" on="1"/>
        <pt x="409" y="963" on="0"/>
      </contour>
      <contour>
        <pt x="504" y="1428" on="1"/>
        <pt x="480" y="1428" on="1"/>
        <pt x="419" y="1428" on="0"/>
        <pt x="419" y="1471" on="1"/>
        <pt x="419" y="1479" on="1"/>
        <pt x="419" y="1489" on="0"/>
        <pt x="613" y="1736" on="0"/>
        <pt x="629" y="1751" on="1"/>
        <pt x="679" y="1797" on="0"/>
        <pt x="739" y="1797" on="1"/>
        <pt x="767" y="1797" on="1"/>
        <pt x="815" y="1797" on="0"/>
        <pt x="877" y="1735" on="0"/>
        <pt x="971" y="1593" on="0"/>
        <pt x="1055" y="1487" on="0"/>
        <pt x="1055" y="1478" on="1"/>
        <pt x="1055" y="1428" on="0"/>
        <pt x="987" y="1428" on="1"/>
        <pt x="972" y="1428" on="1"/>
        <pt x="921" y="1428" on="0"/>
        <pt x="861" y="1478" on="1"/>
        <pt x="759" y="1563" on="0"/>
        <pt x="740" y="1563" on="0"/>
        <pt x="690" y="1527" on="1"/>
        <pt x="634" y="1487" on="1"/>
        <pt x="545" y="1428" on="0"/>
      </contour>
      <contour>
        <pt x="109" y="639" on="1"/>
        <pt x="109" y="687" on="1"/>
        <pt x="109" y="826" on="0"/>
        <pt x="208" y="1096" on="0"/>
        <pt x="374" y="1268" on="0"/>
        <pt x="616" y="1367" on="0"/>
        <pt x="734" y="1367" on="1"/>
        <pt x="782" y="1367" on="1"/>
        <pt x="787" y="1367" on="1"/>
        <pt x="936" y="1367" on="0"/>
        <pt x="1054" y="1312" on="1"/>
        <pt x="1282" y="1207" on="0"/>
        <pt x="1375" y="967" on="1"/>
        <pt x="1427" y="834" on="0"/>
        <pt x="1427" y="686" on="1"/>
        <pt x="1427" y="662" on="1"/>
        <pt x="1427" y="522" on="0"/>
        <pt x="1383" y="393" on="1"/>
        <pt x="1296" y="138" on="0"/>
        <pt x="1055" y="21" on="1"/>
        <pt x="924" y="-43" on="0"/>
        <pt x="779" y="-43" on="1"/>
        <pt x="708" y="-43" on="1"/>
        <pt x="706" y="-43" on="0"/>
        <pt x="704" y="-43" on="1"/>
        <pt x="585" y="-43" on="0"/>
        <pt x="470" y="10" on="1"/>
        <pt x="249" y="111" on="0"/>
        <pt x="160" y="356" on="1"/>
        <pt x="109" y="495" on="0"/>
      </contour>
    </TTGlyph>
    <TTGlyph name="Odieresis" xMin="115" yMin="-33" xMax="1432" yMax="1770">
      <contour>
        <pt x="420" y="762" on="1"/>
        <pt x="420" y="699" on="1"/>
        <pt x="420" y="471" on="0"/>
        <pt x="513" y="312" on="1"/>
        <pt x="552" y="245" on="0"/>
        <pt x="677" y="169" on="0"/>
        <pt x="748" y="169" on="1"/>
        <pt x="763" y="169" on="1"/>
        <pt x="829" y="169" on="0"/>
        <pt x="943" y="234" on="0"/>
        <pt x="980" y="290" on="1"/>
        <pt x="1071" y="430" on="0"/>
        <pt x="1071" y="658" on="1"/>
        <pt x="1071" y="721" on="1"/>
        <pt x="1069" y="752" on="0"/>
        <pt x="1069" y="794" on="1"/>
        <pt x="1068" y="836" on="0"/>
        <pt x="1042" y="942" on="1"/>
        <pt x="966" y="1248" on="0"/>
        <pt x="728" y="1249" on="1"/>
        <pt x="581" y="1249" on="0"/>
        <pt x="420" y="984" on="0"/>
      </contour>
      <contour>
        <pt x="582" y="1495" on="1"/>
        <pt x="572" y="1495" on="1"/>
        <pt x="563" y="1494" on="1"/>
        <pt x="558" y="1495" on="1"/>
        <pt x="508" y="1495" on="0"/>
        <pt x="426" y="1554" on="0"/>
        <pt x="426" y="1627" on="1"/>
        <pt x="426" y="1632" on="1"/>
        <pt x="426" y="1689" on="0"/>
        <pt x="496" y="1770" on="0"/>
        <pt x="554" y="1770" on="1"/>
        <pt x="583" y="1770" on="1"/>
        <pt x="643" y="1770" on="0"/>
        <pt x="710" y="1692" on="0"/>
        <pt x="710" y="1577" on="0"/>
        <pt x="643" y="1497" on="0"/>
        <pt x="596" y="1497" on="1"/>
        <pt x="586" y="1495" on="0"/>
      </contour>
      <contour>
        <pt x="981" y="1756" on="1"/>
        <pt x="1030" y="1756" on="0"/>
        <pt x="1091" y="1670" on="0"/>
        <pt x="1091" y="1612" on="1"/>
        <pt x="1091" y="1591" on="1"/>
        <pt x="1091" y="1520" on="0"/>
        <pt x="1020" y="1437" on="0"/>
        <pt x="963" y="1437" on="1"/>
        <pt x="958" y="1438" on="1"/>
        <pt x="893" y="1438" on="0"/>
        <pt x="805" y="1513" on="0"/>
        <pt x="805" y="1581" on="1"/>
        <pt x="805" y="1607" on="1"/>
        <pt x="805" y="1665" on="0"/>
        <pt x="882" y="1753" on="0"/>
        <pt x="934" y="1753" on="1"/>
        <pt x="960" y="1756" on="1"/>
      </contour>
      <contour>
        <pt x="115" y="626" on="1"/>
        <pt x="115" y="697" on="1"/>
        <pt x="115" y="842" on="0"/>
        <pt x="209" y="1093" on="0"/>
        <pt x="358" y="1264" on="0"/>
        <pt x="605" y="1377" on="0"/>
        <pt x="740" y="1377" on="1"/>
        <pt x="787" y="1377" on="1"/>
        <pt x="912" y="1376" on="0"/>
        <pt x="1030" y="1332" on="1"/>
        <pt x="1271" y="1241" on="0"/>
        <pt x="1372" y="998" on="1"/>
        <pt x="1432" y="853" on="0"/>
        <pt x="1432" y="696" on="1"/>
        <pt x="1432" y="649" on="1"/>
        <pt x="1432" y="516" on="0"/>
        <pt x="1382" y="384" on="1"/>
        <pt x="1285" y="124" on="0"/>
        <pt x="1041" y="23" on="1"/>
        <pt x="904" y="-33" on="0"/>
        <pt x="784" y="-33" on="1"/>
        <pt x="713" y="-33" on="1"/>
        <pt x="711" y="-33" on="0"/>
        <pt x="709" y="-33" on="1"/>
        <pt x="602" y="-33" on="0"/>
        <pt x="486" y="16" on="1"/>
        <pt x="257" y="112" on="0"/>
        <pt x="165" y="367" on="1"/>
        <pt x="115" y="504" on="0"/>
      </contour>
    </TTGlyph>
    <TTGlyph name="Ograve" xMin="109" yMin="-46" xMax="1427" yMax="1813">
      <contour>
        <pt x="1084" y="644" on="1"/>
        <pt x="1084" y="675" on="1"/>
        <pt x="1084" y="796" on="0"/>
        <pt x="1055" y="908" on="1"/>
        <pt x="970" y="1234" on="0"/>
        <pt x="724" y="1235" on="1"/>
        <pt x="580" y="1235" on="0"/>
        <pt x="505" y="1122" on="1"/>
        <pt x="418" y="989" on="0"/>
        <pt x="418" y="754" on="1"/>
        <pt x="418" y="738" on="1"/>
        <pt x="419" y="723" on="1"/>
        <pt x="419" y="583" on="0"/>
        <pt x="482" y="362" on="0"/>
        <pt x="563" y="233" on="0"/>
        <pt x="689" y="159" on="0"/>
        <pt x="761" y="159" on="1"/>
        <pt x="791" y="159" on="1"/>
        <pt x="793" y="159" on="0"/>
        <pt x="794" y="159" on="1"/>
        <pt x="853" y="159" on="0"/>
        <pt x="910" y="194" on="1"/>
        <pt x="1084" y="302" on="0"/>
      </contour>
      <contour>
        <pt x="870" y="1457" on="1"/>
        <pt x="870" y="1441" on="1"/>
        <pt x="870" y="1413" on="0"/>
        <pt x="812" y="1413" on="1"/>
        <pt x="807" y="1413" on="1"/>
        <pt x="745" y="1413" on="0"/>
        <pt x="434" y="1667" on="0"/>
        <pt x="434" y="1733" on="1"/>
        <pt x="434" y="1744" on="1"/>
        <pt x="434" y="1757" on="0"/>
        <pt x="514" y="1813" on="0"/>
        <pt x="582" y="1813" on="1"/>
        <pt x="589" y="1813" on="1"/>
        <pt x="595" y="1812" on="1"/>
        <pt x="665" y="1812" on="0"/>
        <pt x="704" y="1756" on="1"/>
        <pt x="870" y="1519" on="0"/>
      </contour>
      <contour>
        <pt x="109" y="637" on="1"/>
        <pt x="109" y="685" on="1"/>
        <pt x="109" y="688" on="0"/>
        <pt x="109" y="691" on="1"/>
        <pt x="109" y="825" on="0"/>
        <pt x="156" y="952" on="1"/>
        <pt x="248" y="1204" on="0"/>
        <pt x="461" y="1301" on="1"/>
        <pt x="600" y="1365" on="0"/>
        <pt x="734" y="1365" on="1"/>
        <pt x="782" y="1365" on="1"/>
        <pt x="922" y="1364" on="0"/>
        <pt x="1040" y="1314" on="1"/>
        <pt x="1277" y="1213" on="0"/>
        <pt x="1375" y="965" on="1"/>
        <pt x="1427" y="835" on="0"/>
        <pt x="1427" y="683" on="1"/>
        <pt x="1427" y="660" on="1"/>
        <pt x="1427" y="510" on="0"/>
        <pt x="1379" y="378" on="1"/>
        <pt x="1284" y="116" on="0"/>
        <pt x="1035" y="10" on="1"/>
        <pt x="903" y="-46" on="0"/>
        <pt x="755" y="-46" on="1"/>
        <pt x="731" y="-46" on="1"/>
        <pt x="609" y="-46" on="0"/>
        <pt x="494" y="-2" on="1"/>
        <pt x="256" y="90" on="0"/>
        <pt x="160" y="354" on="1"/>
        <pt x="109" y="493" on="0"/>
      </contour>
    </TTGlyph>
    <TTGlyph name="Oslash" xMin="128" yMin="-66" xMax="1405" yMax="1406">
      <contour>
        <pt x="413" y="736" on="1"/>
        <pt x="413" y="685" on="1"/>
        <pt x="413" y="488" on="0"/>
        <pt x="477" y="360" on="1"/>
        <pt x="489" y="337" on="0"/>
        <pt x="493" y="337" on="1"/>
        <pt x="500" y="337" on="1"/>
        <pt x="552" y="337" on="0"/>
        <pt x="711" y="588" on="1"/>
        <pt x="971" y="1000" on="0"/>
        <pt x="971" y="1097" on="1"/>
        <pt x="971" y="1150" on="0"/>
        <pt x="844" y="1237" on="0"/>
        <pt x="760" y="1237" on="1"/>
        <pt x="736" y="1237" on="1"/>
        <pt x="734" y="1237" on="0"/>
        <pt x="732" y="1237" on="1"/>
        <pt x="670" y="1237" on="0"/>
        <pt x="612" y="1204" on="1"/>
        <pt x="492" y="1137" on="0"/>
        <pt x="445" y="964" on="1"/>
        <pt x="413" y="847" on="0"/>
      </contour>
      <contour>
        <pt x="1094" y="971" on="1"/>
        <pt x="1094" y="1024" on="0"/>
        <pt x="1084" y="1024" on="1"/>
        <pt x="1080" y="1024" on="0"/>
        <pt x="984" y="831" on="1"/>
        <pt x="834" y="531" on="0"/>
        <pt x="663" y="330" on="1"/>
        <pt x="565" y="214" on="0"/>
        <pt x="565" y="180" on="1"/>
        <pt x="565" y="172" on="1"/>
        <pt x="565" y="151" on="0"/>
        <pt x="611" y="105" on="0"/>
        <pt x="645" y="105" on="1"/>
        <pt x="654" y="105" on="1"/>
        <pt x="663" y="106" on="1"/>
        <pt x="730" y="106" on="0"/>
        <pt x="804" y="158" on="1"/>
        <pt x="961" y="269" on="0"/>
        <pt x="1044" y="605" on="1"/>
        <pt x="1093" y="801" on="0"/>
        <pt x="1093" y="891" on="1"/>
        <pt x="1095" y="911" on="1"/>
        <pt x="1095" y="951" on="1"/>
        <pt x="1094" y="961" on="1"/>
      </contour>
      <contour>
        <pt x="128" y="643" on="1"/>
        <pt x="128" y="786" on="0"/>
        <pt x="225" y="1065" on="0"/>
        <pt x="321" y="1167" on="1"/>
        <pt x="513" y="1371" on="0"/>
        <pt x="840" y="1371" on="1"/>
        <pt x="890" y="1371" on="0"/>
        <pt x="1066" y="1348" on="0"/>
        <pt x="1102" y="1348" on="0"/>
        <pt x="1190" y="1406" on="0"/>
        <pt x="1249" y="1406" on="0"/>
        <pt x="1299" y="1362" on="0"/>
        <pt x="1299" y="1320" on="1"/>
        <pt x="1295" y="1300" on="1"/>
        <pt x="1288" y="1281" on="1"/>
        <pt x="1283" y="1261" on="1"/>
        <pt x="1276" y="1228" on="0"/>
        <pt x="1276" y="1185" on="1"/>
        <pt x="1276" y="1173" on="0"/>
        <pt x="1316" y="1095" on="1"/>
        <pt x="1405" y="921" on="0"/>
        <pt x="1405" y="726" on="1"/>
        <pt x="1405" y="699" on="1"/>
        <pt x="1405" y="551" on="0"/>
        <pt x="1296" y="266" on="0"/>
        <pt x="1200" y="170" on="1"/>
        <pt x="1005" y="-25" on="0"/>
        <pt x="713" y="-25" on="1"/>
        <pt x="658" y="-25" on="0"/>
        <pt x="469" y="-4" on="0"/>
        <pt x="433" y="-4" on="0"/>
        <pt x="343" y="-66" on="0"/>
        <pt x="281" y="-66" on="0"/>
        <pt x="234" y="-21" on="0"/>
        <pt x="234" y="14" on="0"/>
        <pt x="258" y="112" on="0"/>
        <pt x="258" y="158" on="1"/>
        <pt x="258" y="164" on="0"/>
        <pt x="215" y="252" on="1"/>
        <pt x="128" y="430" on="0"/>
        <pt x="128" y="616" on="1"/>
      </contour>
    </TTGlyph>
    <TTGlyph name="Otilde" xMin="109" yMin="-39" xMax="1427" yMax="1746">
      <contour>
        <pt x="1095" y="659" on="1"/>
        <pt x="1095" y="720" on="1"/>
        <pt x="1095" y="814" on="0"/>
        <pt x="1068" y="918" on="1"/>
        <pt x="986" y="1236" on="0"/>
        <pt x="733" y="1236" on="1"/>
        <pt x="505" y="1236" on="0"/>
        <pt x="433" y="946" on="1"/>
        <pt x="407" y="842" on="0"/>
        <pt x="407" y="735" on="1"/>
        <pt x="407" y="705" on="1"/>
        <pt x="408" y="690" on="1"/>
        <pt x="408" y="467" on="0"/>
        <pt x="601" y="172" on="0"/>
        <pt x="753" y="172" on="1"/>
        <pt x="768" y="172" on="1"/>
        <pt x="984" y="172" on="0"/>
        <pt x="1062" y="441" on="1"/>
        <pt x="1095" y="557" on="0"/>
      </contour>
      <contour>
        <pt x="901" y="1436" on="1"/>
        <pt x="876" y="1436" on="1"/>
        <pt x="812" y="1436" on="0"/>
        <pt x="635" y="1529" on="0"/>
        <pt x="548" y="1529" on="0"/>
        <pt x="452" y="1460" on="0"/>
        <pt x="434" y="1460" on="1"/>
        <pt x="376" y="1460" on="0"/>
        <pt x="376" y="1513" on="1"/>
        <pt x="376" y="1522" on="1"/>
        <pt x="376" y="1599" on="0"/>
        <pt x="534" y="1746" on="0"/>
        <pt x="602" y="1746" on="1"/>
        <pt x="630" y="1746" on="1"/>
        <pt x="674" y="1746" on="0"/>
        <pt x="900" y="1656" on="0"/>
        <pt x="944" y="1656" on="0"/>
        <pt x="1030" y="1722" on="0"/>
        <pt x="1048" y="1722" on="1"/>
        <pt x="1104" y="1722" on="0"/>
        <pt x="1104" y="1667" on="1"/>
        <pt x="1104" y="1658" on="1"/>
        <pt x="1104" y="1590" on="0"/>
        <pt x="961" y="1436" on="0"/>
      </contour>
      <contour>
        <pt x="109" y="644" on="1"/>
        <pt x="109" y="691" on="1"/>
        <pt x="109" y="834" on="0"/>
        <pt x="159" y="968" on="1"/>
        <pt x="257" y="1230" on="0"/>
        <pt x="499" y="1324" on="1"/>
        <pt x="624" y="1372" on="0"/>
        <pt x="769" y="1372" on="1"/>
        <pt x="1061" y="1372" on="0"/>
        <pt x="1238" y="1189" on="1"/>
        <pt x="1326" y="1098" on="0"/>
        <pt x="1427" y="839" on="0"/>
        <pt x="1427" y="690" on="1"/>
        <pt x="1427" y="667" on="1"/>
        <pt x="1427" y="517" on="0"/>
        <pt x="1379" y="385" on="1"/>
        <pt x="1284" y="123" on="0"/>
        <pt x="1035" y="17" on="1"/>
        <pt x="903" y="-39" on="0"/>
        <pt x="755" y="-39" on="1"/>
        <pt x="731" y="-39" on="1"/>
        <pt x="602" y="-38" on="0"/>
        <pt x="484" y="10" on="1"/>
        <pt x="251" y="106" on="0"/>
        <pt x="160" y="361" on="1"/>
        <pt x="109" y="504" on="0"/>
      </contour>
    </TTGlyph>
    <TTGlyph name="P" xMin="113" yMin="-5" xMax="1235" yMax="1401">
      <contour>
        <pt x="522" y="751" on="1"/>
        <pt x="522" y="694" on="0"/>
        <pt x="563" y="653" on="0"/>
        <pt x="634" y="653" on="1"/>
        <pt x="682" y="653" on="1"/>
        <pt x="785" y="653" on="0"/>
        <pt x="915" y="807" on="0"/>
        <pt x="915" y="948" on="1"/>
        <pt x="914" y="958" on="1"/>
        <pt x="914" y="1100" on="0"/>
        <pt x="766" y="1262" on="0"/>
        <pt x="652" y="1262" on="1"/>
        <pt x="627" y="1262" on="1"/>
        <pt x="543" y="1262" on="0"/>
        <pt x="528" y="1221" on="1"/>
        <pt x="523" y="1208" on="0"/>
        <pt x="523" y="1070" on="1"/>
        <pt x="523" y="918" on="1"/>
        <pt x="522" y="880" on="1"/>
      </contour>
      <contour>
        <pt x="113" y="50" on="1"/>
        <pt x="113" y="119" on="0"/>
        <pt x="231" y="200" on="0"/>
        <pt x="240" y="250" on="1"/>
        <pt x="254" y="329" on="0"/>
        <pt x="254" y="1073" on="0"/>
        <pt x="218" y="1222" on="0"/>
        <pt x="185" y="1250" on="1"/>
        <pt x="113" y="1310" on="0"/>
        <pt x="113" y="1328" on="1"/>
        <pt x="113" y="1344" on="1"/>
        <pt x="113" y="1385" on="0"/>
        <pt x="188" y="1396" on="1"/>
        <pt x="209" y="1399" on="0"/>
        <pt x="401" y="1399" on="1"/>
        <pt x="533" y="1401" on="1"/>
        <pt x="559" y="1401" on="1"/>
        <pt x="638" y="1398" on="1"/>
        <pt x="718" y="1398" on="1"/>
        <pt x="1072" y="1398" on="0"/>
        <pt x="1190" y="1179" on="1"/>
        <pt x="1235" y="1095" on="0"/>
        <pt x="1235" y="1001" on="1"/>
        <pt x="1235" y="973" on="1"/>
        <pt x="1235" y="805" on="0"/>
        <pt x="989" y="574" on="0"/>
        <pt x="765" y="554" on="1"/>
        <pt x="633" y="542" on="0"/>
        <pt x="616" y="534" on="1"/>
        <pt x="549" y="504" on="0"/>
        <pt x="549" y="311" on="1"/>
        <pt x="549" y="222" on="0"/>
        <pt x="611" y="172" on="1"/>
        <pt x="694" y="105" on="0"/>
        <pt x="694" y="59" on="1"/>
        <pt x="694" y="23" on="0"/>
        <pt x="541" y="-5" on="0"/>
        <pt x="396" y="-5" on="1"/>
        <pt x="113" y="-5" on="0"/>
      </contour>
    </TTGlyph>
    <TTGlyph name="Q" xMin="73" yMin="-299" xMax="1494" yMax="1438">
      <contour>
        <pt x="1144" y="647" on="1"/>
        <pt x="1144" y="731" on="1"/>
        <pt x="1144" y="847" on="0"/>
        <pt x="1109" y="964" on="1"/>
        <pt x="1011" y="1291" on="0"/>
        <pt x="758" y="1291" on="1"/>
        <pt x="675" y="1291" on="0"/>
        <pt x="546" y="1213" on="0"/>
        <pt x="506" y="1151" on="1"/>
        <pt x="405" y="994" on="0"/>
        <pt x="405" y="749" on="1"/>
        <pt x="405" y="699" on="1"/>
        <pt x="405" y="590" on="0"/>
        <pt x="436" y="474" on="1"/>
        <pt x="497" y="248" on="0"/>
        <pt x="635" y="165" on="1"/>
        <pt x="700" y="126" on="0"/>
        <pt x="763" y="126" on="1"/>
        <pt x="811" y="126" on="1"/>
        <pt x="870" y="126" on="0"/>
        <pt x="940" y="170" on="1"/>
        <pt x="1144" y="296" on="0"/>
      </contour>
      <contour>
        <pt x="73" y="688" on="1"/>
        <pt x="73" y="719" on="1"/>
        <pt x="73" y="866" on="0"/>
        <pt x="128" y="1008" on="1"/>
        <pt x="236" y="1285" on="0"/>
        <pt x="500" y="1387" on="1"/>
        <pt x="631" y="1438" on="0"/>
        <pt x="758" y="1438" on="1"/>
        <pt x="789" y="1438" on="1"/>
        <pt x="942" y="1438" on="0"/>
        <pt x="1073" y="1383" on="1"/>
        <pt x="1473" y="1215" on="0"/>
        <pt x="1473" y="695" on="1"/>
        <pt x="1473" y="505" on="0"/>
        <pt x="1378" y="329" on="1"/>
        <pt x="1325" y="231" on="0"/>
        <pt x="1238" y="148" on="1"/>
        <pt x="1219" y="130" on="0"/>
        <pt x="1100" y="41" on="0"/>
        <pt x="1100" y="25" on="1"/>
        <pt x="1100" y="-10" on="0"/>
        <pt x="1260" y="-105" on="0"/>
        <pt x="1494" y="-160" on="0"/>
        <pt x="1494" y="-239" on="0"/>
        <pt x="1365" y="-299" on="0"/>
        <pt x="1180" y="-299" on="0"/>
        <pt x="1089" y="-259" on="1"/>
        <pt x="414" y="36" on="0"/>
        <pt x="203" y="223" on="0"/>
        <pt x="73" y="510" on="0"/>
      </contour>
    </TTGlyph>
    <TTGlyph name="R" xMin="92" yMin="-3" xMax="1388" yMax="1386">
      <contour>
        <pt x="639" y="1253" on="1"/>
        <pt x="608" y="1253" on="1"/>
        <pt x="540" y="1253" on="0"/>
        <pt x="511" y="1216" on="0"/>
        <pt x="511" y="1138" on="1"/>
        <pt x="511" y="775" on="1"/>
        <pt x="511" y="735" on="0"/>
        <pt x="545" y="701" on="0"/>
        <pt x="603" y="701" on="1"/>
        <pt x="642" y="701" on="1"/>
        <pt x="650" y="702" on="1"/>
        <pt x="673" y="703" on="1"/>
        <pt x="681" y="704" on="0"/>
        <pt x="688" y="704" on="1"/>
        <pt x="759" y="704" on="0"/>
        <pt x="894" y="839" on="0"/>
        <pt x="894" y="948" on="1"/>
        <pt x="894" y="996" on="1"/>
        <pt x="894" y="1104" on="0"/>
        <pt x="758" y="1253" on="0"/>
      </contour>
      <contour>
        <pt x="592" y="1386" on="1"/>
        <pt x="660" y="1386" on="1"/>
        <pt x="916" y="1386" on="0"/>
        <pt x="1204" y="1190" on="0"/>
        <pt x="1204" y="1012" on="1"/>
        <pt x="1204" y="911" on="0"/>
        <pt x="1120" y="759" on="0"/>
        <pt x="1077" y="720" on="1"/>
        <pt x="979" y="631" on="0"/>
        <pt x="979" y="623" on="1"/>
        <pt x="979" y="586" on="0"/>
        <pt x="1052" y="464" on="0"/>
        <pt x="1146" y="294" on="0"/>
        <pt x="1166" y="267" on="1"/>
        <pt x="1218" y="197" on="0"/>
        <pt x="1279" y="170" on="1"/>
        <pt x="1388" y="123" on="0"/>
        <pt x="1388" y="100" on="1"/>
        <pt x="1388" y="36" on="0"/>
        <pt x="1334" y="20" on="1"/>
        <pt x="1257" y="-3" on="0"/>
        <pt x="1051" y="-3" on="0"/>
        <pt x="925" y="126" on="0"/>
        <pt x="759" y="471" on="0"/>
        <pt x="735" y="501" on="1"/>
        <pt x="685" y="566" on="0"/>
        <pt x="604" y="566" on="1"/>
        <pt x="560" y="566" on="0"/>
        <pt x="529" y="479" on="0"/>
        <pt x="529" y="306" on="1"/>
        <pt x="529" y="264" on="0"/>
        <pt x="572" y="174" on="1"/>
        <pt x="609" y="107" on="1"/>
        <pt x="636" y="57" on="0"/>
        <pt x="636" y="51" on="1"/>
        <pt x="636" y="-1" on="0"/>
        <pt x="473" y="-1" on="1"/>
        <pt x="189" y="-1" on="0"/>
        <pt x="92" y="27" on="0"/>
        <pt x="92" y="111" on="0"/>
        <pt x="214" y="185" on="0"/>
        <pt x="240" y="286" on="0"/>
        <pt x="240" y="1063" on="0"/>
        <pt x="210" y="1197" on="0"/>
        <pt x="171" y="1235" on="1"/>
        <pt x="101" y="1303" on="0"/>
        <pt x="101" y="1322" on="1"/>
        <pt x="101" y="1362" on="0"/>
        <pt x="268" y="1386" on="0"/>
      </contour>
    </TTGlyph>
    <TTGlyph name="S" xMin="97" yMin="-20" xMax="1072" yMax="1407">
      <contour>
        <pt x="569" y="1407" on="1"/>
        <pt x="836" y="1407" on="0"/>
        <pt x="928" y="1360" on="1"/>
        <pt x="997" y="1325" on="0"/>
        <pt x="997" y="1035" on="0"/>
        <pt x="948" y="1035" on="1"/>
        <pt x="908" y="1035" on="0"/>
        <pt x="726" y="1204" on="0"/>
        <pt x="632" y="1256" on="0"/>
        <pt x="481" y="1256" on="0"/>
        <pt x="374" y="1158" on="0"/>
        <pt x="374" y="1090" on="1"/>
        <pt x="374" y="999" on="0"/>
        <pt x="474" y="927" on="1"/>
        <pt x="524" y="891" on="0"/>
        <pt x="886" y="729" on="0"/>
        <pt x="963" y="651" on="1"/>
        <pt x="1072" y="540" on="0"/>
        <pt x="1072" y="401" on="1"/>
        <pt x="1072" y="111" on="0"/>
        <pt x="785" y="10" on="1"/>
        <pt x="700" y="-20" on="0"/>
        <pt x="611" y="-20" on="1"/>
        <pt x="575" y="-20" on="1"/>
        <pt x="465" y="-20" on="0"/>
        <pt x="197" y="30" on="0"/>
        <pt x="162" y="54" on="1"/>
        <pt x="97" y="99" on="0"/>
        <pt x="97" y="263" on="1"/>
        <pt x="97" y="297" on="1"/>
        <pt x="97" y="403" on="0"/>
        <pt x="154" y="403" on="1"/>
        <pt x="194" y="403" on="0"/>
        <pt x="368" y="199" on="0"/>
        <pt x="487" y="131" on="0"/>
        <pt x="672" y="131" on="0"/>
        <pt x="798" y="237" on="0"/>
        <pt x="798" y="299" on="1"/>
        <pt x="798" y="392" on="0"/>
        <pt x="686" y="512" on="0"/>
        <pt x="352" y="666" on="0"/>
        <pt x="288" y="713" on="1"/>
        <pt x="112" y="843" on="0"/>
        <pt x="112" y="1025" on="1"/>
        <pt x="112" y="1063" on="0"/>
        <pt x="120" y="1104" on="1"/>
        <pt x="153" y="1276" on="0"/>
        <pt x="341" y="1364" on="1"/>
        <pt x="433" y="1407" on="0"/>
        <pt x="533" y="1407" on="1"/>
      </contour>
    </TTGlyph>
    <TTGlyph name="Scaron" xMin="93" yMin="-55" xMax="1077" yMax="1777">
      <contour>
        <pt x="897" y="1744" on="1"/>
        <pt x="897" y="1737" on="1"/>
        <pt x="897" y="1732" on="0"/>
        <pt x="739" y="1511" on="0"/>
        <pt x="644" y="1431" on="0"/>
        <pt x="586" y="1431" on="1"/>
        <pt x="578" y="1431" on="1"/>
        <pt x="569" y="1432" on="1"/>
        <pt x="514" y="1432" on="0"/>
        <pt x="480" y="1466" on="1"/>
        <pt x="269" y="1677" on="0"/>
        <pt x="269" y="1737" on="1"/>
        <pt x="269" y="1776" on="0"/>
        <pt x="411" y="1776" on="0"/>
        <pt x="532" y="1664" on="1"/>
        <pt x="580" y="1620" on="0"/>
        <pt x="595" y="1620" on="0"/>
        <pt x="669" y="1689" on="0"/>
        <pt x="700" y="1715" on="1"/>
        <pt x="773" y="1777" on="0"/>
        <pt x="835" y="1777" on="1"/>
        <pt x="843" y="1777" on="1"/>
        <pt x="897" y="1777" on="0"/>
      </contour>
      <contour>
        <pt x="382" y="1035" on="1"/>
        <pt x="382" y="941" on="0"/>
        <pt x="475" y="873" on="1"/>
        <pt x="523" y="838" on="0"/>
        <pt x="895" y="677" on="0"/>
        <pt x="965" y="609" on="1"/>
        <pt x="1077" y="499" on="0"/>
        <pt x="1077" y="363" on="1"/>
        <pt x="1077" y="169" on="0"/>
        <pt x="795" y="-55" on="0"/>
        <pt x="577" y="-55" on="1"/>
        <pt x="515" y="-55" on="0"/>
        <pt x="314" y="-13" on="0"/>
        <pt x="287" y="-13" on="1"/>
        <pt x="182" y="-13" on="0"/>
        <pt x="93" y="81" on="0"/>
        <pt x="93" y="243" on="1"/>
        <pt x="93" y="277" on="1"/>
        <pt x="93" y="373" on="0"/>
        <pt x="223" y="373" on="0"/>
        <pt x="335" y="226" on="1"/>
        <pt x="366" y="186" on="0"/>
        <pt x="474" y="108" on="0"/>
        <pt x="666" y="108" on="0"/>
        <pt x="777" y="202" on="0"/>
        <pt x="777" y="272" on="1"/>
        <pt x="777" y="367" on="0"/>
        <pt x="680" y="436" on="1"/>
        <pt x="653" y="455" on="0"/>
        <pt x="274" y="630" on="0"/>
        <pt x="198" y="711" on="1"/>
        <pt x="100" y="815" on="0"/>
        <pt x="100" y="1119" on="0"/>
        <pt x="231" y="1223" on="1"/>
        <pt x="294" y="1273" on="0"/>
        <pt x="469" y="1329" on="0"/>
        <pt x="626" y="1329" on="0"/>
        <pt x="725" y="1307" on="0"/>
        <pt x="934" y="1280" on="0"/>
        <pt x="936" y="1279" on="1"/>
        <pt x="957" y="1269" on="0"/>
        <pt x="1008" y="1187" on="0"/>
        <pt x="1008" y="1089" on="1"/>
        <pt x="1008" y="941" on="0"/>
        <pt x="948" y="941" on="1"/>
        <pt x="902" y="941" on="0"/>
        <pt x="826" y="1007" on="1"/>
        <pt x="815" y="1017" on="0"/>
        <pt x="726" y="1118" on="0"/>
        <pt x="634" y="1176" on="0"/>
        <pt x="496" y="1176" on="0"/>
        <pt x="382" y="1095" on="0"/>
      </contour>
    </TTGlyph>
    <TTGlyph name="T" xMin="39" yMin="-1" xMax="1289" yMax="1390">
      <contour>
        <pt x="421" y="1232" on="1"/>
        <pt x="338" y="1232" on="0"/>
        <pt x="246" y="1156" on="1"/>
        <pt x="99" y="1034" on="0"/>
        <pt x="91" y="1034" on="1"/>
        <pt x="39" y="1034" on="0"/>
        <pt x="39" y="1099" on="1"/>
        <pt x="39" y="1130" on="1"/>
        <pt x="39" y="1238" on="0"/>
        <pt x="57" y="1325" on="1"/>
        <pt x="66" y="1370" on="0"/>
        <pt x="129" y="1388" on="0"/>
        <pt x="699" y="1388" on="1"/>
        <pt x="1074" y="1390" on="1"/>
        <pt x="1140" y="1390" on="1"/>
        <pt x="1248" y="1390" on="0"/>
        <pt x="1289" y="1320" on="0"/>
        <pt x="1289" y="1202" on="1"/>
        <pt x="1289" y="1138" on="1"/>
        <pt x="1289" y="1032" on="0"/>
        <pt x="1240" y="1032" on="1"/>
        <pt x="1197" y="1032" on="0"/>
        <pt x="1075" y="1170" on="0"/>
        <pt x="973" y="1231" on="0"/>
        <pt x="890" y="1231" on="1"/>
        <pt x="824" y="1231" on="0"/>
        <pt x="813" y="1144" on="1"/>
        <pt x="809" y="1114" on="0"/>
        <pt x="809" y="281" on="0"/>
        <pt x="831" y="191" on="0"/>
        <pt x="973" y="88" on="0"/>
        <pt x="973" y="17" on="0"/>
        <pt x="901" y="-1" on="0"/>
        <pt x="704" y="-1" on="1"/>
        <pt x="536" y="-1" on="1"/>
        <pt x="437" y="-1" on="0"/>
        <pt x="364" y="13" on="0"/>
        <pt x="364" y="79" on="0"/>
        <pt x="500" y="201" on="0"/>
        <pt x="524" y="292" on="0"/>
        <pt x="524" y="1108" on="0"/>
        <pt x="508" y="1191" on="0"/>
        <pt x="469" y="1232" on="0"/>
      </contour>
    </TTGlyph>
    <TTGlyph name="Thorn" xMin="133" yMin="-3" xMax="1268" yMax="1376">
      <contour>
        <pt x="563" y="934" on="1"/>
        <pt x="563" y="502" on="1"/>
        <pt x="563" y="425" on="0"/>
        <pt x="618" y="425" on="1"/>
        <pt x="679" y="425" on="1"/>
        <pt x="805" y="425" on="0"/>
        <pt x="929" y="574" on="0"/>
        <pt x="929" y="697" on="1"/>
        <pt x="929" y="738" on="1"/>
        <pt x="929" y="868" on="0"/>
        <pt x="797" y="1000" on="0"/>
        <pt x="691" y="1000" on="1"/>
        <pt x="619" y="1000" on="1"/>
        <pt x="563" y="1000" on="0"/>
      </contour>
      <contour>
        <pt x="151" y="64" on="1"/>
        <pt x="151" y="77" on="0"/>
        <pt x="266" y="208" on="0"/>
        <pt x="288" y="303" on="0"/>
        <pt x="288" y="1119" on="0"/>
        <pt x="268" y="1195" on="0"/>
        <pt x="133" y="1281" on="0"/>
        <pt x="133" y="1347" on="0"/>
        <pt x="166" y="1357" on="1"/>
        <pt x="231" y="1376" on="0"/>
        <pt x="370" y="1376" on="1"/>
        <pt x="536" y="1376" on="1"/>
        <pt x="640" y="1376" on="0"/>
        <pt x="680" y="1352" on="1"/>
        <pt x="699" y="1341" on="0"/>
        <pt x="699" y="1278" on="0"/>
        <pt x="619" y="1190" on="0"/>
        <pt x="619" y="1163" on="1"/>
        <pt x="619" y="1128" on="0"/>
        <pt x="1012" y="1093" on="0"/>
        <pt x="1113" y="1025" on="1"/>
        <pt x="1182" y="979" on="0"/>
        <pt x="1268" y="826" on="0"/>
        <pt x="1268" y="729" on="1"/>
        <pt x="1268" y="701" on="1"/>
        <pt x="1268" y="622" on="0"/>
        <pt x="1230" y="542" on="1"/>
        <pt x="1131" y="336" on="0"/>
        <pt x="807" y="317" on="1"/>
        <pt x="659" y="309" on="0"/>
        <pt x="645" y="303" on="1"/>
        <pt x="605" y="285" on="0"/>
        <pt x="605" y="196" on="0"/>
        <pt x="724" y="101" on="0"/>
        <pt x="724" y="-2" on="0"/>
        <pt x="459" y="-2" on="1"/>
        <pt x="403" y="-3" on="1"/>
        <pt x="250" y="-3" on="0"/>
        <pt x="193" y="10" on="1"/>
        <pt x="151" y="20" on="0"/>
      </contour>
    </TTGlyph>
    <TTGlyph name="U" xMin="62" yMin="-16" xMax="1444" yMax="1395">
      <contour>
        <pt x="702" y="-16" on="1"/>
        <pt x="559" y="-16" on="0"/>
        <pt x="448" y="44" on="1"/>
        <pt x="238" y="158" on="0"/>
        <pt x="208" y="419" on="1"/>
        <pt x="205" y="460" on="1"/>
        <pt x="204" y="481" on="0"/>
        <pt x="204" y="543" on="1"/>
        <pt x="207" y="744" on="1"/>
        <pt x="207" y="968" on="1"/>
        <pt x="207" y="1152" on="0"/>
        <pt x="187" y="1199" on="0"/>
        <pt x="62" y="1266" on="0"/>
        <pt x="62" y="1307" on="1"/>
        <pt x="62" y="1339" on="1"/>
        <pt x="62" y="1373" on="0"/>
        <pt x="136" y="1380" on="1"/>
        <pt x="286" y="1395" on="0"/>
        <pt x="473" y="1395" on="1"/>
        <pt x="593" y="1395" on="0"/>
        <pt x="593" y="1350" on="1"/>
        <pt x="593" y="1348" on="0"/>
        <pt x="522" y="1202" on="0"/>
        <pt x="495" y="1033" on="0"/>
        <pt x="495" y="390" on="0"/>
        <pt x="545" y="288" on="1"/>
        <pt x="615" y="145" on="0"/>
        <pt x="979" y="145" on="0"/>
        <pt x="1060" y="281" on="1"/>
        <pt x="1119" y="380" on="0"/>
        <pt x="1119" y="1113" on="0"/>
        <pt x="1070" y="1225" on="1"/>
        <pt x="1056" y="1250" on="1"/>
        <pt x="1039" y="1273" on="1"/>
        <pt x="1009" y="1320" on="0"/>
        <pt x="1009" y="1337" on="1"/>
        <pt x="1009" y="1375" on="0"/>
        <pt x="1054" y="1384" on="1"/>
        <pt x="1073" y="1388" on="0"/>
        <pt x="1350" y="1388" on="0"/>
        <pt x="1417" y="1362" on="1"/>
        <pt x="1444" y="1352" on="0"/>
        <pt x="1444" y="1263" on="0"/>
        <pt x="1406" y="1234" on="1"/>
        <pt x="1327" y="1174" on="0"/>
        <pt x="1309" y="1115" on="0"/>
        <pt x="1309" y="869" on="1"/>
        <pt x="1311" y="750" on="1"/>
        <pt x="1312" y="710" on="1"/>
        <pt x="1312" y="470" on="0"/>
        <pt x="1264" y="234" on="0"/>
        <pt x="1194" y="151" on="1"/>
        <pt x="1050" y="-16" on="0"/>
        <pt x="745" y="-16" on="1"/>
      </contour>
    </TTGlyph>
    <TTGlyph name="Uacute" xMin="46" yMin="-41" xMax="1435" yMax="1827">
      <contour>
        <pt x="704" y="1466" on="1"/>
        <pt x="692" y="1466" on="1"/>
        <pt x="687" y="1467" on="1"/>
        <pt x="643" y="1467" on="0"/>
        <pt x="643" y="1494" on="1"/>
        <pt x="643" y="1509" on="1"/>
        <pt x="643" y="1576" on="0"/>
        <pt x="818" y="1773" on="1"/>
        <pt x="866" y="1827" on="0"/>
        <pt x="932" y="1827" on="1"/>
        <pt x="957" y="1827" on="1"/>
        <pt x="1013" y="1827" on="0"/>
        <pt x="1068" y="1794" on="1"/>
        <pt x="1085" y="1784" on="0"/>
        <pt x="1085" y="1770" on="1"/>
        <pt x="1084" y="1765" on="1"/>
        <pt x="1084" y="1760" on="1"/>
        <pt x="1084" y="1701" on="0"/>
        <pt x="827" y="1514" on="1"/>
        <pt x="761" y="1466" on="0"/>
      </contour>
      <contour>
        <pt x="190" y="457" on="0"/>
        <pt x="190" y="1109" on="0"/>
        <pt x="175" y="1156" on="0"/>
        <pt x="46" y="1218" on="0"/>
        <pt x="46" y="1248" on="1"/>
        <pt x="46" y="1281" on="1"/>
        <pt x="46" y="1314" on="0"/>
        <pt x="118" y="1341" on="0"/>
        <pt x="440" y="1341" on="1"/>
        <pt x="602" y="1341" on="0"/>
        <pt x="602" y="1296" on="1"/>
        <pt x="602" y="1285" on="0"/>
        <pt x="519" y="1083" on="0"/>
        <pt x="497" y="952" on="0"/>
        <pt x="497" y="710" on="1"/>
        <pt x="497" y="348" on="0"/>
        <pt x="554" y="248" on="1"/>
        <pt x="625" y="125" on="0"/>
        <pt x="805" y="125" on="1"/>
        <pt x="894" y="125" on="0"/>
        <pt x="1023" y="210" on="0"/>
        <pt x="1054" y="279" on="1"/>
        <pt x="1098" y="377" on="0"/>
        <pt x="1098" y="1101" on="0"/>
        <pt x="1027" y="1195" on="1"/>
        <pt x="982" y="1254" on="0"/>
        <pt x="982" y="1320" on="0"/>
        <pt x="1069" y="1339" on="0"/>
        <pt x="1317" y="1339" on="0"/>
        <pt x="1392" y="1318" on="1"/>
        <pt x="1435" y="1306" on="0"/>
        <pt x="1435" y="1215" on="0"/>
        <pt x="1311" y="1127" on="0"/>
        <pt x="1294" y="1058" on="0"/>
        <pt x="1294" y="447" on="0"/>
        <pt x="1260" y="235" on="0"/>
        <pt x="1211" y="163" on="1"/>
        <pt x="1072" y="-41" on="0"/>
        <pt x="756" y="-41" on="1"/>
        <pt x="252" y="-41" on="0"/>
        <pt x="200" y="376" on="1"/>
      </contour>
    </TTGlyph>
    <TTGlyph name="Ucircumflex" xMin="46" yMin="-41" xMax="1435" yMax="1809">
      <contour>
        <pt x="758" y="1809" on="1"/>
        <pt x="793" y="1809" on="1"/>
        <pt x="843" y="1809" on="0"/>
        <pt x="877" y="1778" on="1"/>
        <pt x="878" y="1777" on="0"/>
        <pt x="1065" y="1556" on="1"/>
        <pt x="1097" y="1518" on="0"/>
        <pt x="1097" y="1508" on="1"/>
        <pt x="1097" y="1501" on="1"/>
        <pt x="1097" y="1466" on="0"/>
        <pt x="959" y="1466" on="0"/>
        <pt x="861" y="1550" on="1"/>
        <pt x="850" y="1559" on="0"/>
        <pt x="834" y="1572" on="1"/>
        <pt x="806" y="1594" on="1"/>
        <pt x="775" y="1620" on="0"/>
        <pt x="773" y="1620" on="1"/>
        <pt x="757" y="1620" on="0"/>
        <pt x="653" y="1524" on="1"/>
        <pt x="587" y="1463" on="0"/>
        <pt x="452" y="1463" on="0"/>
        <pt x="452" y="1501" on="1"/>
        <pt x="452" y="1508" on="1"/>
        <pt x="452" y="1514" on="0"/>
        <pt x="630" y="1741" on="0"/>
        <pt x="711" y="1809" on="0"/>
      </contour>
      <contour>
        <pt x="190" y="456" on="0"/>
        <pt x="190" y="1108" on="0"/>
        <pt x="184" y="1127" on="1"/>
        <pt x="175" y="1157" on="0"/>
        <pt x="46" y="1218" on="0"/>
        <pt x="46" y="1248" on="1"/>
        <pt x="46" y="1281" on="1"/>
        <pt x="46" y="1314" on="0"/>
        <pt x="118" y="1341" on="0"/>
        <pt x="440" y="1341" on="1"/>
        <pt x="602" y="1341" on="0"/>
        <pt x="602" y="1296" on="1"/>
        <pt x="602" y="1285" on="0"/>
        <pt x="519" y="1083" on="0"/>
        <pt x="497" y="952" on="0"/>
        <pt x="497" y="710" on="1"/>
        <pt x="497" y="348" on="0"/>
        <pt x="554" y="248" on="1"/>
        <pt x="625" y="125" on="0"/>
        <pt x="805" y="125" on="1"/>
        <pt x="894" y="125" on="0"/>
        <pt x="1024" y="211" on="0"/>
        <pt x="1054" y="279" on="1"/>
        <pt x="1098" y="379" on="0"/>
        <pt x="1098" y="1101" on="0"/>
        <pt x="1027" y="1195" on="1"/>
        <pt x="982" y="1254" on="0"/>
        <pt x="982" y="1320" on="0"/>
        <pt x="1069" y="1339" on="0"/>
        <pt x="1317" y="1339" on="0"/>
        <pt x="1392" y="1318" on="1"/>
        <pt x="1435" y="1306" on="0"/>
        <pt x="1435" y="1215" on="0"/>
        <pt x="1311" y="1127" on="0"/>
        <pt x="1294" y="1058" on="0"/>
        <pt x="1294" y="447" on="0"/>
        <pt x="1260" y="235" on="0"/>
        <pt x="1211" y="163" on="1"/>
        <pt x="1072" y="-41" on="0"/>
        <pt x="746" y="-41" on="1"/>
        <pt x="251" y="-41" on="0"/>
        <pt x="200" y="376" on="1"/>
      </contour>
    </TTGlyph>
    <TTGlyph name="Udieresis" xMin="46" yMin="-37" xMax="1435" yMax="1764">
      <contour>
        <pt x="572" y="1487" on="1"/>
        <pt x="548" y="1487" on="1"/>
        <pt x="536" y="1490" on="0"/>
        <pt x="491" y="1490" on="0"/>
        <pt x="425" y="1556" on="0"/>
        <pt x="425" y="1592" on="1"/>
        <pt x="422" y="1615" on="1"/>
        <pt x="422" y="1634" on="1"/>
        <pt x="422" y="1683" on="0"/>
        <pt x="489" y="1761" on="0"/>
        <pt x="536" y="1761" on="1"/>
        <pt x="564" y="1764" on="1"/>
        <pt x="574" y="1764" on="1"/>
        <pt x="579" y="1763" on="1"/>
        <pt x="588" y="1763" on="1"/>
        <pt x="602" y="1760" on="0"/>
        <pt x="606" y="1760" on="1"/>
        <pt x="642" y="1760" on="0"/>
        <pt x="705" y="1687" on="0"/>
        <pt x="705" y="1635" on="1"/>
        <pt x="705" y="1616" on="1"/>
        <pt x="705" y="1555" on="0"/>
        <pt x="625" y="1487" on="0"/>
      </contour>
      <contour>
        <pt x="983" y="1764" on="1"/>
        <pt x="998" y="1764" on="1"/>
        <pt x="1045" y="1764" on="0"/>
        <pt x="1128" y="1705" on="0"/>
        <pt x="1128" y="1639" on="1"/>
        <pt x="1128" y="1615" on="1"/>
        <pt x="1125" y="1603" on="0"/>
        <pt x="1125" y="1593" on="1"/>
        <pt x="1125" y="1546" on="0"/>
        <pt x="1042" y="1487" on="0"/>
        <pt x="995" y="1487" on="1"/>
        <pt x="975" y="1487" on="1"/>
        <pt x="971" y="1488" on="1"/>
        <pt x="961" y="1488" on="1"/>
        <pt x="947" y="1491" on="0"/>
        <pt x="943" y="1491" on="1"/>
        <pt x="912" y="1491" on="0"/>
        <pt x="849" y="1554" on="0"/>
        <pt x="849" y="1589" on="1"/>
        <pt x="845" y="1621" on="1"/>
        <pt x="845" y="1635" on="1"/>
        <pt x="848" y="1650" on="0"/>
        <pt x="848" y="1658" on="1"/>
        <pt x="848" y="1704" on="0"/>
        <pt x="932" y="1764" on="0"/>
      </contour>
      <contour>
        <pt x="190" y="460" on="0"/>
        <pt x="190" y="1113" on="0"/>
        <pt x="175" y="1160" on="0"/>
        <pt x="46" y="1222" on="0"/>
        <pt x="46" y="1252" on="1"/>
        <pt x="46" y="1285" on="1"/>
        <pt x="46" y="1318" on="0"/>
        <pt x="118" y="1345" on="0"/>
        <pt x="440" y="1345" on="1"/>
        <pt x="602" y="1345" on="0"/>
        <pt x="602" y="1300" on="1"/>
        <pt x="602" y="1289" on="0"/>
        <pt x="519" y="1087" on="0"/>
        <pt x="497" y="956" on="0"/>
        <pt x="497" y="714" on="1"/>
        <pt x="497" y="352" on="0"/>
        <pt x="554" y="252" on="1"/>
        <pt x="625" y="129" on="0"/>
        <pt x="805" y="129" on="1"/>
        <pt x="894" y="129" on="0"/>
        <pt x="1023" y="214" on="0"/>
        <pt x="1054" y="283" on="1"/>
        <pt x="1098" y="381" on="0"/>
        <pt x="1098" y="1106" on="0"/>
        <pt x="1027" y="1199" on="1"/>
        <pt x="982" y="1258" on="0"/>
        <pt x="982" y="1324" on="0"/>
        <pt x="1069" y="1343" on="0"/>
        <pt x="1317" y="1343" on="0"/>
        <pt x="1392" y="1322" on="1"/>
        <pt x="1435" y="1310" on="0"/>
        <pt x="1435" y="1220" on="0"/>
        <pt x="1310" y="1129" on="0"/>
        <pt x="1294" y="1062" on="0"/>
        <pt x="1294" y="443" on="0"/>
        <pt x="1258" y="236" on="0"/>
        <pt x="1211" y="167" on="1"/>
        <pt x="1072" y="-37" on="0"/>
        <pt x="408" y="-37" on="0"/>
        <pt x="272" y="166" on="1"/>
        <pt x="216" y="250" on="0"/>
      </contour>
    </TTGlyph>
    <TTGlyph name="Ugrave" xMin="46" yMin="-41" xMax="1435" yMax="1828">
      <contour>
        <pt x="611" y="1828" on="1"/>
        <pt x="679" y="1828" on="0"/>
        <pt x="721" y="1781" on="1"/>
        <pt x="742" y="1758" on="0"/>
        <pt x="833" y="1614" on="0"/>
        <pt x="898" y="1521" on="0"/>
        <pt x="898" y="1504" on="1"/>
        <pt x="898" y="1499" on="1"/>
        <pt x="898" y="1465" on="0"/>
        <pt x="843" y="1465" on="1"/>
        <pt x="838" y="1465" on="1"/>
        <pt x="779" y="1465" on="0"/>
        <pt x="710" y="1515" on="1"/>
        <pt x="459" y="1698" on="0"/>
        <pt x="459" y="1764" on="1"/>
        <pt x="460" y="1769" on="1"/>
        <pt x="460" y="1773" on="1"/>
        <pt x="460" y="1784" on="0"/>
        <pt x="538" y="1826" on="0"/>
        <pt x="581" y="1826" on="1"/>
        <pt x="593" y="1828" on="1"/>
      </contour>
      <contour>
        <pt x="190" y="456" on="0"/>
        <pt x="190" y="1109" on="0"/>
        <pt x="175" y="1156" on="0"/>
        <pt x="46" y="1218" on="0"/>
        <pt x="46" y="1248" on="1"/>
        <pt x="46" y="1281" on="1"/>
        <pt x="46" y="1314" on="0"/>
        <pt x="118" y="1341" on="0"/>
        <pt x="440" y="1341" on="1"/>
        <pt x="602" y="1341" on="0"/>
        <pt x="602" y="1296" on="1"/>
        <pt x="602" y="1285" on="0"/>
        <pt x="519" y="1083" on="0"/>
        <pt x="497" y="952" on="0"/>
        <pt x="497" y="710" on="1"/>
        <pt x="497" y="348" on="0"/>
        <pt x="554" y="248" on="1"/>
        <pt x="623" y="126" on="0"/>
        <pt x="804" y="126" on="1"/>
        <pt x="896" y="126" on="0"/>
        <pt x="1023" y="210" on="0"/>
        <pt x="1054" y="279" on="1"/>
        <pt x="1098" y="377" on="0"/>
        <pt x="1098" y="1105" on="0"/>
        <pt x="1027" y="1196" on="1"/>
        <pt x="982" y="1255" on="0"/>
        <pt x="982" y="1285" on="1"/>
        <pt x="982" y="1340" on="0"/>
        <pt x="1314" y="1340" on="0"/>
        <pt x="1392" y="1318" on="1"/>
        <pt x="1435" y="1306" on="0"/>
        <pt x="1435" y="1216" on="0"/>
        <pt x="1310" y="1125" on="0"/>
        <pt x="1294" y="1058" on="0"/>
        <pt x="1294" y="447" on="0"/>
        <pt x="1260" y="235" on="0"/>
        <pt x="1211" y="163" on="1"/>
        <pt x="1072" y="-41" on="0"/>
        <pt x="746" y="-41" on="1"/>
        <pt x="252" y="-41" on="0"/>
        <pt x="200" y="376" on="1"/>
      </contour>
    </TTGlyph>
    <TTGlyph name="V" xMin="23" yMin="-18" xMax="1444" yMax="1388">
      <contour>
        <pt x="375" y="1388" on="1"/>
        <pt x="555" y="1388" on="0"/>
        <pt x="555" y="1324" on="1"/>
        <pt x="555" y="1296" on="0"/>
        <pt x="517" y="1227" on="0"/>
        <pt x="517" y="1137" on="0"/>
        <pt x="550" y="1036" on="1"/>
        <pt x="688" y="615" on="0"/>
        <pt x="796" y="353" on="0"/>
        <pt x="806" y="353" on="1"/>
        <pt x="835" y="353" on="0"/>
        <pt x="1006" y="881" on="1"/>
        <pt x="1072" y="1085" on="0"/>
        <pt x="1072" y="1190" on="1"/>
        <pt x="1072" y="1215" on="0"/>
        <pt x="1013" y="1317" on="0"/>
        <pt x="1013" y="1330" on="1"/>
        <pt x="1013" y="1363" on="0"/>
        <pt x="1086" y="1388" on="0"/>
        <pt x="1196" y="1388" on="1"/>
        <pt x="1266" y="1388" on="1"/>
        <pt x="1379" y="1388" on="0"/>
        <pt x="1444" y="1353" on="0"/>
        <pt x="1444" y="1291" on="0"/>
        <pt x="1314" y="1189" on="0"/>
        <pt x="1283" y="1125" on="1"/>
        <pt x="1277" y="1113" on="0"/>
        <pt x="918" y="140" on="0"/>
        <pt x="821" y="-18" on="0"/>
        <pt x="713" y="-18" on="1"/>
        <pt x="651" y="-18" on="0"/>
        <pt x="593" y="114" on="1"/>
        <pt x="560" y="188" on="0"/>
        <pt x="391" y="628" on="1"/>
        <pt x="292" y="887" on="1"/>
        <pt x="267" y="952" on="0"/>
        <pt x="205" y="1119" on="0"/>
        <pt x="192" y="1148" on="1"/>
        <pt x="167" y="1202" on="0"/>
        <pt x="23" y="1287" on="0"/>
        <pt x="23" y="1364" on="0"/>
        <pt x="39" y="1372" on="1"/>
        <pt x="70" y="1388" on="0"/>
        <pt x="343" y="1388" on="1"/>
      </contour>
    </TTGlyph>
    <TTGlyph name="W" xMin="70" yMin="5" xMax="1986" yMax="1369">
      <contour>
        <pt x="1844" y="1360" on="1"/>
        <pt x="1986" y="1360" on="0"/>
        <pt x="1986" y="1288" on="1"/>
        <pt x="1986" y="1262" on="0"/>
        <pt x="1852" y="1002" on="0"/>
        <pt x="1830" y="932" on="1"/>
        <pt x="1783" y="770" on="1"/>
        <pt x="1641" y="289" on="0"/>
        <pt x="1607" y="184" on="1"/>
        <pt x="1590" y="132" on="1"/>
        <pt x="1560" y="67" on="0"/>
        <pt x="1491" y="30" on="1"/>
        <pt x="1459" y="13" on="0"/>
        <pt x="1373" y="13" on="0"/>
        <pt x="1311" y="73" on="0"/>
        <pt x="1248" y="213" on="0"/>
        <pt x="1043" y="822" on="0"/>
        <pt x="1034" y="822" on="1"/>
        <pt x="1017" y="792" on="1"/>
        <pt x="1001" y="739" on="1"/>
        <pt x="980" y="668" on="0"/>
        <pt x="968" y="631" on="1"/>
        <pt x="918" y="472" on="1"/>
        <pt x="821" y="162" on="0"/>
        <pt x="767" y="63" on="0"/>
        <pt x="691" y="5" on="0"/>
        <pt x="658" y="5" on="1"/>
        <pt x="562" y="5" on="0"/>
        <pt x="510" y="96" on="1"/>
        <pt x="492" y="127" on="0"/>
        <pt x="321" y="675" on="1"/>
        <pt x="304" y="728" on="1"/>
        <pt x="255" y="886" on="0"/>
        <pt x="237" y="941" on="1"/>
        <pt x="220" y="993" on="1"/>
        <pt x="187" y="1087" on="0"/>
        <pt x="70" y="1268" on="0"/>
        <pt x="70" y="1320" on="0"/>
        <pt x="129" y="1369" on="0"/>
        <pt x="181" y="1369" on="1"/>
        <pt x="419" y="1369" on="0"/>
        <pt x="514" y="1303" on="1"/>
        <pt x="581" y="1257" on="0"/>
        <pt x="581" y="1112" on="1"/>
        <pt x="579" y="1069" on="1"/>
        <pt x="577" y="1025" on="0"/>
        <pt x="577" y="978" on="1"/>
        <pt x="577" y="864" on="0"/>
        <pt x="687" y="527" on="0"/>
        <pt x="732" y="527" on="1"/>
        <pt x="747" y="540" on="1"/>
        <pt x="799" y="609" on="0"/>
        <pt x="869" y="923" on="0"/>
        <pt x="869" y="1066" on="1"/>
        <pt x="864" y="1108" on="1"/>
        <pt x="861" y="1148" on="1"/>
        <pt x="861" y="1264" on="0"/>
        <pt x="939" y="1314" on="1"/>
        <pt x="979" y="1340" on="0"/>
        <pt x="1196" y="1340" on="0"/>
        <pt x="1251" y="1256" on="1"/>
        <pt x="1288" y="1200" on="0"/>
        <pt x="1288" y="982" on="0"/>
        <pt x="1429" y="581" on="1"/>
        <pt x="1450" y="520" on="0"/>
        <pt x="1460" y="520" on="1"/>
        <pt x="1525" y="572" on="0"/>
        <pt x="1549" y="653" on="1"/>
        <pt x="1621" y="893" on="0"/>
        <pt x="1621" y="1013" on="1"/>
        <pt x="1621" y="1043" on="0"/>
        <pt x="1617" y="1098" on="1"/>
        <pt x="1613" y="1139" on="1"/>
        <pt x="1605" y="1176" on="1"/>
        <pt x="1597" y="1208" on="1"/>
        <pt x="1597" y="1285" on="0"/>
        <pt x="1754" y="1360" on="0"/>
      </contour>
    </TTGlyph>
    <TTGlyph name="X" xMin="54" yMin="0" xMax="1414" yMax="1394">
      <contour>
        <pt x="761" y="915" on="1"/>
        <pt x="796" y="915" on="0"/>
        <pt x="837" y="969" on="1"/>
        <pt x="971" y="1145" on="0"/>
        <pt x="971" y="1208" on="1"/>
        <pt x="971" y="1246" on="0"/>
        <pt x="961" y="1263" on="1"/>
        <pt x="926" y="1324" on="0"/>
        <pt x="926" y="1370" on="0"/>
        <pt x="976" y="1388" on="0"/>
        <pt x="1115" y="1388" on="1"/>
        <pt x="1376" y="1388" on="0"/>
        <pt x="1376" y="1308" on="0"/>
        <pt x="1346" y="1270" on="0"/>
        <pt x="1201" y="1198" on="0"/>
        <pt x="1138" y="1117" on="1"/>
        <pt x="892" y="804" on="0"/>
        <pt x="892" y="732" on="1"/>
        <pt x="892" y="716" on="0"/>
        <pt x="931" y="658" on="1"/>
        <pt x="1131" y="360" on="0"/>
        <pt x="1237" y="232" on="1"/>
        <pt x="1277" y="184" on="0"/>
        <pt x="1327" y="154" on="1"/>
        <pt x="1414" y="102" on="0"/>
        <pt x="1414" y="26" on="0"/>
        <pt x="1377" y="18" on="1"/>
        <pt x="1295" y="0" on="0"/>
        <pt x="921" y="0" on="0"/>
        <pt x="864" y="27" on="0"/>
        <pt x="864" y="88" on="0"/>
        <pt x="873" y="111" on="1"/>
        <pt x="884" y="134" on="1"/>
        <pt x="894" y="159" on="1"/>
        <pt x="894" y="223" on="0"/>
        <pt x="758" y="436" on="1"/>
        <pt x="703" y="522" on="0"/>
        <pt x="685" y="522" on="1"/>
        <pt x="651" y="522" on="0"/>
        <pt x="583" y="425" on="1"/>
        <pt x="469" y="262" on="0"/>
        <pt x="469" y="174" on="0"/>
        <pt x="483" y="138" on="1"/>
        <pt x="497" y="110" on="1"/>
        <pt x="516" y="71" on="0"/>
        <pt x="516" y="58" on="1"/>
        <pt x="516" y="22" on="0"/>
        <pt x="398" y="2" on="0"/>
        <pt x="54" y="2" on="0"/>
        <pt x="54" y="55" on="1"/>
        <pt x="54" y="79" on="0"/>
        <pt x="180" y="177" on="1"/>
        <pt x="228" y="215" on="0"/>
        <pt x="321" y="337" on="1"/>
        <pt x="548" y="637" on="0"/>
        <pt x="548" y="689" on="1"/>
        <pt x="548" y="756" on="0"/>
        <pt x="276" y="1120" on="1"/>
        <pt x="219" y="1196" on="0"/>
        <pt x="68" y="1299" on="0"/>
        <pt x="68" y="1331" on="1"/>
        <pt x="68" y="1369" on="0"/>
        <pt x="124" y="1378" on="1"/>
        <pt x="224" y="1394" on="0"/>
        <pt x="466" y="1394" on="1"/>
        <pt x="510" y="1394" on="1"/>
        <pt x="556" y="1394" on="0"/>
        <pt x="609" y="1363" on="0"/>
        <pt x="609" y="1311" on="1"/>
        <pt x="609" y="1298" on="0"/>
        <pt x="577" y="1239" on="0"/>
        <pt x="577" y="1181" on="0"/>
        <pt x="749" y="915" on="0"/>
      </contour>
    </TTGlyph>
    <TTGlyph name="Y" xMin="45" yMin="-27" xMax="1364" yMax="1392">
      <contour>
        <pt x="870" y="258" on="1"/>
        <pt x="870" y="181" on="0"/>
        <pt x="904" y="134" on="1"/>
        <pt x="918" y="115" on="0"/>
        <pt x="980" y="51" on="0"/>
        <pt x="980" y="31" on="1"/>
        <pt x="980" y="-27" on="0"/>
        <pt x="885" y="-27" on="1"/>
        <pt x="856" y="-27" on="0"/>
        <pt x="818" y="-24" on="1"/>
        <pt x="755" y="-18" on="1"/>
        <pt x="694" y="-14" on="0"/>
        <pt x="502" y="-14" on="0"/>
        <pt x="469" y="-8" on="1"/>
        <pt x="437" y="-2" on="0"/>
        <pt x="437" y="55" on="0"/>
        <pt x="544" y="162" on="0"/>
        <pt x="582" y="241" on="0"/>
        <pt x="582" y="500" on="0"/>
        <pt x="516" y="617" on="1"/>
        <pt x="289" y="1020" on="0"/>
        <pt x="201" y="1138" on="1"/>
        <pt x="177" y="1171" on="0"/>
        <pt x="45" y="1263" on="0"/>
        <pt x="45" y="1349" on="0"/>
        <pt x="92" y="1366" on="1"/>
        <pt x="162" y="1392" on="0"/>
        <pt x="379" y="1392" on="1"/>
        <pt x="413" y="1392" on="1"/>
        <pt x="556" y="1392" on="0"/>
        <pt x="556" y="1320" on="1"/>
        <pt x="552" y="1298" on="1"/>
        <pt x="547" y="1277" on="1"/>
        <pt x="538" y="1229" on="0"/>
        <pt x="538" y="1214" on="1"/>
        <pt x="538" y="1145" on="0"/>
        <pt x="696" y="834" on="1"/>
        <pt x="739" y="749" on="0"/>
        <pt x="759" y="749" on="1"/>
        <pt x="798" y="749" on="0"/>
        <pt x="922" y="971" on="1"/>
        <pt x="986" y="1085" on="0"/>
        <pt x="986" y="1183" on="0"/>
        <pt x="939" y="1282" on="0"/>
        <pt x="939" y="1307" on="1"/>
        <pt x="939" y="1351" on="0"/>
        <pt x="990" y="1366" on="1"/>
        <pt x="1067" y="1389" on="0"/>
        <pt x="1239" y="1389" on="1"/>
        <pt x="1364" y="1389" on="0"/>
        <pt x="1364" y="1338" on="1"/>
        <pt x="1364" y="1277" on="0"/>
        <pt x="1316" y="1243" on="1"/>
        <pt x="1228" y="1181" on="0"/>
        <pt x="1203" y="1143" on="1"/>
        <pt x="1091" y="975" on="0"/>
        <pt x="938" y="653" on="1"/>
        <pt x="870" y="510" on="0"/>
      </contour>
    </TTGlyph>
    <TTGlyph name="Yacute" xMin="27" yMin="-33" xMax="1345" yMax="1832">
      <contour>
        <pt x="890" y="1832" on="1"/>
        <pt x="902" y="1832" on="1"/>
        <pt x="970" y="1832" on="0"/>
        <pt x="1024" y="1796" on="1"/>
        <pt x="1036" y="1788" on="0"/>
        <pt x="1036" y="1775" on="1"/>
        <pt x="1036" y="1769" on="1"/>
        <pt x="1036" y="1739" on="0"/>
        <pt x="1008" y="1711" on="1"/>
        <pt x="876" y="1579" on="0"/>
        <pt x="763" y="1507" on="1"/>
        <pt x="705" y="1470" on="0"/>
        <pt x="650" y="1470" on="1"/>
        <pt x="644" y="1470" on="1"/>
        <pt x="595" y="1470" on="0"/>
        <pt x="595" y="1498" on="1"/>
        <pt x="595" y="1514" on="1"/>
        <pt x="595" y="1582" on="0"/>
        <pt x="773" y="1782" on="1"/>
        <pt x="817" y="1832" on="0"/>
      </contour>
      <contour>
        <pt x="404" y="-16" on="0"/>
        <pt x="404" y="61" on="0"/>
        <pt x="519" y="169" on="0"/>
        <pt x="548" y="216" on="0"/>
        <pt x="548" y="288" on="1"/>
        <pt x="548" y="481" on="0"/>
        <pt x="488" y="593" on="1"/>
        <pt x="301" y="941" on="0"/>
        <pt x="199" y="1088" on="1"/>
        <pt x="170" y="1129" on="0"/>
        <pt x="27" y="1222" on="0"/>
        <pt x="27" y="1316" on="0"/>
        <pt x="149" y="1346" on="0"/>
        <pt x="482" y="1346" on="0"/>
        <pt x="575" y="1311" on="0"/>
        <pt x="575" y="1243" on="0"/>
        <pt x="550" y="1170" on="0"/>
        <pt x="550" y="1157" on="1"/>
        <pt x="550" y="1060" on="0"/>
        <pt x="691" y="812" on="1"/>
        <pt x="735" y="734" on="0"/>
        <pt x="759" y="734" on="1"/>
        <pt x="805" y="734" on="0"/>
        <pt x="918" y="956" on="1"/>
        <pt x="961" y="1041" on="0"/>
        <pt x="961" y="1129" on="0"/>
        <pt x="916" y="1229" on="0"/>
        <pt x="916" y="1257" on="1"/>
        <pt x="916" y="1301" on="0"/>
        <pt x="1075" y="1342" on="0"/>
        <pt x="1263" y="1342" on="1"/>
        <pt x="1345" y="1342" on="0"/>
        <pt x="1345" y="1239" on="0"/>
        <pt x="1293" y="1200" on="1"/>
        <pt x="1201" y="1130" on="0"/>
        <pt x="1183" y="1104" on="1"/>
        <pt x="1100" y="982" on="0"/>
        <pt x="931" y="655" on="1"/>
        <pt x="866" y="529" on="0"/>
        <pt x="866" y="304" on="1"/>
        <pt x="866" y="229" on="0"/>
        <pt x="895" y="151" on="0"/>
        <pt x="989" y="48" on="0"/>
        <pt x="989" y="13" on="1"/>
        <pt x="989" y="-33" on="0"/>
        <pt x="912" y="-33" on="1"/>
        <pt x="843" y="-33" on="1"/>
        <pt x="654" y="-28" on="1"/>
        <pt x="509" y="-28" on="0"/>
        <pt x="446" y="-21" on="1"/>
      </contour>
    </TTGlyph>
    <TTGlyph name="Ydieresis" xMin="21" yMin="-66" xMax="1343" yMax="1741">
      <contour>
        <pt x="514" y="1462" on="1"/>
        <pt x="481" y="1462" on="1"/>
        <pt x="428" y="1462" on="0"/>
        <pt x="365" y="1536" on="0"/>
        <pt x="365" y="1580" on="1"/>
        <pt x="365" y="1608" on="1"/>
        <pt x="365" y="1658" on="0"/>
        <pt x="434" y="1738" on="0"/>
        <pt x="475" y="1738" on="1"/>
        <pt x="498" y="1741" on="1"/>
        <pt x="522" y="1741" on="1"/>
        <pt x="574" y="1741" on="0"/>
        <pt x="651" y="1675" on="0"/>
        <pt x="651" y="1618" on="1"/>
        <pt x="651" y="1604" on="1"/>
        <pt x="651" y="1550" on="0"/>
        <pt x="576" y="1462" on="0"/>
      </contour>
      <contour>
        <pt x="939" y="1463" on="1"/>
        <pt x="906" y="1463" on="1"/>
        <pt x="852" y="1463" on="0"/>
        <pt x="790" y="1538" on="0"/>
        <pt x="790" y="1580" on="1"/>
        <pt x="790" y="1613" on="1"/>
        <pt x="792" y="1623" on="0"/>
        <pt x="792" y="1627" on="1"/>
        <pt x="792" y="1659" on="0"/>
        <pt x="859" y="1737" on="0"/>
        <pt x="901" y="1737" on="1"/>
        <pt x="924" y="1740" on="1"/>
        <pt x="948" y="1740" on="1"/>
        <pt x="994" y="1740" on="0"/>
        <pt x="1077" y="1681" on="0"/>
        <pt x="1077" y="1617" on="1"/>
        <pt x="1077" y="1603" on="1"/>
        <pt x="1077" y="1544" on="0"/>
        <pt x="996" y="1463" on="0"/>
      </contour>
      <contour>
        <pt x="968" y="-4" on="1"/>
        <pt x="968" y="-52" on="0"/>
        <pt x="938" y="-62" on="1"/>
        <pt x="926" y="-66" on="0"/>
        <pt x="875" y="-66" on="1"/>
        <pt x="840" y="-66" on="1"/>
        <pt x="836" y="-66" on="0"/>
        <pt x="648" y="-52" on="0"/>
        <pt x="400" y="-52" on="0"/>
        <pt x="400" y="-23" on="1"/>
        <pt x="400" y="20" on="0"/>
        <pt x="522" y="142" on="0"/>
        <pt x="554" y="210" on="0"/>
        <pt x="554" y="472" on="0"/>
        <pt x="451" y="654" on="0"/>
        <pt x="176" y="1070" on="1"/>
        <pt x="155" y="1101" on="0"/>
        <pt x="21" y="1195" on="0"/>
        <pt x="21" y="1231" on="1"/>
        <pt x="21" y="1290" on="0"/>
        <pt x="99" y="1304" on="1"/>
        <pt x="224" y="1326" on="0"/>
        <pt x="417" y="1326" on="1"/>
        <pt x="540" y="1326" on="0"/>
        <pt x="540" y="1268" on="1"/>
        <pt x="537" y="1248" on="1"/>
        <pt x="531" y="1228" on="1"/>
        <pt x="528" y="1213" on="0"/>
        <pt x="528" y="1165" on="1"/>
        <pt x="528" y="1092" on="0"/>
        <pt x="678" y="797" on="1"/>
        <pt x="720" y="714" on="0"/>
        <pt x="754" y="714" on="0"/>
        <pt x="808" y="792" on="1"/>
        <pt x="954" y="1003" on="0"/>
        <pt x="954" y="1106" on="1"/>
        <pt x="954" y="1137" on="0"/>
        <pt x="899" y="1218" on="0"/>
        <pt x="899" y="1290" on="0"/>
        <pt x="938" y="1305" on="1"/>
        <pt x="999" y="1329" on="0"/>
        <pt x="1259" y="1329" on="0"/>
        <pt x="1343" y="1297" on="0"/>
        <pt x="1343" y="1207" on="0"/>
        <pt x="1210" y="1118" on="0"/>
        <pt x="1188" y="1089" on="1"/>
        <pt x="1114" y="992" on="0"/>
        <pt x="916" y="609" on="1"/>
        <pt x="868" y="517" on="0"/>
        <pt x="843" y="388" on="0"/>
        <pt x="843" y="156" on="0"/>
        <pt x="877" y="97" on="0"/>
        <pt x="968" y="21" on="0"/>
      </contour>
    </TTGlyph>
    <TTGlyph name="Z" xMin="81" yMin="-1" xMax="1203" yMax="1389">
      <contour>
        <pt x="483" y="1389" on="1"/>
        <pt x="676" y="1389" on="1"/>
        <pt x="1093" y="1389" on="0"/>
        <pt x="1164" y="1370" on="0"/>
        <pt x="1164" y="1246" on="0"/>
        <pt x="454" y="205" on="0"/>
        <pt x="454" y="189" on="1"/>
        <pt x="454" y="146" on="0"/>
        <pt x="792" y="146" on="0"/>
        <pt x="956" y="215" on="0"/>
        <pt x="1116" y="375" on="0"/>
        <pt x="1156" y="375" on="1"/>
        <pt x="1203" y="375" on="0"/>
        <pt x="1203" y="295" on="1"/>
        <pt x="1203" y="122" on="0"/>
        <pt x="1156" y="45" on="1"/>
        <pt x="1128" y="-1" on="0"/>
        <pt x="1003" y="-1" on="1"/>
        <pt x="231" y="-1" on="1"/>
        <pt x="147" y="-1" on="0"/>
        <pt x="122" y="9" on="1"/>
        <pt x="81" y="26" on="0"/>
        <pt x="81" y="135" on="0"/>
        <pt x="183" y="296" on="0"/>
        <pt x="785" y="1172" on="0"/>
        <pt x="785" y="1190" on="1"/>
        <pt x="785" y="1244" on="0"/>
        <pt x="545" y="1244" on="0"/>
        <pt x="397" y="1192" on="0"/>
        <pt x="195" y="1047" on="0"/>
        <pt x="160" y="1047" on="1"/>
        <pt x="112" y="1047" on="0"/>
        <pt x="112" y="1133" on="1"/>
        <pt x="112" y="1330" on="0"/>
        <pt x="158" y="1368" on="1"/>
        <pt x="183" y="1389" on="0"/>
      </contour>
    </TTGlyph>
    <TTGlyph name="Zcaron" xMin="66" yMin="-29" xMax="1181" yMax="1799">
      <contour>
        <pt x="658" y="1454" on="1"/>
        <pt x="632" y="1454" on="1"/>
        <pt x="582" y="1454" on="0"/>
        <pt x="530" y="1499" on="0"/>
        <pt x="384" y="1683" on="0"/>
        <pt x="331" y="1741" on="0"/>
        <pt x="331" y="1754" on="1"/>
        <pt x="331" y="1761" on="1"/>
        <pt x="331" y="1799" on="0"/>
        <pt x="390" y="1799" on="1"/>
        <pt x="398" y="1798" on="1"/>
        <pt x="406" y="1798" on="1"/>
        <pt x="463" y="1798" on="0"/>
        <pt x="590" y="1690" on="1"/>
        <pt x="646" y="1643" on="0"/>
        <pt x="651" y="1643" on="0"/>
        <pt x="850" y="1799" on="0"/>
        <pt x="899" y="1799" on="1"/>
        <pt x="906" y="1799" on="1"/>
        <pt x="965" y="1799" on="0"/>
        <pt x="965" y="1763" on="1"/>
        <pt x="965" y="1756" on="1"/>
        <pt x="965" y="1747" on="0"/>
        <pt x="784" y="1518" on="0"/>
        <pt x="715" y="1454" on="0"/>
      </contour>
      <contour>
        <pt x="1140" y="1320" on="0"/>
        <pt x="1140" y="1203" on="0"/>
        <pt x="1054" y="1069" on="1"/>
        <pt x="1040" y="1047" on="0"/>
        <pt x="444" y="173" on="0"/>
        <pt x="444" y="156" on="1"/>
        <pt x="444" y="124" on="0"/>
        <pt x="773" y="124" on="0"/>
        <pt x="916" y="180" on="0"/>
        <pt x="1083" y="359" on="0"/>
        <pt x="1181" y="359" on="0"/>
        <pt x="1181" y="315" on="1"/>
        <pt x="1181" y="222" on="0"/>
        <pt x="1134" y="5" on="0"/>
        <pt x="1125" y="-5" on="1"/>
        <pt x="1103" y="-29" on="0"/>
        <pt x="955" y="-29" on="1"/>
        <pt x="917" y="-29" on="1"/>
        <pt x="879" y="-28" on="1"/>
        <pt x="269" y="-29" on="1"/>
        <pt x="111" y="-29" on="0"/>
        <pt x="66" y="-3" on="0"/>
        <pt x="66" y="32" on="1"/>
        <pt x="66" y="122" on="0"/>
        <pt x="137" y="231" on="1"/>
        <pt x="151" y="252" on="0"/>
        <pt x="245" y="388" on="0"/>
        <pt x="288" y="451" on="1"/>
        <pt x="461" y="704" on="1"/>
        <pt x="759" y="1141" on="0"/>
        <pt x="759" y="1162" on="1"/>
        <pt x="759" y="1192" on="0"/>
        <pt x="485" y="1192" on="0"/>
        <pt x="321" y="1120" on="0"/>
        <pt x="185" y="971" on="0"/>
        <pt x="143" y="971" on="1"/>
        <pt x="89" y="971" on="0"/>
        <pt x="89" y="1052" on="1"/>
        <pt x="89" y="1292" on="0"/>
        <pt x="141" y="1325" on="1"/>
        <pt x="165" y="1340" on="0"/>
        <pt x="660" y="1340" on="1"/>
        <pt x="1002" y="1341" on="1"/>
        <pt x="1090" y="1341" on="0"/>
        <pt x="1109" y="1333" on="1"/>
      </contour>
    </TTGlyph>
    <TTGlyph name="a" xMin="67" yMin="-29" xMax="1051" yMax="980">
      <contour>
        <pt x="645" y="409" on="1"/>
        <pt x="645" y="454" on="0"/>
        <pt x="617" y="454" on="1"/>
        <pt x="591" y="454" on="1"/>
        <pt x="566" y="449" on="0"/>
        <pt x="553" y="449" on="1"/>
        <pt x="462" y="449" on="0"/>
        <pt x="338" y="343" on="0"/>
        <pt x="338" y="276" on="1"/>
        <pt x="338" y="253" on="1"/>
        <pt x="338" y="202" on="0"/>
        <pt x="402" y="128" on="0"/>
        <pt x="448" y="128" on="1"/>
        <pt x="480" y="128" on="1"/>
        <pt x="546" y="128" on="0"/>
        <pt x="640" y="210" on="0"/>
        <pt x="640" y="249" on="1"/>
        <pt x="644" y="269" on="0"/>
        <pt x="644" y="275" on="1"/>
        <pt x="646" y="291" on="1"/>
        <pt x="646" y="334" on="1"/>
        <pt x="647" y="350" on="1"/>
        <pt x="647" y="394" on="1"/>
        <pt x="645" y="404" on="0"/>
      </contour>
      <contour>
        <pt x="1051" y="92" on="1"/>
        <pt x="1051" y="77" on="1"/>
        <pt x="1051" y="43" on="0"/>
        <pt x="901" y="-16" on="0"/>
        <pt x="798" y="-16" on="1"/>
        <pt x="735" y="-16" on="0"/>
        <pt x="689" y="41" on="1"/>
        <pt x="664" y="73" on="0"/>
        <pt x="650" y="73" on="1"/>
        <pt x="636" y="74" on="0"/>
        <pt x="602" y="50" on="1"/>
        <pt x="488" y="-28" on="0"/>
        <pt x="356" y="-28" on="1"/>
        <pt x="355" y="-28" on="0"/>
        <pt x="354" y="-29" on="1"/>
        <pt x="224" y="-29" on="0"/>
        <pt x="68" y="105" on="0"/>
        <pt x="67" y="226" on="1"/>
        <pt x="67" y="486" on="0"/>
        <pt x="467" y="553" on="1"/>
        <pt x="563" y="568" on="0"/>
        <pt x="582" y="576" on="1"/>
        <pt x="640" y="600" on="0"/>
        <pt x="640" y="766" on="0"/>
        <pt x="565" y="839" on="0"/>
        <pt x="515" y="839" on="1"/>
        <pt x="436" y="839" on="0"/>
        <pt x="308" y="670" on="0"/>
        <pt x="223" y="670" on="1"/>
        <pt x="173" y="670" on="0"/>
        <pt x="122" y="725" on="0"/>
        <pt x="122" y="754" on="1"/>
        <pt x="122" y="842" on="0"/>
        <pt x="214" y="894" on="1"/>
        <pt x="367" y="980" on="0"/>
        <pt x="538" y="980" on="1"/>
        <pt x="590" y="980" on="1"/>
        <pt x="676" y="980" on="0"/>
        <pt x="833" y="907" on="0"/>
        <pt x="919" y="757" on="0"/>
        <pt x="919" y="237" on="0"/>
        <pt x="952" y="158" on="0"/>
        <pt x="1051" y="121" on="0"/>
      </contour>
    </TTGlyph>
    <TTGlyph name="aacute" xMin="66" yMin="-43" xMax="1060" yMax="1457">
      <contour>
        <pt x="648" y="320" on="1"/>
        <pt x="648" y="379" on="1"/>
        <pt x="648" y="439" on="0"/>
        <pt x="613" y="439" on="1"/>
        <pt x="593" y="439" on="1"/>
        <pt x="571" y="436" on="1"/>
        <pt x="544" y="433" on="1"/>
        <pt x="461" y="433" on="0"/>
        <pt x="343" y="332" on="0"/>
        <pt x="343" y="268" on="1"/>
        <pt x="343" y="234" on="1"/>
        <pt x="345" y="222" on="0"/>
        <pt x="345" y="217" on="1"/>
        <pt x="345" y="182" on="0"/>
        <pt x="412" y="115" on="0"/>
        <pt x="457" y="115" on="1"/>
        <pt x="483" y="115" on="1"/>
        <pt x="564" y="115" on="0"/>
        <pt x="620" y="180" on="1"/>
        <pt x="648" y="213" on="0"/>
      </contour>
      <contour>
        <pt x="482" y="1081" on="1"/>
        <pt x="465" y="1081" on="1"/>
        <pt x="404" y="1081" on="0"/>
        <pt x="404" y="1112" on="1"/>
        <pt x="404" y="1170" on="0"/>
        <pt x="566" y="1401" on="1"/>
        <pt x="604" y="1455" on="0"/>
        <pt x="670" y="1455" on="1"/>
        <pt x="682" y="1457" on="1"/>
        <pt x="714" y="1457" on="1"/>
        <pt x="728" y="1455" on="0"/>
        <pt x="733" y="1455" on="1"/>
        <pt x="835" y="1455" on="0"/>
        <pt x="835" y="1409" on="1"/>
        <pt x="835" y="1399" on="1"/>
        <pt x="835" y="1361" on="0"/>
        <pt x="523" y="1081" on="0"/>
      </contour>
      <contour>
        <pt x="1060" y="104" on="0"/>
        <pt x="1060" y="33" on="0"/>
        <pt x="1024" y="13" on="1"/>
        <pt x="945" y="-31" on="0"/>
        <pt x="753" y="-31" on="0"/>
        <pt x="716" y="0" on="1"/>
        <pt x="648" y="57" on="1"/>
        <pt x="636" y="57" on="0"/>
        <pt x="564" y="12" on="0"/>
        <pt x="535" y="-3" on="1"/>
        <pt x="457" y="-43" on="0"/>
        <pt x="373" y="-43" on="1"/>
        <pt x="348" y="-43" on="1"/>
        <pt x="224" y="-43" on="0"/>
        <pt x="66" y="92" on="0"/>
        <pt x="66" y="343" on="0"/>
        <pt x="152" y="417" on="1"/>
        <pt x="263" y="513" on="0"/>
        <pt x="491" y="545" on="1"/>
        <pt x="594" y="560" on="0"/>
        <pt x="640" y="604" on="0"/>
        <pt x="640" y="754" on="0"/>
        <pt x="564" y="823" on="0"/>
        <pt x="515" y="823" on="1"/>
        <pt x="442" y="823" on="0"/>
        <pt x="313" y="658" on="0"/>
        <pt x="222" y="658" on="1"/>
        <pt x="174" y="658" on="0"/>
        <pt x="121" y="715" on="0"/>
        <pt x="121" y="745" on="1"/>
        <pt x="121" y="833" on="0"/>
        <pt x="216" y="884" on="1"/>
        <pt x="366" y="964" on="0"/>
        <pt x="518" y="964" on="1"/>
        <pt x="569" y="964" on="1"/>
        <pt x="872" y="964" on="0"/>
        <pt x="916" y="712" on="1"/>
        <pt x="926" y="653" on="0"/>
        <pt x="926" y="227" on="0"/>
        <pt x="949" y="156" on="0"/>
      </contour>
    </TTGlyph>
    <TTGlyph name="acircumflex" xMin="75" yMin="-39" xMax="1069" yMax="1452">
      <contour>
        <pt x="657" y="389" on="1"/>
        <pt x="657" y="444" on="0"/>
        <pt x="618" y="444" on="1"/>
        <pt x="613" y="444" on="1"/>
        <pt x="608" y="443" on="1"/>
        <pt x="597" y="443" on="1"/>
        <pt x="555" y="436" on="0"/>
        <pt x="543" y="436" on="1"/>
        <pt x="459" y="436" on="0"/>
        <pt x="355" y="332" on="0"/>
        <pt x="355" y="289" on="1"/>
        <pt x="352" y="262" on="1"/>
        <pt x="352" y="244" on="1"/>
        <pt x="352" y="195" on="0"/>
        <pt x="417" y="119" on="0"/>
        <pt x="472" y="119" on="1"/>
        <pt x="488" y="119" on="1"/>
        <pt x="552" y="119" on="0"/>
        <pt x="651" y="196" on="0"/>
        <pt x="651" y="245" on="1"/>
        <pt x="654" y="260" on="0"/>
        <pt x="654" y="265" on="1"/>
        <pt x="657" y="297" on="1"/>
      </contour>
      <contour>
        <pt x="315" y="1085" on="1"/>
        <pt x="299" y="1085" on="1"/>
        <pt x="238" y="1085" on="0"/>
        <pt x="238" y="1125" on="1"/>
        <pt x="238" y="1143" on="0"/>
        <pt x="272" y="1186" on="0"/>
        <pt x="290" y="1211" on="1"/>
        <pt x="354" y="1296" on="1"/>
        <pt x="365" y="1310" on="0"/>
        <pt x="372" y="1321" on="1"/>
        <pt x="440" y="1410" on="1"/>
        <pt x="482" y="1452" on="0"/>
        <pt x="545" y="1452" on="1"/>
        <pt x="554" y="1452" on="1"/>
        <pt x="563" y="1451" on="1"/>
        <pt x="623" y="1451" on="0"/>
        <pt x="665" y="1401" on="1"/>
        <pt x="860" y="1171" on="0"/>
        <pt x="860" y="1129" on="1"/>
        <pt x="860" y="1122" on="1"/>
        <pt x="860" y="1086" on="0"/>
        <pt x="727" y="1086" on="0"/>
        <pt x="659" y="1154" on="1"/>
        <pt x="557" y="1256" on="0"/>
        <pt x="534" y="1256" on="0"/>
        <pt x="480" y="1197" on="0"/>
        <pt x="440" y="1161" on="1"/>
        <pt x="358" y="1085" on="0"/>
      </contour>
      <contour>
        <pt x="650" y="668" on="1"/>
        <pt x="650" y="827" on="0"/>
        <pt x="517" y="827" on="1"/>
        <pt x="446" y="827" on="0"/>
        <pt x="327" y="663" on="0"/>
        <pt x="231" y="663" on="1"/>
        <pt x="184" y="663" on="0"/>
        <pt x="130" y="719" on="0"/>
        <pt x="130" y="795" on="0"/>
        <pt x="177" y="865" on="0"/>
        <pt x="247" y="900" on="1"/>
        <pt x="385" y="969" on="0"/>
        <pt x="553" y="969" on="1"/>
        <pt x="579" y="969" on="1"/>
        <pt x="790" y="968" on="0"/>
        <pt x="878" y="840" on="1"/>
        <pt x="918" y="780" on="0"/>
        <pt x="936" y="634" on="0"/>
        <pt x="936" y="220" on="0"/>
        <pt x="967" y="154" on="0"/>
        <pt x="1069" y="112" on="0"/>
        <pt x="1069" y="36" on="0"/>
        <pt x="1033" y="17" on="1"/>
        <pt x="952" y="-26" on="0"/>
        <pt x="762" y="-26" on="0"/>
        <pt x="725" y="4" on="1"/>
        <pt x="713" y="14" on="0"/>
        <pt x="673" y="62" on="0"/>
        <pt x="660" y="62" on="1"/>
        <pt x="648" y="62" on="0"/>
        <pt x="608" y="38" on="1"/>
        <pt x="485" y="-38" on="0"/>
        <pt x="382" y="-39" on="1"/>
        <pt x="357" y="-39" on="1"/>
        <pt x="228" y="-39" on="0"/>
        <pt x="75" y="101" on="0"/>
        <pt x="75" y="228" on="1"/>
        <pt x="75" y="488" on="0"/>
        <pt x="500" y="549" on="1"/>
        <pt x="569" y="559" on="0"/>
        <pt x="650" y="595" on="0"/>
      </contour>
    </TTGlyph>
    <TTGlyph name="acute" xMin="219" yMin="1104" xMax="659" yMax="1478">
      <contour>
        <pt x="269" y="1106" on="1"/>
        <pt x="219" y="1106" on="0"/>
        <pt x="219" y="1133" on="1"/>
        <pt x="219" y="1148" on="0"/>
        <pt x="396" y="1426" on="0"/>
        <pt x="397" y="1427" on="1"/>
        <pt x="441" y="1476" on="0"/>
        <pt x="501" y="1476" on="1"/>
        <pt x="514" y="1478" on="1"/>
        <pt x="539" y="1478" on="1"/>
        <pt x="591" y="1478" on="0"/>
        <pt x="640" y="1451" on="1"/>
        <pt x="659" y="1441" on="0"/>
        <pt x="659" y="1422" on="1"/>
        <pt x="658" y="1417" on="1"/>
        <pt x="658" y="1360" on="0"/>
        <pt x="390" y="1146" on="1"/>
        <pt x="337" y="1104" on="0"/>
        <pt x="286" y="1104" on="1"/>
        <pt x="276" y="1106" on="0"/>
      </contour>
    </TTGlyph>
    <TTGlyph name="adieresis" xMin="83" yMin="-29" xMax="1077" yMax="1403">
      <contour>
        <pt x="551" y="446" on="1"/>
        <pt x="475" y="446" on="0"/>
        <pt x="360" y="345" on="0"/>
        <pt x="360" y="283" on="1"/>
        <pt x="360" y="254" on="1"/>
        <pt x="360" y="204" on="0"/>
        <pt x="426" y="129" on="0"/>
        <pt x="480" y="129" on="1"/>
        <pt x="495" y="129" on="1"/>
        <pt x="567" y="129" on="0"/>
        <pt x="661" y="212" on="0"/>
        <pt x="661" y="270" on="1"/>
        <pt x="663" y="280" on="0"/>
        <pt x="663" y="286" on="1"/>
        <pt x="665" y="313" on="1"/>
        <pt x="665" y="393" on="1"/>
        <pt x="665" y="454" on="0"/>
        <pt x="621" y="454" on="1"/>
        <pt x="615" y="453" on="1"/>
        <pt x="605" y="453" on="1"/>
        <pt x="578" y="448" on="1"/>
        <pt x="563" y="446" on="0"/>
      </contour>
      <contour>
        <pt x="350" y="1127" on="1"/>
        <pt x="327" y="1127" on="1"/>
        <pt x="283" y="1127" on="0"/>
        <pt x="202" y="1185" on="0"/>
        <pt x="202" y="1246" on="1"/>
        <pt x="202" y="1278" on="1"/>
        <pt x="202" y="1329" on="0"/>
        <pt x="276" y="1403" on="0"/>
        <pt x="333" y="1403" on="1"/>
        <pt x="352" y="1403" on="1"/>
        <pt x="367" y="1400" on="0"/>
        <pt x="413" y="1400" on="0"/>
        <pt x="481" y="1332" on="0"/>
        <pt x="481" y="1284" on="1"/>
        <pt x="481" y="1251" on="1"/>
        <pt x="481" y="1188" on="0"/>
        <pt x="396" y="1127" on="0"/>
      </contour>
      <contour>
        <pt x="753" y="1403" on="1"/>
        <pt x="772" y="1403" on="1"/>
        <pt x="823" y="1403" on="0"/>
        <pt x="899" y="1338" on="0"/>
        <pt x="899" y="1282" on="1"/>
        <pt x="899" y="1254" on="1"/>
        <pt x="896" y="1239" on="0"/>
        <pt x="896" y="1231" on="1"/>
        <pt x="896" y="1192" on="0"/>
        <pt x="820" y="1127" on="0"/>
        <pt x="771" y="1127" on="1"/>
        <pt x="747" y="1127" on="1"/>
        <pt x="695" y="1127" on="0"/>
        <pt x="622" y="1188" on="0"/>
        <pt x="622" y="1234" on="1"/>
        <pt x="619" y="1262" on="1"/>
        <pt x="619" y="1271" on="1"/>
        <pt x="619" y="1341" on="0"/>
        <pt x="706" y="1403" on="0"/>
      </contour>
      <contour>
        <pt x="1077" y="121" on="0"/>
        <pt x="1077" y="41" on="0"/>
        <pt x="1021" y="19" on="1"/>
        <pt x="931" y="-16" on="0"/>
        <pt x="813" y="-16" on="1"/>
        <pt x="770" y="-16" on="0"/>
        <pt x="721" y="24" on="0"/>
        <pt x="681" y="72" on="0"/>
        <pt x="654" y="72" on="0"/>
        <pt x="619" y="50" on="1"/>
        <pt x="497" y="-28" on="0"/>
        <pt x="390" y="-29" on="1"/>
        <pt x="365" y="-29" on="1"/>
        <pt x="241" y="-29" on="0"/>
        <pt x="83" y="106" on="0"/>
        <pt x="83" y="355" on="0"/>
        <pt x="252" y="506" on="0"/>
        <pt x="386" y="537" on="1"/>
        <pt x="631" y="594" on="0"/>
        <pt x="632" y="595" on="1"/>
        <pt x="657" y="618" on="0"/>
        <pt x="657" y="768" on="0"/>
        <pt x="583" y="837" on="0"/>
        <pt x="533" y="837" on="1"/>
        <pt x="454" y="837" on="0"/>
        <pt x="335" y="673" on="0"/>
        <pt x="239" y="673" on="1"/>
        <pt x="192" y="673" on="0"/>
        <pt x="138" y="729" on="0"/>
        <pt x="138" y="806" on="0"/>
        <pt x="186" y="875" on="0"/>
        <pt x="255" y="910" on="1"/>
        <pt x="393" y="979" on="0"/>
        <pt x="537" y="979" on="1"/>
        <pt x="798" y="979" on="0"/>
        <pt x="882" y="856" on="1"/>
        <pt x="921" y="799" on="0"/>
        <pt x="944" y="660" on="0"/>
        <pt x="944" y="240" on="0"/>
        <pt x="951" y="217" on="1"/>
        <pt x="966" y="169" on="0"/>
      </contour>
    </TTGlyph>
    <TTGlyph name="ae" xMin="62" yMin="-21" xMax="1489" yMax="987">
      <contour>
        <pt x="633" y="264" on="1"/>
        <pt x="633" y="295" on="1"/>
        <pt x="632" y="300" on="1"/>
        <pt x="632" y="311" on="1"/>
        <pt x="631" y="321" on="1"/>
        <pt x="631" y="332" on="1"/>
        <pt x="631" y="456" on="0"/>
        <pt x="581" y="456" on="1"/>
        <pt x="555" y="456" on="1"/>
        <pt x="525" y="451" on="0"/>
        <pt x="517" y="451" on="1"/>
        <pt x="442" y="451" on="0"/>
        <pt x="324" y="350" on="0"/>
        <pt x="324" y="290" on="1"/>
        <pt x="324" y="261" on="1"/>
        <pt x="324" y="207" on="0"/>
        <pt x="395" y="136" on="0"/>
        <pt x="446" y="136" on="1"/>
        <pt x="467" y="136" on="1"/>
        <pt x="549" y="136" on="0"/>
        <pt x="633" y="220" on="0"/>
      </contour>
      <contour>
        <pt x="902" y="606" on="1"/>
        <pt x="902" y="575" on="0"/>
        <pt x="943" y="575" on="1"/>
        <pt x="996" y="575" on="1"/>
        <pt x="1001" y="576" on="1"/>
        <pt x="1071" y="579" on="1"/>
        <pt x="1172" y="579" on="0"/>
        <pt x="1234" y="602" on="0"/>
        <pt x="1234" y="651" on="1"/>
        <pt x="1234" y="667" on="1"/>
        <pt x="1234" y="746" on="0"/>
        <pt x="1141" y="852" on="0"/>
        <pt x="1078" y="852" on="1"/>
        <pt x="1073" y="852" on="1"/>
        <pt x="1005" y="852" on="0"/>
        <pt x="905" y="735" on="0"/>
        <pt x="905" y="650" on="1"/>
        <pt x="902" y="622" on="1"/>
      </contour>
      <contour>
        <pt x="621" y="672" on="1"/>
        <pt x="621" y="839" on="0"/>
        <pt x="482" y="839" on="1"/>
        <pt x="409" y="839" on="0"/>
        <pt x="287" y="689" on="0"/>
        <pt x="232" y="689" on="1"/>
        <pt x="120" y="689" on="0"/>
        <pt x="120" y="794" on="1"/>
        <pt x="120" y="866" on="0"/>
        <pt x="359" y="983" on="0"/>
        <pt x="596" y="983" on="0"/>
        <pt x="684" y="956" on="0"/>
        <pt x="790" y="908" on="0"/>
        <pt x="814" y="908" on="0"/>
        <pt x="996" y="987" on="0"/>
        <pt x="1073" y="987" on="1"/>
        <pt x="1107" y="987" on="1"/>
        <pt x="1265" y="987" on="0"/>
        <pt x="1375" y="877" on="1"/>
        <pt x="1431" y="821" on="0"/>
        <pt x="1489" y="665" on="0"/>
        <pt x="1489" y="611" on="1"/>
        <pt x="1489" y="515" on="0"/>
        <pt x="1424" y="493" on="1"/>
        <pt x="1373" y="476" on="0"/>
        <pt x="989" y="459" on="0"/>
        <pt x="969" y="453" on="1"/>
        <pt x="909" y="437" on="0"/>
        <pt x="909" y="380" on="1"/>
        <pt x="909" y="281" on="0"/>
        <pt x="1053" y="152" on="0"/>
        <pt x="1166" y="152" on="1"/>
        <pt x="1216" y="152" on="0"/>
        <pt x="1390" y="204" on="0"/>
        <pt x="1398" y="204" on="1"/>
        <pt x="1450" y="204" on="0"/>
        <pt x="1450" y="88" on="0"/>
        <pt x="1216" y="-21" on="0"/>
        <pt x="983" y="-21" on="0"/>
        <pt x="853" y="32" on="0"/>
        <pt x="724" y="105" on="0"/>
        <pt x="702" y="105" on="0"/>
        <pt x="571" y="23" on="0"/>
        <pt x="444" y="-18" on="0"/>
        <pt x="350" y="-18" on="1"/>
        <pt x="215" y="-18" on="0"/>
        <pt x="62" y="131" on="0"/>
        <pt x="62" y="308" on="0"/>
        <pt x="90" y="362" on="1"/>
        <pt x="167" y="513" on="0"/>
        <pt x="446" y="559" on="1"/>
        <pt x="556" y="577" on="0"/>
        <pt x="571" y="584" on="1"/>
        <pt x="621" y="609" on="0"/>
      </contour>
    </TTGlyph>
    <TTGlyph name="agrave" xMin="86" yMin="-35" xMax="1056" yMax="1461">
      <contour>
        <pt x="666" y="386" on="1"/>
        <pt x="666" y="462" on="0"/>
        <pt x="621" y="462" on="1"/>
        <pt x="598" y="462" on="1"/>
        <pt x="586" y="460" on="0"/>
        <pt x="580" y="460" on="1"/>
        <pt x="497" y="460" on="0"/>
        <pt x="409" y="397" on="1"/>
        <pt x="351" y="356" on="0"/>
        <pt x="351" y="239" on="1"/>
        <pt x="351" y="233" on="1"/>
        <pt x="352" y="228" on="1"/>
        <pt x="352" y="185" on="0"/>
        <pt x="411" y="109" on="0"/>
        <pt x="467" y="109" on="1"/>
        <pt x="491" y="109" on="1"/>
        <pt x="559" y="109" on="0"/>
        <pt x="620" y="152" on="1"/>
        <pt x="657" y="178" on="0"/>
        <pt x="657" y="219" on="1"/>
        <pt x="663" y="253" on="0"/>
        <pt x="663" y="259" on="1"/>
        <pt x="664" y="271" on="1"/>
        <pt x="665" y="277" on="1"/>
        <pt x="666" y="301" on="1"/>
      </contour>
      <contour>
        <pt x="251" y="1401" on="1"/>
        <pt x="251" y="1411" on="1"/>
        <pt x="251" y="1423" on="0"/>
        <pt x="327" y="1461" on="0"/>
        <pt x="385" y="1461" on="1"/>
        <pt x="391" y="1461" on="1"/>
        <pt x="398" y="1460" on="1"/>
        <pt x="404" y="1460" on="1"/>
        <pt x="479" y="1460" on="0"/>
        <pt x="513" y="1416" on="1"/>
        <pt x="514" y="1414" on="0"/>
        <pt x="680" y="1130" on="0"/>
        <pt x="680" y="1115" on="1"/>
        <pt x="680" y="1083" on="0"/>
        <pt x="613" y="1083" on="1"/>
        <pt x="602" y="1083" on="1"/>
        <pt x="551" y="1083" on="0"/>
        <pt x="511" y="1123" on="1"/>
        <pt x="251" y="1383" on="0"/>
      </contour>
      <contour>
        <pt x="1056" y="77" on="1"/>
        <pt x="1056" y="29" on="0"/>
        <pt x="897" y="-21" on="0"/>
        <pt x="754" y="-21" on="0"/>
        <pt x="706" y="19" on="0"/>
        <pt x="668" y="63" on="0"/>
        <pt x="643" y="63" on="0"/>
        <pt x="600" y="37" on="1"/>
        <pt x="481" y="-35" on="0"/>
        <pt x="386" y="-35" on="1"/>
        <pt x="362" y="-35" on="1"/>
        <pt x="239" y="-35" on="0"/>
        <pt x="86" y="95" on="0"/>
        <pt x="86" y="336" on="0"/>
        <pt x="166" y="409" on="1"/>
        <pt x="269" y="503" on="0"/>
        <pt x="496" y="536" on="1"/>
        <pt x="564" y="546" on="0"/>
        <pt x="641" y="582" on="0"/>
        <pt x="641" y="740" on="0"/>
        <pt x="568" y="808" on="0"/>
        <pt x="523" y="808" on="1"/>
        <pt x="449" y="808" on="0"/>
        <pt x="325" y="648" on="0"/>
        <pt x="240" y="648" on="1"/>
        <pt x="193" y="648" on="0"/>
        <pt x="144" y="703" on="0"/>
        <pt x="144" y="732" on="1"/>
        <pt x="144" y="817" on="0"/>
        <pt x="236" y="867" on="1"/>
        <pt x="377" y="944" on="0"/>
        <pt x="555" y="944" on="1"/>
        <pt x="581" y="943" on="1"/>
        <pt x="606" y="943" on="1"/>
        <pt x="690" y="943" on="0"/>
        <pt x="834" y="875" on="0"/>
        <pt x="909" y="764" on="0"/>
        <pt x="927" y="618" on="0"/>
        <pt x="927" y="224" on="0"/>
        <pt x="934" y="202" on="1"/>
        <pt x="948" y="157" on="0"/>
        <pt x="1056" y="113" on="0"/>
      </contour>
    </TTGlyph>
    <TTGlyph name="ampersand" xMin="113" yMin="-13" xMax="1392" yMax="1406">
      <contour>
        <pt x="534" y="1139" on="1"/>
        <pt x="534" y="1107" on="1"/>
        <pt x="534" y="1043" on="0"/>
        <pt x="600" y="911" on="1"/>
        <pt x="616" y="879" on="0"/>
        <pt x="633" y="879" on="1"/>
        <pt x="673" y="879" on="0"/>
        <pt x="745" y="987" on="1"/>
        <pt x="783" y="1044" on="0"/>
        <pt x="783" y="1108" on="1"/>
        <pt x="783" y="1136" on="1"/>
        <pt x="783" y="1184" on="0"/>
        <pt x="713" y="1288" on="0"/>
        <pt x="670" y="1288" on="1"/>
        <pt x="646" y="1288" on="1"/>
        <pt x="612" y="1288" on="0"/>
        <pt x="534" y="1210" on="0"/>
      </contour>
      <contour>
        <pt x="357" y="409" on="1"/>
        <pt x="357" y="378" on="1"/>
        <pt x="357" y="281" on="0"/>
        <pt x="494" y="131" on="0"/>
        <pt x="591" y="131" on="1"/>
        <pt x="642" y="131" on="1"/>
        <pt x="656" y="133" on="0"/>
        <pt x="663" y="133" on="1"/>
        <pt x="712" y="133" on="0"/>
        <pt x="804" y="200" on="0"/>
        <pt x="804" y="213" on="1"/>
        <pt x="804" y="218" on="1"/>
        <pt x="804" y="226" on="0"/>
        <pt x="671" y="372" on="0"/>
        <pt x="486" y="616" on="0"/>
        <pt x="471" y="616" on="1"/>
        <pt x="466" y="616" on="1"/>
        <pt x="433" y="616" on="0"/>
        <pt x="385" y="528" on="1"/>
        <pt x="357" y="477" on="0"/>
      </contour>
      <contour>
        <pt x="1017" y="681" on="1"/>
        <pt x="1017" y="717" on="0"/>
        <pt x="1072" y="737" on="1"/>
        <pt x="1173" y="774" on="0"/>
        <pt x="1360" y="774" on="0"/>
        <pt x="1360" y="729" on="1"/>
        <pt x="1360" y="713" on="0"/>
        <pt x="1306" y="661" on="0"/>
        <pt x="1207" y="491" on="0"/>
        <pt x="1164" y="391" on="0"/>
        <pt x="1164" y="264" on="0"/>
        <pt x="1254" y="169" on="0"/>
        <pt x="1392" y="101" on="0"/>
        <pt x="1392" y="78" on="1"/>
        <pt x="1392" y="69" on="0"/>
        <pt x="1375" y="60" on="1"/>
        <pt x="1282" y="12" on="0"/>
        <pt x="1159" y="12" on="1"/>
        <pt x="1117" y="12" on="0"/>
        <pt x="953" y="56" on="0"/>
        <pt x="883" y="56" on="0"/>
        <pt x="651" y="-13" on="0"/>
        <pt x="549" y="-13" on="1"/>
        <pt x="354" y="-13" on="0"/>
        <pt x="232" y="93" on="1"/>
        <pt x="170" y="147" on="0"/>
        <pt x="113" y="287" on="0"/>
        <pt x="113" y="345" on="1"/>
        <pt x="113" y="377" on="1"/>
        <pt x="113" y="521" on="0"/>
        <pt x="249" y="648" on="1"/>
        <pt x="358" y="750" on="0"/>
        <pt x="358" y="810" on="0"/>
        <pt x="283" y="998" on="0"/>
        <pt x="283" y="1070" on="1"/>
        <pt x="283" y="1284" on="0"/>
        <pt x="486" y="1375" on="1"/>
        <pt x="556" y="1406" on="0"/>
        <pt x="639" y="1406" on="1"/>
        <pt x="783" y="1406" on="0"/>
        <pt x="939" y="1250" on="0"/>
        <pt x="939" y="1117" on="1"/>
        <pt x="939" y="1047" on="0"/>
        <pt x="826" y="821" on="0"/>
        <pt x="826" y="666" on="0"/>
        <pt x="909" y="541" on="0"/>
        <pt x="958" y="541" on="1"/>
        <pt x="981" y="541" on="0"/>
        <pt x="1027" y="590" on="0"/>
        <pt x="1027" y="648" on="1"/>
        <pt x="1017" y="673" on="0"/>
      </contour>
    </TTGlyph>
    <TTGlyph name="aring" xMin="83" yMin="-36" xMax="1077" yMax="1496">
      <contour>
        <pt x="454" y="1280" on="1"/>
        <pt x="454" y="1233" on="0"/>
        <pt x="518" y="1182" on="0"/>
        <pt x="541" y="1182" on="1"/>
        <pt x="568" y="1182" on="1"/>
        <pt x="597" y="1182" on="0"/>
        <pt x="650" y="1235" on="0"/>
        <pt x="652" y="1261" on="0"/>
        <pt x="652" y="1265" on="1"/>
        <pt x="654" y="1282" on="1"/>
        <pt x="654" y="1293" on="1"/>
        <pt x="654" y="1331" on="0"/>
        <pt x="597" y="1388" on="0"/>
        <pt x="564" y="1388" on="1"/>
        <pt x="543" y="1388" on="1"/>
        <pt x="518" y="1388" on="0"/>
        <pt x="458" y="1340" on="0"/>
        <pt x="458" y="1314" on="1"/>
        <pt x="456" y="1308" on="0"/>
        <pt x="456" y="1304" on="1"/>
        <pt x="454" y="1287" on="1"/>
      </contour>
      <contour>
        <pt x="545" y="438" on="1"/>
        <pt x="474" y="438" on="0"/>
        <pt x="360" y="338" on="0"/>
        <pt x="360" y="276" on="1"/>
        <pt x="360" y="247" on="1"/>
        <pt x="360" y="197" on="0"/>
        <pt x="426" y="122" on="0"/>
        <pt x="480" y="122" on="1"/>
        <pt x="495" y="122" on="1"/>
        <pt x="567" y="122" on="0"/>
        <pt x="661" y="205" on="0"/>
        <pt x="661" y="263" on="1"/>
        <pt x="663" y="273" on="0"/>
        <pt x="663" y="279" on="1"/>
        <pt x="665" y="306" on="1"/>
        <pt x="665" y="386" on="1"/>
        <pt x="665" y="447" on="0"/>
        <pt x="621" y="447" on="1"/>
        <pt x="615" y="446" on="1"/>
        <pt x="572" y="442" on="1"/>
        <pt x="550" y="438" on="0"/>
      </contour>
      <contour>
        <pt x="327" y="1265" on="1"/>
        <pt x="327" y="1294" on="1"/>
        <pt x="327" y="1375" on="0"/>
        <pt x="461" y="1496" on="0"/>
        <pt x="544" y="1496" on="1"/>
        <pt x="573" y="1496" on="1"/>
        <pt x="654" y="1496" on="0"/>
        <pt x="782" y="1381" on="0"/>
        <pt x="782" y="1304" on="1"/>
        <pt x="782" y="1275" on="1"/>
        <pt x="780" y="1261" on="0"/>
        <pt x="780" y="1254" on="1"/>
        <pt x="780" y="1187" on="0"/>
        <pt x="644" y="1075" on="0"/>
        <pt x="579" y="1075" on="1"/>
        <pt x="565" y="1073" on="1"/>
        <pt x="536" y="1073" on="1"/>
        <pt x="522" y="1075" on="0"/>
        <pt x="514" y="1075" on="1"/>
        <pt x="440" y="1075" on="0"/>
        <pt x="327" y="1200" on="0"/>
      </contour>
      <contour>
        <pt x="1077" y="114" on="0"/>
        <pt x="1077" y="34" on="0"/>
        <pt x="1021" y="12" on="1"/>
        <pt x="931" y="-23" on="0"/>
        <pt x="813" y="-23" on="1"/>
        <pt x="770" y="-23" on="0"/>
        <pt x="721" y="17" on="0"/>
        <pt x="701" y="41" on="1"/>
        <pt x="682" y="65" on="0"/>
        <pt x="668" y="65" on="1"/>
        <pt x="654" y="64" on="0"/>
        <pt x="619" y="42" on="1"/>
        <pt x="497" y="-36" on="0"/>
        <pt x="390" y="-36" on="1"/>
        <pt x="365" y="-36" on="1"/>
        <pt x="241" y="-36" on="0"/>
        <pt x="83" y="99" on="0"/>
        <pt x="83" y="348" on="0"/>
        <pt x="252" y="499" on="0"/>
        <pt x="386" y="530" on="1"/>
        <pt x="631" y="587" on="0"/>
        <pt x="632" y="588" on="1"/>
        <pt x="657" y="611" on="0"/>
        <pt x="657" y="761" on="0"/>
        <pt x="583" y="830" on="0"/>
        <pt x="533" y="830" on="1"/>
        <pt x="454" y="830" on="0"/>
        <pt x="335" y="666" on="0"/>
        <pt x="239" y="666" on="1"/>
        <pt x="192" y="666" on="0"/>
        <pt x="138" y="722" on="0"/>
        <pt x="138" y="799" on="0"/>
        <pt x="186" y="868" on="0"/>
        <pt x="255" y="903" on="1"/>
        <pt x="393" y="972" on="0"/>
        <pt x="537" y="972" on="1"/>
        <pt x="798" y="972" on="0"/>
        <pt x="882" y="849" on="1"/>
        <pt x="921" y="792" on="0"/>
        <pt x="944" y="653" on="0"/>
        <pt x="944" y="233" on="0"/>
        <pt x="951" y="210" on="1"/>
        <pt x="965" y="162" on="0"/>
      </contour>
    </TTGlyph>
    <TTGlyph name="asciicircum" xMin="125" yMin="753" xMax="976" yMax="1395">
      <contour>
        <pt x="902" y="753" on="1"/>
        <pt x="840" y="753" on="0"/>
        <pt x="756" y="851" on="0"/>
        <pt x="553" y="1168" on="0"/>
        <pt x="538" y="1168" on="0"/>
        <pt x="313" y="832" on="0"/>
        <pt x="294" y="809" on="1"/>
        <pt x="249" y="756" on="0"/>
        <pt x="125" y="756" on="0"/>
        <pt x="125" y="788" on="1"/>
        <pt x="125" y="799" on="1"/>
        <pt x="125" y="810" on="0"/>
        <pt x="414" y="1292" on="0"/>
        <pt x="486" y="1395" on="0"/>
        <pt x="552" y="1395" on="1"/>
        <pt x="566" y="1395" on="1"/>
        <pt x="614" y="1395" on="0"/>
        <pt x="673" y="1316" on="0"/>
        <pt x="930" y="887" on="1"/>
        <pt x="976" y="810" on="0"/>
        <pt x="976" y="786" on="1"/>
        <pt x="976" y="753" on="0"/>
        <pt x="915" y="753" on="1"/>
      </contour>
    </TTGlyph>
</ttFont>
